<?xml version="1.0" standalone="no"?>
<!DOCTYPE svg PUBLIC "-//W3C//DTD SVG 1.1//EN" "http://www.w3.org/Graphics/SVG/1.1/DTD/svg11.dtd" >
<svg>
<metadata>
Created by FontForge 20090622 at Fri Jun 29 17:01:15 2018
 By ffonts
Copyright 2018 IBM Corp. All rights reserved.
</metadata>
<defs>
<font id="IBMPlexSerif-Bold" horiz-adv-x="600" >
  <font-face 
    font-family="IBM Plex Serif"
    font-weight="700"
    font-stretch="normal"
    units-per-em="1000"
    panose-1="2 6 8 3 5 4 6 0 2 3"
    ascent="780"
    descent="-220"
    x-height="525"
    cap-height="698"
    bbox="-301 -290 1311 1152"
    underline-thickness="68"
    underline-position="-14"
    unicode-range="U+000D-U+FB02"
  />
<missing-glyph horiz-adv-x="464" 
d="M32 0v780h400v-780h-400zM100 68h264v644h-264v-644z" />
    <glyph glyph-name="fi" unicode="fi" horiz-adv-x="677" 
d="M37 68h60v385h-60v72h60v27q0 52 19 92.5t53.5 68.5t82.5 42.5t106 14.5q100 0 149 -28.5t49 -81.5q0 -34 -20.5 -55t-57.5 -21q-38 0 -57.5 20t-19.5 49q0 23 9 35t17 14v7q-14 2 -24 2.5t-24 0.5q-67 0 -93.5 -37t-26.5 -123v-27h204l128 12v-469h60v-68h-277v68h55
v385h-170v-385h55v-68h-277v68z" />
    <glyph glyph-name="fl" unicode="fl" horiz-adv-x="689" 
d="M37 68h60v385h-60v72h60v46q0 92 56.5 145.5t168.5 53.5q41 0 72 -8.5t50 -23.5l158 32v-702h60v-68h-282v68h60v614q-17 9 -34 12.5t-42 3.5q-49 0 -77 -26t-28 -89v-58h88v-72h-88v-385h60v-68h-282v68z" />
    <glyph glyph-name=".notdef" horiz-adv-x="464" 
d="M32 0v780h400v-780h-400zM100 68h264v644h-264v-644z" />
    <glyph glyph-name=".null" horiz-adv-x="0" 
 />
    <glyph glyph-name=".null" horiz-adv-x="0" 
 />
    <glyph glyph-name="uni000D" unicode="&#xd;" horiz-adv-x="212" 
 />
    <glyph glyph-name="space" unicode=" " horiz-adv-x="232" 
 />
    <glyph glyph-name="a" unicode="a" horiz-adv-x="587" 
d="M199 -12q-88 0 -127 39.5t-39 111.5q0 77 59.5 116t174.5 39h71v56q0 61 -23.5 91.5t-80.5 30.5q-21 0 -35.5 -2.5t-25.5 -7.5v-6q10 -5 19.5 -17.5t9.5 -34.5q0 -31 -20 -52t-59 -21q-32 0 -52.5 21.5t-20.5 54.5q0 24 14.5 47.5t43 42t71.5 29.5t99 11
q115 0 168.5 -47.5t53.5 -132.5v-289h60v-59q-18 -10 -47 -15.5t-59 -5.5q-57 0 -80 26t-23 64v1h-4q-8 -16 -18.5 -32.5t-27.5 -29.5t-42 -21t-60 -8zM260 81q36 0 57 16t21 58v78h-54q-45 0 -68.5 -20t-23.5 -56v-15q0 -32 19 -46.5t49 -14.5z" />
    <glyph glyph-name="a.alt01" horiz-adv-x="649" 
d="M254 -12q-49 0 -88.5 20t-67 56t-42 86.5t-14.5 112.5q0 61 14.5 111.5t42 86.5t67 56t88.5 20q60 0 100 -28.5t54 -65.5h6l73 82h75v-457h60v-59q-19 -10 -47.5 -15.5t-58.5 -5.5q-60 0 -84.5 25.5t-24.5 62.5v9h-6q-7 -19 -19.5 -36.5t-31 -31t-42.5 -21.5t-54 -8z
M309 83q40 0 65.5 25t25.5 66v178q0 41 -25.5 66t-65.5 25t-68 -27.5t-28 -81.5v-142q0 -54 28 -81.5t68 -27.5z" />
    <glyph glyph-name="b" unicode="b" horiz-adv-x="642" 
d="M388 -12q-60 0 -100 28.5t-54 65.5h-6l-73 -82h-75v653l-60 13v60l222 44v-321h6q14 35 48.5 61.5t91.5 26.5q49 0 88.5 -20t67 -56t42 -87t14.5 -112t-14.5 -111.5t-42 -86.5t-67 -56t-88.5 -20zM333 83q40 0 68 27.5t28 81.5v142q0 54 -28 81.5t-68 27.5t-65.5 -25
t-25.5 -66v-178q0 -41 25.5 -66t65.5 -25z" />
    <glyph glyph-name="c" unicode="c" horiz-adv-x="548" 
d="M301 -12q-65 0 -114 21t-82 58t-50 87.5t-17 108.5q0 66 21.5 117.5t59 86t89 52.5t110.5 18q94 0 145 -38.5t51 -96.5q0 -39 -22 -61.5t-60 -22.5t-59 19.5t-21 51.5q0 26 13.5 43.5t30.5 25.5v6q-10 3 -23 5.5t-35 2.5q-62 0 -95.5 -37.5t-33.5 -109.5v-107
q0 -64 30.5 -97t85.5 -33q56 0 89.5 26t47.5 61l59 -34q-9 -25 -26 -52t-43.5 -49.5t-64 -37t-86.5 -14.5z" />
    <glyph glyph-name="d" unicode="d" horiz-adv-x="649" 
d="M254 -12q-49 0 -88.5 20t-67 56t-42 86.5t-14.5 111.5t14.5 112t42 87t67 56t88.5 20q57 0 91.5 -26.5t48.5 -61.5h6v204l-60 13v60l222 44v-664l61 -13v-60l-223 -45v90h-6q-14 -35 -50 -62.5t-90 -27.5zM309 83q40 0 65.5 25t25.5 66v178q0 41 -25.5 66t-65.5 25
t-68 -27.5t-28 -81.5v-142q0 -54 28 -81.5t68 -27.5z" />
    <glyph glyph-name="e" unicode="e" horiz-adv-x="580" 
d="M302 -12q-63 0 -112.5 20.5t-83 57.5t-51 87t-17.5 110q0 64 18 115t51.5 86t80.5 54t105 19q57 0 103.5 -17t78.5 -48.5t49.5 -76t17.5 -100.5v-35h-333v-42q0 -65 35 -97.5t93 -32.5q54 0 87.5 24.5t47.5 58.5l58 -34q-9 -24 -26.5 -50.5t-45 -48.5t-66.5 -36t-90 -14z
M209 325h167v14q0 71 -22.5 99t-59.5 28q-38 0 -61.5 -27.5t-23.5 -99.5v-14z" />
    <glyph glyph-name="f" unicode="f" horiz-adv-x="400" 
d="M37 68h60v385h-60v72h60v47q0 95 60.5 146.5t170.5 51.5q36 0 63 -9t44 -23t25.5 -32.5t8.5 -37.5q0 -32 -18.5 -52.5t-52.5 -20.5q-35 0 -52.5 18.5t-17.5 44.5q0 20 8.5 31t17.5 15v6q-10 2 -23 2q-39 0 -55.5 -26t-16.5 -86v-75h99v-72h-99v-385h80v-68h-302v68z" />
    <glyph glyph-name="g" unicode="g" horiz-adv-x="597" 
d="M287 -212q-77 0 -128 8t-81 22.5t-42.5 35.5t-12.5 48q0 38 33 61.5t83 30.5v4q-37 8 -59.5 33.5t-22.5 66.5q0 47 32 73t77 35v4q-52 20 -80.5 58t-28.5 95q0 42 16.5 74.5t46.5 54.5t72 33.5t94 11.5q34 0 67 -5.5t63 -19.5q11 112 103 112q31 0 51 -17t20 -49
q0 -29 -18.5 -47t-51.5 -18q-18 0 -33.5 6t-26.5 19h-4v-28q29 -23 44.5 -53.5t15.5 -72.5t-16.5 -74.5t-46.5 -54.5t-72 -33.5t-94 -11.5q-41 0 -81 8q-14 -9 -19 -21t-5 -23q0 -20 15.5 -31t50.5 -11h118q57 0 96.5 -10.5t64 -29.5t36 -46t11.5 -59q0 -85 -70.5 -132
t-216.5 -47zM286 262q73 0 73 91v22q0 47 -17.5 68.5t-54.5 21.5q-73 0 -73 -91v-22q0 -47 17.5 -68.5t54.5 -21.5zM153 -84q0 -31 25.5 -46t83.5 -15h67q112 0 112 65q0 33 -22.5 43t-64.5 10h-174q-14 -11 -20.5 -23.5t-6.5 -33.5z" />
    <glyph glyph-name="g.alt01" horiz-adv-x="643" 
d="M267 -212q-98 0 -145.5 34.5t-47.5 93.5q0 32 19 52t50 20q34 0 50.5 -17t16.5 -41q0 -20 -11 -36t-25 -21v-4q18 -8 39 -10.5t43 -2.5q34 0 60.5 9t45 29t28.5 52t10 78v53h-6q-12 -31 -47.5 -54t-92.5 -23q-49 0 -88.5 19.5t-67 55t-42 85t-14.5 109.5t14.5 109
t42 84.5t67 55t88.5 19.5q60 0 100 -28.5t54 -65.5h6l73 82h75v-448q0 -75 -22.5 -129.5t-62.5 -90t-93.5 -52.5t-116.5 -17zM309 94q40 0 65.5 24.5t25.5 66.5v166q0 42 -25.5 66.5t-65.5 24.5t-68 -27.5t-28 -81.5v-130q0 -54 28 -81.5t68 -27.5z" />
    <glyph glyph-name="g.alt02" horiz-adv-x="597" 
d="M287 -212q-77 0 -128 8t-81 22.5t-42.5 35.5t-12.5 48q0 38 33 61.5t83 30.5v4q-37 8 -59.5 33.5t-22.5 66.5q0 47 32 73t77 35v4q-52 20 -80.5 58t-28.5 95q0 42 16.5 74.5t46.5 54.5t72 33.5t94 11.5q24 0 48.5 -2.5t47.5 -9.5h197v-67h-67l-43 5v-4q21 -13 34 -38
t13 -57q0 -42 -16.5 -74.5t-46.5 -54.5t-72 -33.5t-94 -11.5q-41 0 -81 8q-14 -9 -19 -21t-5 -23q0 -20 15.5 -31t50.5 -11h118q57 0 96.5 -10.5t64 -29.5t36 -46t11.5 -59q0 -85 -70.5 -132t-216.5 -47zM286 262q73 0 73 91v22q0 47 -17.5 68.5t-54.5 21.5q-73 0 -73 -91
v-22q0 -47 17.5 -68.5t54.5 -21.5zM153 -84q0 -31 25.5 -46t83.5 -15h67q112 0 112 65q0 33 -22.5 43t-64.5 10h-174q-14 -11 -20.5 -23.5t-6.5 -33.5z" />
    <glyph glyph-name="h" unicode="h" horiz-adv-x="669" 
d="M27 68h60v585l-60 13v60l222 44v-329h7q14 41 50.5 68.5t97.5 27.5q97 0 137.5 -48.5t40.5 -145.5v-275h61v-68h-278v68h55v270q0 51 -17.5 72.5t-60.5 21.5q-17 0 -33.5 -4.5t-30 -13.5t-21.5 -23.5t-8 -34.5v-288h55v-68h-277v68z" />
    <glyph glyph-name="i" unicode="i" horiz-adv-x="345" 
d="M177 589q-44 0 -69 23.5t-25 64.5v5q0 41 25 64.5t69 23.5q45 0 70 -23.5t25 -64.5v-5q0 -41 -25 -64.5t-70 -23.5zM37 68h60v352l-60 13v60l222 44v-469h60v-68h-282v68z" />
    <glyph glyph-name="j" unicode="j" horiz-adv-x="339" 
d="M30 -212q-62 0 -93 24t-31 66q0 31 19.5 51.5t51.5 20.5q33 0 49.5 -19t16.5 -45q0 -33 -18 -46v-4q5 -1 8.5 -1h7.5q26 0 41 24t15 79v482l-60 13v60l222 44v-529q0 -114 -59 -167t-170 -53zM177 589q-44 0 -69 23.5t-25 64.5v5q0 41 25 64.5t69 23.5q45 0 70 -23.5
t25 -64.5v-5q0 -41 -25 -64.5t-70 -23.5z" />
    <glyph glyph-name="k" unicode="k" horiz-adv-x="639" 
d="M27 68h60v585l-60 13v60l222 44v-503h6l57 67l122 123h-61v68h231v-68h-71l-114 -110l171 -279h45v-68h-269v68h40l-95 183l-62 -65v-118h55v-68h-277v68z" />
    <glyph glyph-name="l" unicode="l" horiz-adv-x="336" 
d="M27 68h60v585l-60 13v60l222 44v-702h60v-68h-282v68z" />
    <glyph glyph-name="m" unicode="m" horiz-adv-x="993" 
d="M37 68h60v352l-60 13v60l219 44v-100h6q7 20 19 38.5t30 32t42.5 21.5t56.5 8q68 0 107 -25t54 -74h4q17 40 55.5 69.5t103.5 29.5q95 0 134 -48t39 -145v-276h60v-68h-273v68h51v270q0 51 -17 72.5t-56 21.5q-35 0 -62 -18.5t-27 -57.5v-288h51v-68h-264v68h51v270
q0 51 -17 72.5t-56 21.5q-35 0 -62 -18.5t-27 -57.5v-288h51v-68h-273v68z" />
    <glyph glyph-name="n" unicode="n" horiz-adv-x="679" 
d="M37 68h60v352l-60 13v60l219 44v-100h6q7 20 19.5 38.5t31 32t43.5 21.5t58 8q97 0 137.5 -48.5t40.5 -145.5v-275h60v-68h-277v68h55v270q0 51 -18 72.5t-60 21.5q-17 0 -34 -4.5t-30 -13.5t-21 -23.5t-8 -34.5v-288h55v-68h-277v68z" />
    <glyph glyph-name="o" unicode="o" horiz-adv-x="596" 
d="M298 62q43 0 66 26t23 79v191q0 53 -23 79t-66 26t-66 -26t-23 -79v-191q0 -53 23 -79t66 -26zM298 -12q-59 0 -106.5 18.5t-82 53.5t-53 86t-18.5 116q0 66 18.5 117t53 86t82 53.5t106.5 18.5q58 0 106 -18.5t82.5 -53.5t53 -86t18.5 -116q0 -66 -18.5 -117t-53 -86
t-82.5 -53.5t-106 -18.5z" />
    <glyph glyph-name="p" unicode="p" horiz-adv-x="649" 
d="M27 -132h60v551l-60 13v60l222 45v-90h6q14 35 50 62.5t90 27.5q49 0 88.5 -20t67 -56t42 -87t14.5 -112t-14.5 -111.5t-42 -86.5t-67 -56t-88.5 -20q-57 0 -91.5 26.5t-48.5 61.5h-6v-208h80v-68h-302v68zM333 83q40 0 68 27.5t28 81.5v142q0 54 -28 81.5t-68 27.5
t-65.5 -25t-25.5 -66v-178q0 -41 25.5 -66t65.5 -25z" />
    <glyph glyph-name="q" unicode="q" horiz-adv-x="642" 
d="M320 -132h80v208h-6q-14 -35 -48.5 -61.5t-91.5 -26.5q-49 0 -88.5 20t-67 56t-42 86.5t-14.5 112.5q0 61 14.5 111.5t42 86.5t67 56t88.5 20q60 0 100 -28.5t54 -65.5h6l73 82h75v-657h60v-68h-302v68zM309 83q40 0 65.5 25t25.5 66v178q0 41 -25.5 66t-65.5 25
t-68 -27.5t-28 -81.5v-142q0 -54 28 -81.5t68 -27.5z" />
    <glyph glyph-name="r" unicode="r" horiz-adv-x="508" 
d="M37 68h60v352l-60 13v60l219 44v-98h4q14 42 46 70t83 28t79 -27t28 -73q0 -42 -21.5 -65t-62.5 -23q-38 0 -57.5 19.5t-19.5 47.5q0 11 5 20.5t12 12.5l-2 6q-2 1 -7 1q-15 0 -30 -9t-27 -23t-19.5 -30.5t-7.5 -32.5v-293h80v-68h-302v68z" />
    <glyph glyph-name="s" unicode="s" horiz-adv-x="522" 
d="M272 -12q-58 0 -87.5 20.5t-36.5 45.5h-4v-54h-103v156h103v-16q0 -38 24.5 -57.5t79.5 -19.5q49 0 70.5 15t21.5 44q0 24 -16 37.5t-54 23.5l-47 12q-91 23 -133 64.5t-42 110.5q0 80 53.5 123.5t140.5 43.5q55 0 84 -20.5t36 -45.5h4v54h103v-156h-103v16
q0 38 -24 57.5t-78 19.5q-37 0 -55.5 -14t-18.5 -39q0 -26 15 -40.5t57 -25.5l43 -11q43 -11 76 -25t55.5 -34t33.5 -47.5t11 -66.5q0 -42 -15 -74t-43 -53.5t-66.5 -32.5t-84.5 -11z" />
    <glyph glyph-name="t" unicode="t" horiz-adv-x="385" 
d="M212 -10q-121 0 -121 105v358h-71v72h29q32 0 49 15t31 44l44 87h80v-146h116v-72h-116v-383h116v-62q-17 -6 -59.5 -12t-97.5 -6z" />
    <glyph glyph-name="u" unicode="u" horiz-adv-x="664" 
d="M260 -12q-49 0 -83 12t-55 36.5t-30.5 61t-9.5 84.5v238l-60 13v60l222 44v-350q0 -51 18 -72.5t60 -21.5q17 0 34 4.5t30 13.5t21 23.5t8 34.5v251l-60 13v60l222 44v-432l60 -13v-60l-219 -44v100h-6q-14 -41 -50.5 -70.5t-101.5 -29.5z" />
    <glyph glyph-name="v" unicode="v" horiz-adv-x="578" 
d="M54 457h-48v68h274v-68h-56l109 -323h6l101 323h-56v68h188v-68h-48l-172 -457h-126z" />
    <glyph glyph-name="w" unicode="w" horiz-adv-x="894" 
d="M69 457h-48v68h268v-68h-56l74 -298h6l105 366h127l121 -367h6l71 299h-66v68h196v-68h-48l-139 -457h-116l-120 362h-6l-120 -362h-116z" />
    <glyph glyph-name="x" unicode="x" horiz-adv-x="605" 
d="M14 68h56l138 182l-153 207h-43v68h299v-68h-62l94 -127h6l89 127h-53v68h200v-68h-56l-137 -181l154 -208h43v-68h-299v68h62l-94 127h-6l-89 -127h53v-68h-202v68z" />
    <glyph glyph-name="y" unicode="y" horiz-adv-x="591" 
d="M131 -212q-63 0 -97.5 30t-34.5 72q0 37 21.5 57.5t59.5 20.5q37 0 57 -23t20 -53q0 -26 -12 -43l3 -6q3 -1 9 -1q27 0 49.5 29t42.5 81l10 26l-203 479h-48v68h279v-68h-56l106 -296h6l108 296h-56v68h188v-68h-48l-215 -508q-12 -27 -27 -56t-37 -52t-52.5 -38
t-72.5 -15z" />
    <glyph glyph-name="z" unicode="z" horiz-adv-x="527" 
d="M31 65l268 388h-157v-84h-103v156h449v-69l-265 -384h170v84h103v-156h-465v65z" />
    <glyph glyph-name="A" unicode="A" horiz-adv-x="716" 
d="M14 68h51l221 630h145l221 -630h51v-68h-305v68h80l-48 144h-228l-48 -144h80v-68h-220v68zM223 282h188l-93 290h-4z" />
    <glyph glyph-name="B" unicode="B" horiz-adv-x="723" 
d="M41 68h70v562h-70v68h369q64 0 110 -12.5t75.5 -34.5t43.5 -52t14 -65q0 -36 -13 -63.5t-34.5 -47.5t-50 -32.5t-58.5 -18.5v-6q31 -4 64 -16t60 -33t44 -51.5t17 -71.5q0 -93 -62.5 -143.5t-189.5 -50.5h-389v68zM283 73h107q56 0 85.5 26.5t29.5 74.5v48
q0 48 -29.5 74.5t-85.5 26.5h-107v-250zM283 394h89q104 0 104 93v45q0 93 -104 93h-89v-231z" />
    <glyph glyph-name="C" unicode="C" horiz-adv-x="680" 
d="M372 -12q-77 0 -137 28t-100.5 76.5t-61.5 114.5t-21 141q0 89 25.5 156.5t68 113.5t97.5 69t115 23q33 0 58 -6.5t43 -16.5t30 -22.5t18 -24.5h6v58h123v-225h-123v45q0 51 -33 82t-98 31q-64 0 -102 -39t-38 -127v-211q0 -46 12 -78.5t33.5 -53.5t50.5 -30.5t63 -9.5
q65 0 110 33.5t68 90.5l60 -34q-14 -39 -39 -73t-59 -58.5t-77 -38.5t-92 -14z" />
    <glyph glyph-name="D" unicode="D" horiz-adv-x="773" 
d="M41 68h70v562h-70v68h334q73 0 136.5 -23.5t110 -68t73 -109.5t26.5 -148t-26.5 -148t-73 -109.5t-110 -68t-136.5 -23.5h-334v68zM283 75h61q51 0 87 9t58 30t32 55t10 85v190q0 51 -10 85t-32 55t-58 30t-87 9h-61v-548z" />
    <glyph glyph-name="E" unicode="E" horiz-adv-x="672" 
d="M41 68h70v562h-70v68h570v-188h-123v113h-205v-220h128v58h78v-191h-78v58h-128v-253h214v134h123v-209h-579v68z" />
    <glyph glyph-name="F" unicode="F" horiz-adv-x="652" 
d="M41 68h70v562h-70v68h570v-188h-123v113h-205v-235h128v58h78v-191h-78v58h-128v-245h97v-68h-339v68z" />
    <glyph glyph-name="G" unicode="G" horiz-adv-x="795" 
d="M372 -12q-70 0 -129 25t-101.5 71.5t-66 113t-23.5 150.5q0 88 26.5 155.5t72.5 113.5t106.5 69.5t129.5 23.5t110 -23t54 -47h6v58h123v-225h-123v45q0 51 -31.5 82t-103.5 31q-91 0 -135.5 -44.5t-44.5 -140.5v-197q0 -89 38.5 -134t110.5 -45q71 0 102.5 35t31.5 86
v95h-99v68h322v-68h-51v-286h-58l-65 100h-7q-5 -16 -21.5 -35.5t-42.5 -36.5t-59.5 -28.5t-71.5 -11.5z" />
    <glyph glyph-name="H" unicode="H" horiz-adv-x="829" 
d="M41 68h70v562h-70v68h312v-68h-70v-233h263v233h-70v68h312v-68h-70v-562h70v-68h-312v68h70v254h-263v-254h70v-68h-312v68z" />
    <glyph glyph-name="I" unicode="I" horiz-adv-x="394" 
d="M41 68h70v562h-70v68h312v-68h-70v-562h70v-68h-312v68z" />
    <glyph glyph-name="J" unicode="J" horiz-adv-x="529" 
d="M180 -12q-86 0 -127 32.5t-41 83.5q0 31 21 55t60 24q33 0 54.5 -19.5t21.5 -48.5q0 -20 -6.5 -34t-17.5 -20v-6q7 -2 15.5 -2.5t15.5 -0.5q37 0 56 22.5t19 77.5v478h-97v68h339v-68h-70v-421q0 -49 -13 -89.5t-41.5 -70t-75 -45.5t-113.5 -16z" />
    <glyph glyph-name="K" unicode="K" horiz-adv-x="786" 
d="M41 68h70v562h-70v68h312v-68h-70v-277h7l119 126l139 151h-71v68h253v-68h-75l-177 -181l236 -381h58v-68h-321v68h62l-153 266l-77 -78v-188h70v-68h-312v68z" />
    <glyph glyph-name="L" unicode="L" horiz-adv-x="633" 
d="M41 68h70v562h-70v68h319v-68h-77v-555h186v134h123v-209h-551v68z" />
    <glyph glyph-name="M" unicode="M" horiz-adv-x="915" 
d="M41 68h70v562h-70v68h263l155 -326h4l142 326h269v-68h-70v-562h70v-68h-312v68h70v505h-6l-62 -151l-152 -315l-152 318l-61 148h-6v-505h70v-68h-222v68z" />
    <glyph glyph-name="N" unicode="N" horiz-adv-x="808" 
d="M41 68h70v562h-70v68h285l283 -491h6v423h-70v68h222v-68h-70v-630h-157l-341 579h-6v-511h70v-68h-222v68z" />
    <glyph glyph-name="O" unicode="O" horiz-adv-x="778" 
d="M389 64q29 0 55.5 9t47 29t32.5 51.5t12 76.5v238q0 45 -12 76.5t-32.5 51.5t-47 29t-55.5 9t-56 -9t-47 -29t-32 -51.5t-12 -76.5v-238q0 -45 12 -76.5t32 -51.5t47 -29t56 -9zM389 -12q-72 0 -133.5 23.5t-106.5 69.5t-71 113.5t-26 154.5t26 154.5t71 113.5
t106.5 69.5t133.5 23.5t133.5 -23.5t106.5 -69.5t71 -113.5t26 -154.5t-26 -154.5t-71 -113.5t-106.5 -69.5t-133.5 -23.5z" />
    <glyph glyph-name="P" unicode="P" horiz-adv-x="700" 
d="M41 68h70v562h-70v68h397q114 0 170 -48.5t56 -142.5q0 -96 -61 -150t-175 -54h-145v-235h97v-68h-339v68zM283 378h95q53 0 81.5 23.5t28.5 73.5v51q0 50 -28.5 73.5t-81.5 23.5h-95v-245z" />
    <glyph glyph-name="Q" unicode="Q" horiz-adv-x="778" 
d="M534 -185q-29 0 -52.5 5.5t-43.5 17.5t-38.5 31t-37.5 46l-55 81q-56 12 -103 41t-81 73.5t-52.5 104.5t-18.5 134q0 87 26 154.5t71 113.5t106.5 69.5t133.5 23.5t133.5 -23.5t106.5 -69.5t71 -113.5t26 -154.5q0 -73 -18 -132t-51 -103.5t-78.5 -73.5t-100.5 -42
l70 -85q17 -20 41 -27.5t53 -7.5h16v-63h-124zM389 64q29 0 55.5 9t47 29t32.5 51.5t12 76.5v238q0 45 -12 76.5t-32.5 51.5t-47 29t-55.5 9t-56 -9t-47 -29t-32 -51.5t-12 -76.5v-238q0 -45 12 -76.5t32 -51.5t47 -29t56 -9z" />
    <glyph glyph-name="R" unicode="R" horiz-adv-x="755" 
d="M41 68h70v562h-70v68h406q47 0 87 -10t69.5 -31t46 -54.5t16.5 -80.5q0 -36 -12.5 -66t-34 -52.5t-50 -37.5t-61.5 -22l133 -218q20 -34 41.5 -46t54.5 -12h4v-68h-100q-36 0 -63.5 5.5t-48.5 17.5t-36.5 30.5t-28.5 44.5l-108 211h-73v-241h70v-68h-312v68zM283 379h97
q53 0 80 22t27 70v60q0 48 -27 70t-80 22h-97v-244z" />
    <glyph glyph-name="S" unicode="S" horiz-adv-x="646" 
d="M328 -12q-31 0 -56 7t-43.5 17.5t-31 22.5t-18.5 23h-4v-58h-123v205h123v-44q0 -54 39.5 -75.5t105.5 -21.5q68 0 102 27t34 70q0 22 -5.5 37.5t-18.5 27t-35.5 19.5t-56.5 15l-45 9q-53 10 -96.5 28t-75 46t-48.5 67.5t-17 93.5q0 45 16 83t47 65t76.5 42.5t104.5 15.5
q32 0 57.5 -7t44 -17.5t31 -22.5t18.5 -23h4v58h123v-205h-123v44q0 53 -38.5 75t-95.5 22q-70 0 -102 -28.5t-32 -66.5q0 -22 7 -38t23 -27.5t41.5 -20t62.5 -15.5l43 -8q54 -11 96.5 -28.5t72 -44.5t45 -64t15.5 -86q0 -48 -18.5 -88t-53 -69t-84 -45.5t-111.5 -16.5z" />
    <glyph glyph-name="T" unicode="T" horiz-adv-x="730" 
d="M182 68h97v555h-128v-113h-123v188h674v-188h-123v113h-128v-555h97v-68h-366v68z" />
    <glyph glyph-name="U" unicode="U" horiz-adv-x="787" 
d="M420 -12q-84 0 -142.5 16t-95.5 50t-54 87t-17 126v363h-70v68h312v-68h-70v-364q0 -51 7.5 -88t25.5 -61.5t47.5 -36.5t74.5 -12q89 0 125 47t36 148v367h-70v68h222v-68h-70v-368q0 -134 -62 -204t-199 -70z" />
    <glyph glyph-name="V" unicode="V" horiz-adv-x="712" 
d="M67 630h-51v68h305v-68h-80l91 -295l60 -209h6l63 209l93 295h-80v68h222v-68h-51l-216 -630h-146z" />
    <glyph glyph-name="W" unicode="W" horiz-adv-x="1057" 
d="M66 630h-51v68h307v-68h-80l114 -486h4l141 554h142l147 -554h4l108 486h-80v68h221v-68h-51l-157 -630h-166l-138 497h-4l-138 -497h-166z" />
    <glyph glyph-name="X" unicode="X" horiz-adv-x="744" 
d="M24 68h65l204 265l-198 297h-55v68h315v-68h-64l117 -178h6l126 178h-64v68h229v-68h-65l-186 -244l212 -318h55v-68h-315v68h64l-131 199h-6l-144 -199h64v-68h-229v68z" />
    <glyph glyph-name="Y" unicode="Y" horiz-adv-x="705" 
d="M187 68h80v211l-191 351h-51v68h307v-68h-70l134 -256h4l136 256h-70v68h214v-68h-51l-191 -327v-235h80v-68h-331v68z" />
    <glyph glyph-name="Z" unicode="Z" horiz-adv-x="669" 
d="M46 72l370 551h-232v-113h-123v188h551v-72l-370 -551h258v134h123v-209h-577v72z" />
    <glyph glyph-name="zero" unicode="0" 
d="M300 62q31 0 48.5 14t25.5 41t9.5 67t1.5 93v144q0 52 -1.5 92.5t-9.5 67.5t-25.5 41t-48.5 14q-32 0 -49 -14t-25 -41t-9.5 -67.5t-1.5 -92.5v-144q0 -53 1.5 -93t9.5 -67t25 -41t49 -14zM300 -12q-136 0 -202 94t-66 267t66 267t202 94t202 -94t66 -267t-66 -267
t-202 -94z" />
    <glyph glyph-name="zero.alt01" 
d="M300 -12q-136 0 -202 94t-66 267t66 267t202 94t202 -94t66 -267t-66 -267t-202 -94zM215 310l169 187q-2 68 -18 103.5t-66 35.5q-32 0 -49 -14t-25 -41t-9.5 -67.5t-1.5 -92.5v-111zM300 62q31 0 48.5 14t25.5 41t9.5 67t1.5 93v111l-169 -187q2 -68 18 -103.5
t66 -35.5z" />
    <glyph glyph-name="zero.alt02" 
d="M300 62q31 0 48.5 14t25.5 41t9.5 67t1.5 93v144q0 52 -1.5 92.5t-9.5 67.5t-25.5 41t-48.5 14q-32 0 -49 -14t-25 -41t-9.5 -67.5t-1.5 -92.5v-144q0 -53 1.5 -93t9.5 -67t25 -41t49 -14zM300 286q-32 0 -47 16t-15 40v14q0 24 15 40t47 16t47 -16t15 -40v-14
q0 -24 -15 -40t-47 -16zM300 -12q-136 0 -202 94t-66 267t66 267t202 94t202 -94t66 -267t-66 -267t-202 -94z" />
    <glyph glyph-name="one" unicode="1" horiz-adv-x="601" 
d="M88 68h156v511l-167 -55l-28 57l238 117h129v-630h147v-68h-475v68z" />
    <glyph glyph-name="two" unicode="2" 
d="M37 115l194 192q46 45 76 91.5t30 102.5v30q0 57 -30 86.5t-79 29.5q-28 0 -52 -8v-6q16 -11 26 -26.5t10 -36.5q0 -33 -20.5 -57.5t-62.5 -24.5q-38 0 -61.5 23.5t-23.5 63.5q0 28 14 52.5t42 43t68 29t93 10.5q126 0 192.5 -50t66.5 -143q0 -42 -15.5 -76t-42 -63.5
t-60 -56l-69.5 -53.5l-177 -128v-4h309v86h76v-222h-504v115z" />
    <glyph glyph-name="three" unicode="3" 
d="M268 -12q-56 0 -99 10.5t-72.5 28.5t-44.5 42.5t-15 53.5q0 40 23 63.5t61 23.5q42 0 63 -24t21 -58q0 -17 -10 -33t-24 -28v-6q14 -5 30 -7t30 -2q67 0 99 26t32 94v33q0 62 -33 92.5t-110 30.5h-58v76h58q73 0 104 29.5t31 80.5v22q0 53 -30.5 82t-81.5 29
q-34 0 -56 -8v-6q16 -8 26.5 -25.5t10.5 -37.5q0 -34 -20.5 -58t-62.5 -24q-38 0 -61.5 23.5t-23.5 63.5q0 28 14 52.5t42 43t69.5 29t96.5 10.5q134 0 197 -42.5t63 -125.5q0 -34 -17.5 -63t-45 -51.5t-62.5 -36.5t-71 -18v-8q39 -4 75.5 -16t65 -32.5t46 -51t17.5 -72.5
q0 -46 -17 -84t-51 -65t-86.5 -41.5t-122.5 -14.5z" />
    <glyph glyph-name="four" unicode="4" 
d="M302 161h-279v99l261 438h184v-418h101v-119h-101v-161h-166v161zM111 280h191v316h-4z" />
    <glyph glyph-name="five" unicode="5" 
d="M269 -12q-111 0 -170.5 39t-59.5 96q0 40 23 63.5t61 23.5q41 0 62.5 -24t21.5 -58q0 -20 -10 -37.5t-25 -26.5v-4q12 -5 28 -6.5t31 -1.5q62 0 97.5 32t35.5 106v26q0 126 -114 126q-35 0 -61.5 -17t-38.5 -40l-75 16l27 397h411v-152h-349l-15 -205h5q9 16 22.5 33
t34 30t49 21.5t67.5 8.5q102 0 161 -57t59 -157q0 -109 -73 -170.5t-205 -61.5z" />
    <glyph glyph-name="six" unicode="6" 
d="M301 -12q-61 0 -110 19.5t-83 56t-52.5 88t-18.5 116.5q0 108 33 189t91 136.5t138 85.5t174 37l16 -57q-130 -32 -199 -108.5t-77 -187.5l3 -1q6 18 19 35.5t32.5 31t45.5 22t58 8.5q96 0 144 -56.5t48 -163.5q0 -55 -17 -101t-50 -79.5t-82 -52t-113 -18.5zM300 62
q27 0 43.5 9.5t25.5 27t11.5 42.5t2.5 57v24q0 31 -2.5 56.5t-11.5 43t-25.5 27t-43.5 9.5t-43.5 -9.5t-25.5 -27t-11.5 -43t-2.5 -56.5v-24q0 -32 2.5 -57t11.5 -42.5t25.5 -27t43.5 -9.5z" />
    <glyph glyph-name="seven" unicode="7" 
d="M447 545h-311v-102h-76v255h485v-129l-219 -569h-170z" />
    <glyph glyph-name="eight" unicode="8" 
d="M300 -12q-62 0 -111.5 12.5t-84.5 37.5t-54 62t-19 87q0 43 16 74.5t41.5 52t58 32t66.5 14.5v8q-26 3 -55 13.5t-53.5 30t-40.5 49t-16 71.5q0 88 68 133t184 45t184 -45t68 -133q0 -42 -16 -71.5t-40.5 -49t-53.5 -30t-55 -13.5v-8q34 -3 66.5 -14.5t58 -32t41.5 -52
t16 -74.5q0 -50 -19 -87t-54 -62t-85 -37.5t-111 -12.5zM300 59q30 0 47.5 8.5t26.5 24.5t12 39t3 53v22q0 30 -3 53t-12 39t-26.5 24.5t-47.5 8.5t-47.5 -8.5t-26.5 -24.5t-12 -39t-3 -53v-22q0 -30 3 -53t12 -39t26.5 -24.5t47.5 -8.5zM300 398q27 0 42 8t22 23t8.5 35.5
t1.5 45.5v17q0 25 -1.5 45.5t-8.5 35.5t-22 23t-42 8t-42 -8t-22 -23t-8.5 -35.5t-1.5 -45.5v-17q0 -25 1.5 -45.5t8.5 -35.5t22 -23t42 -8z" />
    <glyph glyph-name="nine" unicode="9" 
d="M111 39q130 32 199 108.5t77 187.5l-3 1q-6 -18 -19 -35.5t-32.5 -31t-45.5 -22t-58 -8.5q-96 0 -144 57t-48 163q0 55 17 101.5t50 79.5t82 51.5t113 18.5q61 0 110 -19.5t83 -56t52.5 -88.5t18.5 -116q0 -108 -33 -189t-91 -136.5t-138 -85.5t-174 -37zM300 340
q27 0 43.5 9.5t25.5 27t11.5 42.5t2.5 57v24q0 31 -2.5 56.5t-11.5 43t-25.5 27t-43.5 9.5t-43.5 -9.5t-25.5 -27t-11.5 -43t-2.5 -56.5v-24q0 -32 2.5 -57t11.5 -42.5t25.5 -27t43.5 -9.5z" />
    <glyph glyph-name="ampersand" unicode="&#x26;" horiz-adv-x="769" 
d="M295 -12q-68 0 -118.5 14t-84 39.5t-50 60.5t-16.5 77q0 40 13 70.5t37 55t57.5 43.5t74.5 36l-8 9q-29 34 -51 74t-22 87q0 36 17 65t47 49.5t71 31t89 10.5q49 0 89 -8t69 -24.5t45 -42t16 -60.5q0 -32 -16.5 -57t-42.5 -45.5t-58 -36.5t-64 -29l167 -195q26 54 35 115
h-66v68h211v-68h-67q-8 -45 -23.5 -89t-40.5 -83l37 -43q20 -23 43.5 -33.5t62.5 -10.5v-68h-136q-37 0 -63 11.5t-49 35.5q-42 -28 -93 -43.5t-112 -15.5zM353 447q26 19 42 45t16 61v18q0 33 -14.5 51t-45.5 18q-30 0 -47 -18.5t-17 -50.5v-18q0 -30 20 -54.5t46 -51.5z
M353 68q28 0 54 7.5t49 21.5l-204 236q-24 -24 -34.5 -52.5t-10.5 -61.5v-26q0 -26 10.5 -48.5t30 -39.5t46 -27t59.5 -10z" />
    <glyph glyph-name="at" unicode="@" horiz-adv-x="924" 
d="M463 -121q-98 0 -174.5 30t-129.5 84.5t-80.5 130t-27.5 167.5q0 91 28.5 168t82 133t130 87t171.5 31q91 0 165.5 -26.5t127.5 -75t82 -118t29 -154.5q0 -58 -12 -107t-35.5 -84.5t-59 -55.5t-82.5 -20q-58 0 -95 26t-45 69h-5q-8 -43 -36.5 -69t-79.5 -26q-35 0 -65 14
t-51.5 41.5t-33.5 68.5t-12 96t12 96t33.5 68.5t51.5 41.5t65 14q46 0 76 -21.5t38 -55.5h6l59 68h55v-313q0 -29 10 -45.5t32 -16.5q32 0 54.5 44t22.5 141v38q0 70 -23.5 126t-65 95t-97.5 59.5t-121 20.5q-70 0 -128 -25t-99.5 -70t-64.5 -107.5t-23 -137.5v-36
q0 -77 23 -138.5t64.5 -104.5t99.5 -66.5t128 -23.5h230v-41q-23 -5 -53 -9t-61.5 -6.5t-62 -3.5t-53.5 -1zM463 139q15 0 26.5 6t20 15.5t12.5 21t4 22.5v180q0 23 -16.5 39t-46.5 16q-33 0 -53.5 -24t-20.5 -62v-128q0 -38 20.5 -62t53.5 -24z" />
    <glyph glyph-name="hyphen" unicode="-" horiz-adv-x="410" 
d="M49 362h312v-114h-312v114z" />
    <glyph glyph-name="uni00AD" unicode="&#xad;" horiz-adv-x="410" 
d="M49 362h312v-114h-312v114z" />
    <glyph glyph-name="endash" unicode="&#x2013;" horiz-adv-x="604" 
d="M34 349h536v-94h-536v94z" />
    <glyph glyph-name="emdash" unicode="&#x2014;" horiz-adv-x="804" 
d="M34 349h736v-94h-736v94z" />
    <glyph glyph-name="underscore" unicode="_" horiz-adv-x="570" 
d="M27 -82h516v-94h-516v94z" />
    <glyph glyph-name="period" unicode="." horiz-adv-x="290" 
d="M145 -12q-45 0 -69.5 26t-24.5 64v3q0 38 24.5 64t69.5 26t69.5 -26t24.5 -64v-3q0 -38 -24.5 -64t-69.5 -26z" />
    <glyph glyph-name="ellipsis" unicode="&#x2026;" horiz-adv-x="870" 
d="M145 -12q-45 0 -69.5 26t-24.5 64v3q0 38 24.5 64t69.5 26t69.5 -26t24.5 -64v-3q0 -38 -24.5 -64t-69.5 -26zM435 -12q-45 0 -69.5 26t-24.5 64v3q0 38 24.5 64t69.5 26t69.5 -26t24.5 -64v-3q0 -38 -24.5 -64t-69.5 -26zM725 -12q-45 0 -69.5 26t-24.5 64v3
q0 38 24.5 64t69.5 26t69.5 -26t24.5 -64v-3q0 -38 -24.5 -64t-69.5 -26z" />
    <glyph glyph-name="colon" unicode=":" horiz-adv-x="311" 
d="M155 -12q-45 0 -69.5 26t-24.5 64v3q0 38 24.5 64t69.5 26t69.5 -26t24.5 -64v-3q0 -38 -24.5 -64t-69.5 -26zM155 352q-45 0 -69.5 26t-24.5 64v3q0 38 24.5 64t69.5 26t69.5 -26t24.5 -64v-3q0 -38 -24.5 -64t-69.5 -26z" />
    <glyph glyph-name="comma" unicode="," horiz-adv-x="290" 
d="M30 -148q42 35 66.5 66.5t37.5 69.5h-2q-36 0 -58.5 25.5t-22.5 60.5v5q0 39 24.5 65.5t69.5 26.5q46 0 70 -28t24 -65v-12q0 -62 -32.5 -118t-79.5 -96h-97v0z" />
    <glyph glyph-name="semicolon" unicode=";" horiz-adv-x="311" 
d="M40 -148q42 35 66.5 66.5t37.5 69.5h-2q-36 0 -58.5 25.5t-22.5 60.5v5q0 39 24.5 65.5t69.5 26.5q46 0 70 -28t24 -65v-12q0 -62 -32.5 -118t-79.5 -96h-97v0zM155 352q-45 0 -69.5 26t-24.5 64v3q0 38 24.5 64t69.5 26t69.5 -26t24.5 -64v-3q0 -38 -24.5 -64t-69.5 -26
z" />
    <glyph glyph-name="quotesingle" unicode="'" horiz-adv-x="273" 
d="M71 621v119h131v-119l-44 -209h-42z" />
    <glyph glyph-name="quotedbl" unicode="&#x22;" horiz-adv-x="493" 
d="M71 621v119h131v-119l-44 -209h-42zM291 621v119h131v-119l-44 -209h-42z" />
    <glyph glyph-name="quoteleft" unicode="&#x2018;" horiz-adv-x="279" 
d="M138 440q-47 0 -70 27.5t-23 65.5v12q0 27 8 53.5t22 51.5t32.5 48t38.5 42h95q-34 -26 -58.5 -60.5t-34.5 -65.5h4q19 0 34 -7t25 -18.5t15 -25.5t5 -28v-4q0 -38 -24 -64.5t-69 -26.5z" />
    <glyph glyph-name="quoteright" unicode="&#x2019;" horiz-adv-x="279" 
d="M36 440q34 26 58.5 60.5t34.5 65.5h-4q-20 0 -34.5 7t-24.5 18.5t-15 25.5t-5 28v4q0 38 24 64.5t69 26.5q47 0 70 -27.5t23 -65.5v-12q0 -27 -8 -53.5t-22 -51.5t-32.5 -48t-38.5 -42h-95v0z" />
    <glyph glyph-name="quotedblleft" unicode="&#x201c;" horiz-adv-x="522" 
d="M138 440q-47 0 -70 27.5t-23 65.5v12q0 27 8 53.5t22 51.5t32.5 48t38.5 42h95q-34 -26 -58.5 -60.5t-34.5 -65.5h4q19 0 34 -7t25 -18.5t15 -25.5t5 -28v-4q0 -38 -24 -64.5t-69 -26.5zM381 440q-47 0 -70 27.5t-23 65.5v12q0 27 8 53.5t22 51.5t32.5 48t38.5 42h95
q-34 -26 -58.5 -60.5t-34.5 -65.5h4q19 0 34 -7t25 -18.5t15 -25.5t5 -28v-4q0 -38 -24 -64.5t-69 -26.5z" />
    <glyph glyph-name="quotedblright" unicode="&#x201d;" horiz-adv-x="522" 
d="M36 440q34 26 58.5 60.5t34.5 65.5h-4q-20 0 -34.5 7t-24.5 18.5t-15 25.5t-5 28v4q0 38 24 64.5t69 26.5q47 0 70 -27.5t23 -65.5v-12q0 -27 -8 -53.5t-22 -51.5t-32.5 -48t-38.5 -42h-95v0zM279 440q34 26 58.5 60.5t34.5 65.5h-4q-20 0 -34.5 7t-24.5 18.5t-15 25.5
t-5 28v4q0 38 24 64.5t69 26.5q47 0 70 -27.5t23 -65.5v-12q0 -27 -8 -53.5t-22 -51.5t-32.5 -48t-38.5 -42h-95v0z" />
    <glyph glyph-name="quotesinglbase" unicode="&#x201a;" horiz-adv-x="288" 
d="M41 -117q34 26 58.5 60.5t34.5 65.5h-4q-20 0 -34.5 7t-24.5 18.5t-15 25.5t-5 28v4q0 38 24 64.5t69 26.5q47 0 70 -27.5t23 -65.5v-12q0 -27 -8 -53.5t-22 -51.5t-32.5 -48t-38.5 -42h-95v0z" />
    <glyph glyph-name="quotedblbase" unicode="&#x201e;" horiz-adv-x="522" 
d="M41 -117q34 26 58.5 60.5t34.5 65.5h-4q-20 0 -34.5 7t-24.5 18.5t-15 25.5t-5 28v4q0 38 24 64.5t69 26.5q47 0 70 -27.5t23 -65.5v-12q0 -27 -8 -53.5t-22 -51.5t-32.5 -48t-38.5 -42h-95v0zM284 -117q34 26 58.5 60.5t34.5 65.5h-4q-20 0 -34.5 7t-24.5 18.5t-15 25.5
t-5 28v4q0 38 24 64.5t69 26.5q47 0 70 -27.5t23 -65.5v-12q0 -27 -8 -53.5t-22 -51.5t-32.5 -48t-38.5 -42h-95v0z" />
    <glyph glyph-name="guilsinglleft" unicode="&#x2039;" horiz-adv-x="322" 
d="M35 237v68l196 190l35 -43l-90 -181l90 -181l-35 -43z" />
    <glyph glyph-name="guilsinglright" unicode="&#x203a;" horiz-adv-x="322" 
d="M56 90l90 181l-90 181l35 43l196 -190v-68l-196 -190z" />
    <glyph glyph-name="guillemotleft" unicode="&#xab;" horiz-adv-x="550" 
d="M35 237v68l196 190l35 -43l-90 -181l90 -181l-35 -43zM263 237v68l196 190l35 -43l-90 -181l90 -181l-35 -43z" />
    <glyph glyph-name="guillemotright" unicode="&#xbb;" horiz-adv-x="550" 
d="M56 90l90 181l-90 181l35 43l196 -190v-68l-196 -190zM284 90l90 181l-90 181l35 43l196 -190v-68l-196 -190z" />
    <glyph glyph-name="exclamdown" unicode="&#xa1;" horiz-adv-x="320" 
d="M160 354q-45 0 -69.5 26t-24.5 64v3q0 38 24.5 64t69.5 26q46 0 70 -26t24 -64v-3q0 -38 -24.5 -64t-69.5 -26zM72 -45l56 348h64l56 -348v-128h-176v128z" />
    <glyph glyph-name="exclam" unicode="!" horiz-adv-x="321" 
d="M161 -12q-46 0 -70 26t-24 64v3q0 38 24.5 64t69.5 26t69.5 -26t24.5 -64v-3q0 -38 -24.5 -64t-69.5 -26zM73 570v128h176v-128l-56 -348h-64z" />
    <glyph glyph-name="questiondown" unicode="&#xbf;" horiz-adv-x="528" 
d="M287 -185q-68 0 -116.5 13t-79.5 38t-45.5 60.5t-14.5 79.5q0 50 19.5 87t53.5 62.5t81 40.5t103 20v75h82v-157q-75 -4 -113.5 -30.5t-38.5 -92.5v-17q0 -57 29.5 -86.5t75.5 -29.5q30 0 51 7v4q-17 10 -27.5 27.5t-10.5 38.5q0 34 20.5 58t62.5 24q37 0 61 -23.5
t24 -63.5q0 -28 -14 -52.5t-42 -43t-68.5 -29t-92.5 -10.5zM328 354q-45 0 -69.5 26t-24.5 64v3q0 38 24.5 64t69.5 26q46 0 70 -26t24 -64v-3q0 -38 -24.5 -64t-69.5 -26z" />
    <glyph glyph-name="question" unicode="?" horiz-adv-x="528" 
d="M158 391q75 4 113.5 30.5t38.5 92.5v17q0 57 -29.5 86.5t-75.5 29.5q-30 0 -51 -7v-4q17 -10 27.5 -27.5t10.5 -38.5q0 -34 -20.5 -58t-62.5 -24q-37 0 -61 23.5t-24 63.5q0 28 14 52.5t42 43t68 29t93 10.5q68 0 116.5 -13.5t79.5 -38t45.5 -60t14.5 -79.5
q0 -50 -19.5 -87t-53.5 -62.5t-81.5 -40.5t-102.5 -20v-75h-82v157zM200 -12q-46 0 -70 26t-24 64v3q0 38 24.5 64t69.5 26t69.5 -26t24.5 -64v-3q0 -38 -24.5 -64t-69.5 -26z" />
    <glyph glyph-name="parenleft" unicode="(" horiz-adv-x="362" 
d="M324 -156q-52 23 -103.5 66t-92.5 103t-66.5 135t-25.5 164q0 88 25.5 163.5t66.5 135.5t92.5 103t103.5 66l40 -55q-40 -30 -69.5 -72t-49 -91.5t-29 -104t-9.5 -109.5v-72q0 -55 9.5 -109.5t29 -104t49 -91.5t69.5 -72l-40 -55v0z" />
    <glyph glyph-name="parenright" unicode=")" horiz-adv-x="362" 
d="M-2 -101q40 30 69.5 72t49 91.5t29 104t9.5 109.5v72q0 55 -9.5 109.5t-29 104t-49 91.5t-69.5 72l40 55q52 -23 103.5 -66t92.5 -103t66.5 -135.5t25.5 -163.5q0 -89 -25.5 -164t-66.5 -135t-92.5 -103t-103.5 -66z" />
    <glyph glyph-name="bracketleft" unicode="[" horiz-adv-x="364" 
d="M68 760h269v-68h-119v-762h119v-68h-269v898z" />
    <glyph glyph-name="bracketright" unicode="]" horiz-adv-x="364" 
d="M27 -70h119v762h-119v68h269v-898h-269v68z" />
    <glyph glyph-name="braceleft" unicode="{" horiz-adv-x="394" 
d="M250 -138q-68 0 -100 31t-32 94v197q0 44 -28.5 67t-72.5 23v74q44 0 72.5 23t28.5 67v197q0 63 32 94t100 31h117v-68h-99v-233q0 -28 -9 -51.5t-25 -41.5t-36.5 -30t-42.5 -16v-18q22 -4 42.5 -16t36.5 -30t25 -41.5t9 -51.5v-233h99v-68h-117v0z" />
    <glyph glyph-name="braceright" unicode="}" horiz-adv-x="394" 
d="M27 -70h99v233q0 28 9 51.5t25 41.5t36 30t43 16v18q-23 4 -43 16t-36 30t-25 41.5t-9 51.5v233h-99v68h117q68 0 100 -31t32 -94v-197q0 -44 28.5 -67t72.5 -23v-74q-44 0 -72.5 -23t-28.5 -67v-197q0 -63 -32 -94t-100 -31h-117v68z" />
    <glyph glyph-name="slash" unicode="/" horiz-adv-x="439" 
d="M304 740h97l-299 -891h-97z" />
    <glyph glyph-name="backslash" unicode="\" horiz-adv-x="439" 
d="M38 740h97l299 -891h-97z" />
    <glyph glyph-name="fraction" unicode="&#x2044;" horiz-adv-x="134" 
d="M297 698h82l-532 -698h-82z" />
    <glyph glyph-name="percent" unicode="%" horiz-adv-x="944" 
d="M236 373q25 0 40 18t15 63v116q0 45 -15 63t-39 18q-25 0 -40 -18t-15 -63v-116q0 -45 15 -63t39 -18zM707 47q25 0 40 18t15 63v116q0 45 -15 63t-39 18q-25 0 -40 -18t-15 -63v-116q0 -45 15 -63t39 -18zM236 314q-88 0 -136.5 50t-48.5 148t49 148t137 50t136.5 -50
t48.5 -148t-49 -148t-137 -50zM707 -12q-88 0 -136.5 50t-48.5 148t49 148t137 50t136.5 -50t48.5 -148t-49 -148t-137 -50zM672 698h83l-483 -698h-83z" />
    <glyph glyph-name="perthousand" unicode="&#x2030;" horiz-adv-x="1362" 
d="M236 373q25 0 40 18t15 63v116q0 45 -15 63t-39 18q-25 0 -40 -18t-15 -63v-116q0 -45 15 -63t39 -18zM707 47q25 0 40 18t15 63v116q0 45 -15 63t-39 18q-25 0 -40 -18t-15 -63v-116q0 -45 15 -63t39 -18zM1125 47q25 0 40 18t15 63v116q0 45 -15 63t-39 18
q-25 0 -40 -18t-15 -63v-116q0 -45 15 -63t39 -18zM236 314q-88 0 -136.5 50t-48.5 148t49 148t137 50t136.5 -50t48.5 -148t-49 -148t-137 -50zM707 -12q-88 0 -136.5 50t-48.5 148t49 148t137 50t136.5 -50t48.5 -148t-49 -148t-137 -50zM1125 -12q-88 0 -136.5 50
t-48.5 148t49 148t137 50t136.5 -50t48.5 -148t-49 -148t-137 -50zM672 698h83l-483 -698h-83z" />
    <glyph glyph-name="bar" unicode="|" horiz-adv-x="380" 
d="M141 760h98v-898h-98v898z" />
    <glyph glyph-name="brokenbar" unicode="&#xa6;" horiz-adv-x="380" 
d="M141 221h98v-359h-98v359zM141 760h98v-359h-98v359z" />
    <glyph glyph-name="section" unicode="&#xa7;" horiz-adv-x="574" 
d="M263 -161q-49 0 -83.5 10.5t-56.5 27.5t-32.5 40t-10.5 49q0 33 21.5 54t56.5 21t53.5 -21t18.5 -47q0 -20 -9 -33t-26 -25v-5q20 -4 35.5 -5.5t35.5 -1.5q48 0 71.5 19.5t23.5 53.5q0 30 -21 47.5t-78 31.5l-43 11q-168 42 -168 156q0 31 10.5 55.5t29 44t43 33.5
t53.5 23v8q-106 48 -106 158q0 80 61 123t169 43q49 0 83.5 -10.5t56.5 -27.5t32.5 -40.5t10.5 -48.5q0 -33 -21.5 -54t-56.5 -21t-53.5 21t-18.5 47q0 20 9 33t26 25v5q-20 4 -35.5 5.5t-35.5 1.5q-48 0 -71.5 -19.5t-23.5 -53.5q0 -30 21 -47.5t78 -31.5l43 -11
q168 -42 168 -156q0 -31 -10.5 -55.5t-29 -44t-43.5 -33.5t-53 -23v-8q106 -48 106 -158q0 -80 -61 -123t-169 -43zM346 178l16.5 13.5t17.5 18t13.5 23.5t5.5 28q0 19 -6 33.5t-19.5 25.5t-36 20t-55.5 17l-43 11q-8 2 -11 3q-8 -6 -17 -13.5t-17 -18t-13.5 -23.5t-5.5 -28
q0 -38 25 -59t92 -37l43 -11q8 -2 11 -3z" />
    <glyph glyph-name="paragraph" unicode="&#xb6;" horiz-adv-x="643" 
d="M272 -161q-101 0 -149 35.5t-48 90.5q0 30 20.5 54.5t58.5 24.5q35 0 56 -18.5t21 -49.5q0 -24 -10 -40t-26 -22v-6q23 -8 40 -10t33 -2h11.5t10.5 1v385q-51 0 -94 14.5t-74.5 41.5t-49.5 65.5t-18 86.5q0 51 18.5 90t50.5 65t75 39.5t92 13.5h299v-68h-69v-529
q0 -124 -65 -193t-183 -69zM362 -82q42 23 64 68.5t22 110.5v533h-86v-712z" />
    <glyph glyph-name="copyright" unicode="&#xa9;" horiz-adv-x="801" 
d="M408 133q-51 0 -89.5 16.5t-64.5 46t-39.5 69t-13.5 84.5q0 52 17 92t46.5 67.5t69.5 42t87 14.5q37 0 65.5 -9t48 -24t29 -34.5t9.5 -41.5q0 -29 -16.5 -45t-44.5 -16t-43 15.5t-15 41.5q0 19 8 31.5t21 19.5v3q-7 2 -18 4.5t-29 2.5q-47 0 -72.5 -29.5t-25.5 -83.5v-84
q0 -52 27 -77.5t72 -25.5q40 0 63 21t35 50l47 -28q-8 -20 -21.5 -42t-35 -40t-50.5 -29.5t-67 -11.5zM400 47q61 0 112.5 20.5t88.5 56.5t58 85t21 106v68q0 57 -21 106t-58 85t-88 56.5t-112 20.5t-112.5 -20.5t-88.5 -56.5t-58 -85t-21 -106v-68q0 -57 21 -106t58 -85
t88 -56.5t112 -20.5zM400 -12q-76 0 -140 25t-110 72t-72 113.5t-26 150.5t26 150.5t72 113.5t110 72t141 25q76 0 140 -25t110 -72t72 -113.5t26 -150.5t-26 -150.5t-72 -113.5t-110.5 -72t-140.5 -25z" />
    <glyph glyph-name="registered" unicode="&#xae;" horiz-adv-x="468" 
d="M132 425h18v158h-18v27h121q30 0 49.5 -13t19.5 -42q0 -22 -13 -36t-33 -19l39 -63q5 -8 10 -10t13 -2h1v-27h-30q-23 0 -35 6t-20 23l-30 62h-13v-64h15v-27h-94v27zM234 340q30 0 57.5 10t48 29t32.5 46.5t12 62.5v32q0 35 -12 62.5t-32.5 46.5t-48 29t-57.5 10
t-57.5 -10t-48 -29t-32.5 -46.5t-12 -62.5v-32q0 -35 12 -62.5t32.5 -46.5t48 -29t57.5 -10zM234 298q-42 0 -79 15.5t-64.5 43t-43 65.5t-15.5 82t15.5 82t43 65.5t64.5 43t79 15.5t79 -15.5t64.5 -43t43 -65.5t15.5 -82t-15.5 -82t-43 -65.5t-64.5 -43t-79 -15.5zM211 514
h23q27 0 27 26v15q0 26 -27 26h-23v-67z" />
    <glyph glyph-name="trademark" unicode="&#x2122;" horiz-adv-x="798" 
d="M363 448h28v209h-28v41h138l57 -111l56 111h133v-41h-28v-209h28v-39h-150v39h33v140l4 61h-3l-26 -59l-75 -145l-72 143l-23 61h-3l3 -61v-140h28v-39h-100v39zM96 448h33v204h-45v-47h-57v93h296v-93h-57v47h-45v-204h33v-39h-158v39z" />
    <glyph glyph-name="ordfeminine" unicode="&#xaa;" horiz-adv-x="460" 
d="M162 323q-61 0 -88 27.5t-27 78.5q0 54 41.5 81.5t119.5 27.5h53v35q0 42 -16 63t-55 21q-29 0 -41 -6v-4q4 -3 10.5 -11.5t6.5 -25.5q0 -21 -13 -34t-39 -13q-21 0 -36.5 14.5t-15.5 37.5q0 38 41.5 64t115.5 26q79 0 116 -33t37 -91v-203h42v-40q-14 -7 -33.5 -11
t-39.5 -4q-39 0 -55 18t-16 44v1h-5q-5 -11 -12.5 -22.5t-19.5 -20.5t-29 -14.5t-42 -5.5zM204 387q26 0 41.5 11.5t15.5 38.5v58h-41q-64 0 -64 -56v-9q0 -22 13.5 -32.5t34.5 -10.5z" />
    <glyph glyph-name="ordmasculine" unicode="&#xba;" horiz-adv-x="440" 
d="M220 373q29 0 45.5 18.5t16.5 55.5v134q0 37 -16.5 55.5t-45.5 18.5t-45.5 -18.5t-16.5 -55.5v-134q0 -37 16.5 -55.5t45.5 -18.5zM220 323q-82 0 -131 50t-49 141t49 141t131 50t131 -49.5t49 -141.5t-49 -141.5t-131 -49.5z" />
    <glyph glyph-name="degree" unicode="&#xb0;" horiz-adv-x="474" 
d="M237 332q-40 0 -74 14t-59 39.5t-39 60t-14 75.5t14.5 75.5t39.5 60t59 39.5t73 14q40 0 74 -14t59 -39.5t39 -60t14 -75.5t-14.5 -75.5t-39.5 -60t-59 -39.5t-73 -14zM237 411q45 0 72 31.5t27 78.5t-27 78.5t-72 31.5t-72 -31.5t-27 -78.5t27 -78.5t72 -31.5z" />
    <glyph glyph-name="asterisk" unicode="*" horiz-adv-x="613" 
d="M96 313l40 56l116 89l41 -30l-50 -136l-40 -56zM99 483l-66 21l41 126l65 -22l120 -82l-15 -48zM241 678v69h131v-69l-40 -140h-51zM370 292l-50 136l41 30l116 -89l40 -56l-107 -77zM354 526l120 82l65 22l41 -126l-66 -21l-145 -5z" />
    <glyph glyph-name="dagger" unicode="&#x2020;" horiz-adv-x="544" 
d="M202 17v190l45 197h50l45 -197v-190l-45 -217h-50zM37 516h69l119 -45v-47l-119 -44h-69v136zM202 671v69h140v-69l-45 -180h-50zM319 424v47l119 45h69v-136h-69z" />
    <glyph glyph-name="daggerdbl" unicode="&#x2021;" horiz-adv-x="567" 
d="M220 214v112l40 78h50l40 -78v-112l-40 -78h-50zM50 160h69l119 -44v-47l-119 -45h-69v136zM50 516h69l119 -45v-47l-119 -44h-69v136zM215 -131l45 180h50l45 -180v-69h-140v69zM215 671v69h140v-69l-45 -180h-50zM332 69v47l119 44h69v-136h-69zM332 424v47l119 45h69
v-136h-69z" />
    <glyph glyph-name="numbersign" unicode="#" horiz-adv-x="653" 
d="M126 176h-105v88h120l29 170h-104v88h119l31 176h89l-31 -176h164l31 176h89l-31 -176h105v-88h-120l-29 -170h104v-88h-119l-31 -176h-89l31 176h-164l-31 -176h-89zM230 264h164l29 170h-164z" />
    <glyph glyph-name="asciicircum" unicode="^" 
d="M42 348l202 350h112l202 -350l-81 -42l-174 280h-6l-174 -280z" />
    <glyph glyph-name="asciitilde" unicode="~" 
d="M409 228q-37 0 -64.5 9.5t-60.5 26.5q-27 14 -53 23.5t-57 9.5q-23 0 -39.5 -6.5t-38.5 -20.5l-36 64q18 26 50 44t82 18q37 0 64.5 -9.5t60.5 -26.5q27 -14 53 -23.5t57 -9.5q23 0 39.5 6.5t38.5 20.5l36 -64q-18 -26 -50 -44t-82 -18z" />
    <glyph glyph-name="plus" unicode="+" 
d="M251 259h-184v92h184v183h98v-183h184v-92h-184v-183h-98v183z" />
    <glyph glyph-name="minus" unicode="&#x2212;" 
d="M67 351h466v-92h-466v92z" />
    <glyph glyph-name="plusminus" unicode="&#xb1;" 
d="M251 354h-184v92h184v169h98v-169h184v-92h-184v-169h-98v169zM67 92h466v-92h-466v92z" />
    <glyph glyph-name="multiply" unicode="&#xd7;" 
d="M83 149l152 151l-152 152l66 65l151 -151l151 151l66 -65l-152 -151l152 -152l-66 -65l-151 151l-151 -151z" />
    <glyph glyph-name="divide" unicode="&#xf7;" 
d="M299 37q-41 0 -62.5 23t-21.5 58v3q0 35 21.5 58t63.5 23q41 0 62.5 -23t21.5 -58v-3q0 -35 -21.5 -58t-63.5 -23zM299 408q-41 0 -62.5 23t-21.5 58v3q0 35 21.5 58t63.5 23q41 0 62.5 -23t21.5 -58v-3q0 -35 -21.5 -58t-63.5 -23zM67 351h465v-92h-465v92z" />
    <glyph glyph-name="equal" unicode="=" 
d="M67 240h466v-92h-466v92zM67 462h466v-92h-466v92z" />
    <glyph glyph-name="approxequal" unicode="&#x2248;" 
d="M410 334q-37 0 -64.5 9.5t-60.5 26.5q-27 14 -53 23.5t-57 9.5q-23 0 -39.5 -6.5t-38.5 -20.5l-36 64q18 26 50 44t82 18q37 0 64.5 -9.5t60.5 -26.5q27 -14 53 -23.5t57 -9.5q23 0 39.5 6.5t38.5 20.5l36 -64q-18 -26 -50 -44t-82 -18zM410 122q-37 0 -64.5 9.5
t-60.5 26.5q-27 14 -53 23.5t-57 9.5q-23 0 -39.5 -6.5t-38.5 -20.5l-36 64q18 26 50 44t82 18q37 0 64.5 -9.5t60.5 -26.5q27 -14 53 -23.5t57 -9.5q23 0 39.5 6.5t38.5 20.5l36 -64q-18 -26 -50 -44t-82 -18z" />
    <glyph glyph-name="notequal" unicode="&#x2260;" 
d="M161 148h-94v92h146l74 130h-220v92h272l57 100h100l-57 -100h94v-92h-146l-74 -130h220v-92h-272l-57 -100h-100z" />
    <glyph glyph-name="less" unicode="&#x3c;" 
d="M90 222v88l419 236v-111l-300 -165v-8l300 -163v-111z" />
    <glyph glyph-name="greater" unicode="&#x3e;" 
d="M90 99l300 169v7l-300 160v111l419 -231v-88l-419 -239v111z" />
    <glyph glyph-name="lessequal" unicode="&#x2264;" 
d="M90 308v88l420 193v-101l-291 -132v-8l291 -132v-101zM90 92h420v-92h-420v92z" />
    <glyph glyph-name="greaterequal" unicode="&#x2265;" 
d="M90 216l291 132v8l-291 132v101l420 -193v-88l-420 -193v101zM90 92h420v-92h-420v92z" />
    <glyph glyph-name="periodcentered" unicode="&#xb7;" horiz-adv-x="364" 
d="M182 214q-45 0 -69.5 26t-24.5 64v3q0 38 24.5 64t69.5 26t69.5 -26t24.5 -64v-3q0 -38 -24.5 -64t-69.5 -26z" />
    <glyph glyph-name="bullet" unicode="&#x2022;" horiz-adv-x="430" 
d="M215 141q-36 0 -65 11.5t-50 32t-32 49t-11 61.5v12q0 33 11 61.5t32 49t50 32t65 11.5t65 -11.5t50 -32t32 -49t11 -61.5v-12q0 -33 -11 -61.5t-32 -49t-50 -32t-65 -11.5z" />
    <glyph glyph-name="lozenge" unicode="&#x25ca;" 
d="M47 349l211 349h84l211 -349l-211 -349h-84zM296 103h8l142 246l-142 246h-8l-142 -246z" />
    <glyph glyph-name="logicalnot" unicode="&#xac;" 
d="M419 259h-352v92h450v-271h-98v179z" />
    <glyph glyph-name="radical" unicode="&#x221a;" 
d="M99 434h-86v91h162l63 -222l55 -210h8l56 210l114 395h94l-202 -698h-139z" />
    <glyph glyph-name="integral" unicode="&#x222b;" horiz-adv-x="443" 
d="M109 -212q-36 0 -61 8.5t-41.5 22.5t-24 31.5t-7.5 35.5q0 29 18 49t49 20t48 -17t17 -42q0 -20 -8.5 -31.5t-18.5 -15.5v-4q5 -1 10 -1.5t12 -0.5q36 0 53.5 27t17.5 89v594q0 95 41.5 147t119.5 52q36 0 61 -8.5t41.5 -22.5t24 -31.5t7.5 -35.5q0 -29 -18 -49t-49 -20
t-48 17t-17 42q0 20 8.5 31.5t18.5 15.5v4q-5 1 -10 1.5t-12 0.5q-36 0 -53.5 -27t-17.5 -89v-594q0 -95 -41.5 -147t-119.5 -52z" />
    <glyph glyph-name="infinity" unicode="&#x221e;" horiz-adv-x="798" 
d="M225 83q-93 0 -146.5 54.5t-53.5 151.5t53.5 151.5t146.5 54.5q31 0 61 -10t54 -29.5t40.5 -47.5t22.5 -65h6q6 36 21.5 64.5t37 48t48.5 29.5t57 10q93 0 146.5 -54.5t53.5 -151.5t-53.5 -151.5t-146.5 -54.5q-32 0 -61.5 10t-53.5 29.5t-40.5 47.5t-22.5 65h-6
q-6 -36 -21.5 -64.5t-37 -48t-48.5 -29.5t-57 -10zM251 173q43 0 71.5 31.5t44.5 74.5q-6 25 -16.5 48t-25.5 40t-34 27.5t-40 10.5q-37 0 -57.5 -27t-20.5 -81v-16q0 -54 20.5 -81t57.5 -27zM547 173q37 0 57.5 27t20.5 81v16q0 54 -20.5 81t-57.5 27q-42 0 -71 -31
t-45 -74q6 -26 17 -49t26 -40t33.5 -27.5t39.5 -10.5z" />
    <glyph glyph-name="uni212E" unicode="&#x212e;" horiz-adv-x="718" 
d="M359 -12q-71 0 -130.5 25.5t-103.5 72.5t-68.5 113.5t-24.5 149.5q0 82 24.5 149t68.5 114t103.5 72.5t130.5 25.5q70 0 130 -25.5t104 -72.5t68.5 -114t24.5 -149h-468v-261q29 -17 63.5 -27.5t77.5 -10.5q90 0 149 41t95 108l55 -33q-20 -38 -49 -70.5t-67 -56.5
t-84 -37.5t-99 -13.5zM218 408h282v206q-29 17 -63.5 27t-77.5 10t-77.5 -10t-63.5 -27v-206z" />
    <glyph glyph-name="uni2113" unicode="&#x2113;" horiz-adv-x="561" 
d="M316 -12q-44 0 -79 13.5t-60 37.5t-38 58t-13 76v11l-53 -27l-37 60l45.5 25l41.5 22v298q0 57 13 96.5t36 64t55.5 36t70.5 11.5q81 0 124.5 -51.5t43.5 -139.5q0 -91 -55 -177.5t-180 -160.5v-49q0 -66 25.5 -96.5t71.5 -30.5q40 0 72.5 30.5t63.5 101.5l60 -31
q-15 -39 -34.5 -72t-45 -56.5t-57.5 -36.5t-71 -13zM228 326q69 45 101 104t32 125v42q0 54 -16.5 77.5t-48.5 23.5q-29 0 -48.5 -23t-19.5 -77v-272z" />
    <glyph glyph-name="uni2116" unicode="&#x2116;" horiz-adv-x="1173" 
d="M41 68h70v562h-70v68h285l253 -492h5v424h-70v68h222v-68h-70v-630h-161l-307 579h-5v-511h70v-68h-222v68zM944 414q62 0 62 73v93q0 73 -62 73t-62 -73v-93q0 -73 62 -73zM944 357q-82 0 -131 46t-49 131t49 130.5t131 45.5t131 -46t49 -131t-49 -130.5t-131 -45.5z
M771 295h346v-80h-346v80z" />
    <glyph glyph-name="partialdiff" unicode="&#x2202;" horiz-adv-x="597" 
d="M297 -12q-60 0 -108 18.5t-81 53t-51 84t-18 111.5q0 56 13.5 102t39 78.5t61.5 50.5t80 18q52 0 89 -20.5t61 -56.5l6 3q-17 69 -58.5 141.5t-101.5 126.5h87q51 -27 94.5 -66.5t75 -92.5t49.5 -119.5t18 -145.5q0 -74 -18.5 -128t-52.5 -89t-81 -52t-104 -17zM297 60
q88 0 88 105v142q0 105 -88 105t-88 -105v-142q0 -105 88 -105z" />
    <glyph glyph-name="cent" unicode="&#xa2;" horiz-adv-x="568" 
d="M277 -10q-59 5 -103.5 28t-74.5 59.5t-45.5 84t-15.5 101.5q0 59 18 106t49.5 81.5t75.5 55.5t96 28v96h72v-94q83 -4 127.5 -40.5t44.5 -90.5q0 -37 -20.5 -57.5t-55.5 -20.5q-37 0 -56 19.5t-19 51.5q0 24 13.5 42t33.5 22v3q-32 7 -69 7v-392q51 1 80 29t45 66l58 -34
q-8 -23 -23 -47t-37.5 -45t-52.5 -36.5t-69 -21.5v-105h-72v104zM278 458q-33 -17 -51 -50t-18 -83v-111q0 -46 18.5 -76.5t50.5 -44.5v365z" />
    <glyph glyph-name="Euro" unicode="&#x20ac;" horiz-adv-x="633" 
d="M346 -12q-75 0 -130 28t-91.5 76.5t-54.5 114.5t-18 141q0 85 22.5 152.5t64 114t99 71t127.5 24.5q58 0 99 -10.5t67.5 -29t38.5 -43t12 -52.5q0 -40 -23.5 -64t-61.5 -24q-41 0 -62 24t-21 56q0 23 10.5 39t25.5 27v6q-15 4 -30.5 5t-30.5 1q-71 0 -112.5 -45.5
t-41.5 -130.5v-15h191v-68h-191v-76h191v-68h-190q3 -47 15.5 -79t32 -52.5t46 -29.5t57.5 -9q34 0 57.5 11t41 29.5t30 43t24.5 52.5l51 -28q-14 -40 -33.5 -75t-48.5 -61t-69 -41t-94 -15z" />
    <glyph glyph-name="florin" unicode="&#x192;" horiz-adv-x="670" 
d="M155 -146q-75 0 -113.5 30.5t-38.5 73.5q0 17 5 33t15.5 28.5t26.5 20t38 7.5q36 0 53.5 -19t17.5 -45t-14.5 -42t-28.5 -21v-6q5 -1 11 -1.5t13 -0.5q39 0 60 26t27 84l28 258h-165l7 73h166l17 161q10 94 72 145t165 51q75 0 113.5 -30.5t38.5 -73.5q0 -17 -5 -33
t-15.5 -28.5t-26.5 -20t-38 -7.5q-36 0 -53.5 19t-17.5 45t14.5 42t28.5 21v6q-5 1 -11 1.5t-13 0.5q-39 0 -60 -26t-27 -84l-20 -189h184l-7 -73h-185l-25 -230q-10 -94 -72 -145t-165 -51z" />
    <glyph glyph-name="sterling" unicode="&#xa3;" horiz-adv-x="606" 
d="M41 122q22 10 42 24t35 31.5t24 38t9 41.5q0 17 -3 31.5t-8 28.5h-99v72h64q-14 28 -25.5 58.5t-11.5 68.5q0 45 18.5 81t50.5 61t76.5 38.5t95.5 13.5q56 0 99.5 -10.5t73 -29t45 -43t15.5 -52.5q0 -40 -24 -63.5t-61 -23.5q-42 0 -62.5 24t-20.5 57q0 21 10.5 37.5
t24.5 27.5v6q-22 8 -51 8q-60 0 -87.5 -32.5t-27.5 -94.5q0 -39 7 -71t15 -61h156v-72h-139q3 -17 3 -35q0 -26 -10.5 -48.5t-28.5 -40.5t-41.5 -31t-50.5 -20v-6h314v92h76v-228h-503v122z" />
    <glyph glyph-name="dollar" unicode="$" horiz-adv-x="609" 
d="M262 -3q-55 3 -94.5 15t-65.5 31t-38.5 43t-12.5 51q0 38 23 61t59 23q41 0 61 -23.5t20 -55.5q0 -21 -11 -37t-26 -27v-7q38 -10 86 -13v217q-96 21 -152.5 78.5t-56.5 150.5q0 82 55.5 134.5t158.5 61.5v80h72v-79q52 -3 90.5 -14t63.5 -29t37 -41t12 -49
q0 -39 -23 -62t-60 -23q-40 0 -60 23.5t-20 56.5q0 20 9.5 35.5t23.5 26.5v6q-31 8 -74 10v-214l5 -1q103 -22 158.5 -73t55.5 -146q0 -44 -15.5 -80.5t-45 -63.5t-71 -44t-92.5 -21v-80h-72v79zM269 638q-48 -9 -71.5 -35.5t-23.5 -61.5q0 -39 20.5 -61t74.5 -37v195z
M333 60q48 8 73 35t25 65q0 41 -20 64t-78 37v-201z" />
    <glyph glyph-name="yen" unicode="&#xa5;" horiz-adv-x="709" 
d="M192 68h80v78h-160v68h160v76h-160v68h117l-148 272h-56v68h314v-68h-72l134 -262h4l136 262h-70v68h219v-68h-56l-159 -272h127v-68h-159v-76h159v-68h-159v-78h80v-68h-331v68z" />
    <glyph glyph-name="uni0E3F" unicode="&#xe3f;" horiz-adv-x="687" 
d="M331 20h-290v68h70v522h-70v68h290v102h68v-102h4q121 0 174 -40.5t53 -116.5q0 -34 -14.5 -61t-38.5 -47t-55 -32.5t-64 -16.5v-6q40 -3 74 -14t59 -31t39.5 -48t14.5 -65q0 -86 -59 -133t-179 -47h-8v-102h-68v102zM394 90q42 6 64 30.5t22 66.5v43q0 42 -22 66.5
t-64 30.5v-237zM394 391q71 12 71 89v38q0 77 -71 89v-216zM273 88h61v241h-61v-241zM273 388h61v222h-61v-222z" />
    <glyph glyph-name="uni20A1" unicode="&#x20a1;" horiz-adv-x="663" 
d="M276 9q-54 14 -96 45.5t-70.5 76t-43 100t-14.5 117.5q0 149 69.5 236t189.5 109l4 87h51l-4 -81q8 1 15.5 1h15.5h14l4 80h51l-4 -83q85 -10 124 -43.5t39 -84.5q0 -35 -21.5 -56t-53.5 -21q-36 0 -54.5 19t-18.5 48q0 19 9 37t26 26v5q-16 4 -28.5 6t-26.5 3l-27 -551
q53 9 84 45t53 87l58 -33q-22 -65 -73 -114.5t-126 -65.5l-4 -86h-51l4 80h-9q-9 0 -18 0.5t-18 1.5l-4 -82h-51zM404 638h-7q-21 0 -39 -3l-28 -542q21 -8 46 -10zM308 617q-33 -19 -52.5 -56.5t-19.5 -97.5v-212q0 -45 12.5 -76.5t33.5 -52.5z" />
    <glyph glyph-name="uni20A4" unicode="&#x20a4;" horiz-adv-x="606" 
d="M41 122q20 9 38.5 22t33.5 29t24.5 34t12.5 38h-109v68h100q-6 17 -14.5 34l-17.5 34h-68v68h38q-11 31 -11 67q0 45 18.5 81t50.5 61t76.5 38.5t95.5 13.5q56 0 99.5 -10.5t73 -29t45 -43t15.5 -52.5q0 -40 -24 -63.5t-61 -23.5q-42 0 -62.5 24t-20.5 57q0 21 10.5 37.5
t24.5 27.5v6q-22 8 -51 8q-60 0 -87.5 -32.5t-27.5 -94.5q0 -20 2 -37.5t5 -34.5h165v-68h-147q5 -17 9 -34t6 -34h132v-68h-136q-13 -38 -47 -65t-78 -38v-6h314v92h76v-228h-503v122z" />
    <glyph glyph-name="uni20A6" unicode="&#x20a6;" horiz-adv-x="788" 
d="M41 68h70v166h-70v68h70v94h-70v68h70v166h-70v68h285l126 -235h143v167h-70v68h222v-68h-70v-166h70v-68h-70v-94h70v-68h-70v-234h-157l-130 235h-197v-167h70v-68h-222v68zM193 301h160l-154 278h-6v-278zM589 207h6v190h-108z" />
    <glyph glyph-name="uni20A8" unicode="&#x20a8;" horiz-adv-x="1010" 
d="M718 -12q-51 0 -97.5 5t-86.5 19.5t-71 40.5t-51 69l-85 185h-54v-239h80v-68h-312v68h70v562h-70v68h339q45 0 82.5 -9.5t64 -30.5t41.5 -53.5t15 -78.5q0 -65 -31 -108.5t-81 -63.5l81 -170q18 -37 38 -61.5t42.5 -39t49 -20.5t56.5 -6q86 0 86 50q0 20 -14 31t-50 21
l-38 10q-66 17 -103 57t-37 104q0 72 48.5 113.5t138.5 41.5t132 -29t42 -69q0 -30 -18 -48.5t-46 -18.5q-30 0 -46.5 17t-16.5 38q0 17 9.5 30.5t23.5 19.5v4q-14 2 -27 3t-30 1q-40 0 -62 -19t-22 -46t15 -42.5t56 -26.5l37 -10q68 -18 100.5 -46.5t32.5 -82.5
q0 -83 -59.5 -127.5t-171.5 -44.5zM273 375h58q43 0 62.5 23.5t19.5 75.5v52q0 52 -19.5 75.5t-62.5 23.5h-58v-250z" />
    <glyph glyph-name="uni20A9" unicode="&#x20a9;" horiz-adv-x="1057" 
d="M166 228h-130v68h113l-26 105h-87v67h70l-40 162h-52v68h312v-68h-84l38 -163h162l59 231h142l61 -231h162l36 163h-85v68h227v-68h-52l-40 -162h70v-67h-87l-26 -105h113v-68h-130l-57 -228h-166l-64 229h-152l-64 -229h-166zM356 144h4l66 258h-131zM471 295h116
l-56 202h-4zM790 144h4l57 258h-129z" />
    <glyph glyph-name="uni20AA" unicode="&#x20aa;" horiz-adv-x="808" 
d="M78 698h300q87 0 124.5 -43.5t37.5 -145.5v-275h-82v244q0 39 -15.5 56.5t-50.5 17.5h-232v-552h-82v698zM268 464h82v-318h233q35 0 50 17.5t15 56.5v478h82v-509q0 -102 -37.5 -145.5t-124.5 -43.5h-300v464z" />
    <glyph glyph-name="uni20AB" unicode="&#x20ab;" horiz-adv-x="628" 
d="M222 129q-82 0 -130 54t-48 160t48 160t130 54q55 0 83.5 -22t39.5 -50h6v129h-138v69h138v63l155 24v-87h71v-69h-71v-383l51 -12v-51l-206 -39v73h-6q-11 -29 -41.5 -51t-81.5 -22zM282 215q30 0 49.5 17.5t19.5 46.5v128q0 29 -19.5 46.5t-49.5 17.5q-39 0 -58.5 -26
t-19.5 -66v-72q0 -40 19.5 -66t58.5 -26zM65 72h492v-72h-492v72z" />
    <glyph glyph-name="uni20AD" unicode="&#x20ad;" horiz-adv-x="752" 
d="M36 68h70v257h-100v73h100v232h-70v68h312v-68h-70v-232h119l132 232h-78v68h253v-68h-71l-147 -232h172v-73h-78l-83 2l64 -101l96 -158h69v-68h-220l-188 325h-40v-257h70v-68h-312v68z" />
    <glyph glyph-name="uni20AE" unicode="&#x20ae;" horiz-adv-x="730" 
d="M200 68h79v85l-91 -43v75l91 43v64l-91 -43v75l91 43v256h-128v-113h-123v188h674v-188h-123v113h-128v-173l91 43v-75l-91 -43v-64l91 43v-75l-91 -43v-168h79v-68h-330v68z" />
    <glyph glyph-name="uni20B1" unicode="&#x20b1;" horiz-adv-x="710" 
d="M41 68h70v252h-70v68h70v99h-70v68h70v75h-70v68h342q172 0 219 -143h75v-68h-62q1 -10 1.5 -20t0.5 -21q0 -15 -1 -29.5t-3 -28.5h64v-68h-79q-24 -68 -76.5 -105.5t-133.5 -37.5h-105v-109h97v-68h-339v68zM283 245h49q38 0 64 17t37 59h-150v-76zM283 554h150
q-11 42 -37 59t-64 17h-49v-76zM283 387h158v101h-158v-101z" />
    <glyph glyph-name="uni20B2" unicode="&#x20b2;" horiz-adv-x="776" 
d="M297 5q-55 10 -100 38.5t-77.5 72.5t-50 103t-17.5 130q0 165 81 253.5t246 96.5l9 81h72l-9 -81q103 -8 152 -48t49 -94q0 -39 -24 -63t-61 -24q-42 0 -62.5 24t-20.5 55q0 23 10.5 39.5t24.5 27.5v6q-38 9 -78 10l-32 -278h317v-66h-48v-288h-58l-62 104h-6
q-6 -17 -22.5 -35t-40.5 -34t-55 -26t-66 -10l-9 -81h-72zM372 629q-69 -11 -102.5 -55t-33.5 -129v-205q0 -60 19 -97.5t54 -54.5zM377 73h3q70 0 100.5 34t30.5 86v95h-109z" />
    <glyph glyph-name="uni20B4" unicode="&#x20b4;" horiz-adv-x="670" 
d="M343 -12q-53 0 -96 10t-73.5 30.5t-47.5 52t-17 73.5q0 56 22 93h-66v68h131l99 68h-231v68h321q15 20 19.5 43t4.5 40q0 53 -26 81.5t-79 28.5q-15 0 -31.5 -0.5t-31.5 -4.5v-6q15 -11 25.5 -27t10.5 -38q0 -33 -20.5 -57t-62.5 -24q-37 0 -61 23.5t-24 63.5
q0 28 12.5 53t40 43.5t71 29t104.5 10.5q53 0 96 -10t74 -30.5t47.5 -52t16.5 -73.5q0 -56 -22 -93h66v-68h-131l-99 -68h231v-68h-321q-15 -20 -19.5 -43t-4.5 -40q0 -53 26 -81.5t79 -28.5q15 0 31.5 0.5t31.5 4.5v6q-15 11 -25.5 27t-10.5 38q0 33 20.5 57t62.5 24
q37 0 61 -23.5t24 -63.5q0 -28 -12.5 -53t-40 -43.5t-71 -29t-104.5 -10.5z" />
    <glyph glyph-name="uni20B5" unicode="&#x20b5;" horiz-adv-x="663" 
d="M275 9q-54 14 -96 45.5t-70 76t-42.5 100t-14.5 117.5q0 85 24 150t66.5 109t100.5 67.5t126 25.5l11 80h72l-11 -83q85 -10 126.5 -44.5t41.5 -88.5q0 -38 -22.5 -61t-58.5 -23q-38 0 -59 21t-21 53q0 20 10 39.5t27 27.5v6q-16 4 -28 6t-26 4l-72 -552q16 -3 35 -3
q35 0 61 10.5t46 28.5t35 42.5t27 53.5l58 -33q-13 -38 -36.5 -72t-56.5 -59.5t-75 -40t-91 -14.5h-17l-14 -80h-71zM361 635q-57 -9 -91 -50t-34 -122v-212q0 -50 15 -83.5t41 -53.5z" />
    <glyph glyph-name="uni20B8" unicode="&#x20b8;" horiz-adv-x="738" 
d="M186 68h97v404h-117v-113h-123v188h652v-188h-123v113h-117v-404h97v-68h-366v68zM43 698h652v-75h-652v75z" />
    <glyph glyph-name="uni20B9" unicode="&#x20b9;" horiz-adv-x="653" 
d="M499 0q-36 0 -63 5.5t-47.5 17.5t-36 30.5t-28.5 44.5l-96 184h-150v68h165q101 0 107 106h-272v68h272q-6 106 -107 106h-165v68h528v-68h-155v-6q31 -7 51 -34.5t25 -65.5h79v-68h-82q-12 -51 -50 -84.5t-88 -48.5l115 -197q21 -35 42 -46.5t54 -11.5h9v-68h-107v0z
" />
    <glyph glyph-name="uni20BA" unicode="&#x20ba;" horiz-adv-x="688" 
d="M41 68h70v165l-89 -42v75l89 42v64l-89 -42v75l89 42v183h-70v68h312v-68h-70v-100l132 63v-75l-132 -63v-64l132 63v-75l-132 -63v-241h62q52 0 94.5 13t73.5 37t48.5 58t19.5 75h-6q-6 -11 -20.5 -18t-34.5 -7q-30 0 -50 20.5t-20 55.5q0 39 27 61t65 22q51 0 81 -33
t30 -100q0 -51 -21.5 -98t-61.5 -82.5t-97 -57t-128 -21.5h-304v68z" />
    <glyph glyph-name="uni20BD" unicode="&#x20bd;" horiz-adv-x="702" 
d="M41 68h70v90h-70v68h70v89h-70v68h70v247h-70v68h400q225 0 225 -187q0 -91 -61 -143.5t-175 -52.5h-147v-89h174v-68h-174v-90h97v-68h-339v68zM283 383h97q53 0 81.5 23.5t28.5 72.5v48q0 49 -28.5 72.5t-81.5 23.5h-97v-240z" />
    <glyph glyph-name="uni20BF" unicode="&#x20bf;" horiz-adv-x="687" 
d="M257 20h-216v68h70v522h-70v68h216v102h68v-102h63v102h67v-104q93 -8 134 -48t41 -107q0 -34 -14.5 -61t-38.5 -47t-55 -32.5t-64 -16.5v-6q40 -3 74 -14t59 -31t39.5 -48t14.5 -65q0 -77 -47 -122.5t-143 -55.5v-104h-67v102h-63v-102h-68v102zM273 88h95q54 0 83 25.5
t29 73.5v43q0 48 -29 73.5t-83 25.5h-95v-241zM273 388h89q103 0 103 92v38q0 92 -103 92h-89v-222z" />
    <glyph glyph-name="aacute" unicode="&#xe1;" horiz-adv-x="587" 
d="M199 -12q-88 0 -127 39.5t-39 111.5q0 77 59.5 116t174.5 39h71v56q0 61 -23.5 91.5t-80.5 30.5q-21 0 -35.5 -2.5t-25.5 -7.5v-6q10 -5 19.5 -17.5t9.5 -34.5q0 -31 -20 -52t-59 -21q-32 0 -52.5 21.5t-20.5 54.5q0 24 14.5 47.5t43 42t71.5 29.5t99 11
q115 0 168.5 -47.5t53.5 -132.5v-289h60v-59q-18 -10 -47 -15.5t-59 -5.5q-57 0 -80 26t-23 64v1h-4q-8 -16 -18.5 -32.5t-27.5 -29.5t-42 -21t-60 -8zM260 81q36 0 57 16t21 58v78h-54q-45 0 -68.5 -20t-23.5 -56v-15q0 -32 19 -46.5t49 -14.5zM228 604l72 214l137 -65
l-158 -173z" />
    <glyph glyph-name="abreve" unicode="&#x103;" horiz-adv-x="587" 
d="M199 -12q-88 0 -127 39.5t-39 111.5q0 77 59.5 116t174.5 39h71v56q0 61 -23.5 91.5t-80.5 30.5q-21 0 -35.5 -2.5t-25.5 -7.5v-6q10 -5 19.5 -17.5t9.5 -34.5q0 -31 -20 -52t-59 -21q-32 0 -52.5 21.5t-20.5 54.5q0 24 14.5 47.5t43 42t71.5 29.5t99 11
q115 0 168.5 -47.5t53.5 -132.5v-289h60v-59q-18 -10 -47 -15.5t-59 -5.5q-57 0 -80 26t-23 64v1h-4q-8 -16 -18.5 -32.5t-27.5 -29.5t-42 -21t-60 -8zM260 81q36 0 57 16t21 58v78h-54q-45 0 -68.5 -20t-23.5 -56v-15q0 -32 19 -46.5t49 -14.5zM279 580q-43 0 -74 16.5
t-53 43t-37 60.5t-27 69l52 26l20 -32q11 -18 22 -31t25 -21t31.5 -12t40.5 -4t40.5 4t31.5 12t25 21t22 31l20 32l52 -26q-12 -35 -27 -69t-37 -60.5t-53 -43t-74 -16.5z" />
    <glyph glyph-name="acircumflex" unicode="&#xe2;" horiz-adv-x="587" 
d="M199 -12q-88 0 -127 39.5t-39 111.5q0 77 59.5 116t174.5 39h71v56q0 61 -23.5 91.5t-80.5 30.5q-21 0 -35.5 -2.5t-25.5 -7.5v-6q10 -5 19.5 -17.5t9.5 -34.5q0 -31 -20 -52t-59 -21q-32 0 -52.5 21.5t-20.5 54.5q0 24 14.5 47.5t43 42t71.5 29.5t99 11
q115 0 168.5 -47.5t53.5 -132.5v-289h60v-59q-18 -10 -47 -15.5t-59 -5.5q-57 0 -80 26t-23 64v1h-4q-8 -16 -18.5 -32.5t-27.5 -29.5t-42 -21t-60 -8zM260 81q36 0 57 16t21 58v78h-54q-45 0 -68.5 -20t-23.5 -56v-15q0 -32 19 -46.5t49 -14.5zM93 617l138 181h96l138 -181
l-45 -37l-141 104l-141 -104z" />
    <glyph glyph-name="adieresis" unicode="&#xe4;" horiz-adv-x="587" 
d="M199 -12q-88 0 -127 39.5t-39 111.5q0 77 59.5 116t174.5 39h71v56q0 61 -23.5 91.5t-80.5 30.5q-21 0 -35.5 -2.5t-25.5 -7.5v-6q10 -5 19.5 -17.5t9.5 -34.5q0 -31 -20 -52t-59 -21q-32 0 -52.5 21.5t-20.5 54.5q0 24 14.5 47.5t43 42t71.5 29.5t99 11
q115 0 168.5 -47.5t53.5 -132.5v-289h60v-59q-18 -10 -47 -15.5t-59 -5.5q-57 0 -80 26t-23 64v1h-4q-8 -16 -18.5 -32.5t-27.5 -29.5t-42 -21t-60 -8zM260 81q36 0 57 16t21 58v78h-54q-45 0 -68.5 -20t-23.5 -56v-15q0 -32 19 -46.5t49 -14.5zM168 596q-38 0 -59 21.5
t-21 54.5v4q0 33 21 54.5t59 21.5t59 -21.5t21 -54.5v-4q0 -33 -21 -54.5t-59 -21.5zM390 596q-38 0 -59 21.5t-21 54.5v4q0 33 21 54.5t59 21.5t59 -21.5t21 -54.5v-4q0 -33 -21 -54.5t-59 -21.5z" />
    <glyph glyph-name="uni1EA1" unicode="&#x1ea1;" horiz-adv-x="587" 
d="M199 -12q-88 0 -127 39.5t-39 111.5q0 77 59.5 116t174.5 39h71v56q0 61 -23.5 91.5t-80.5 30.5q-21 0 -35.5 -2.5t-25.5 -7.5v-6q10 -5 19.5 -17.5t9.5 -34.5q0 -31 -20 -52t-59 -21q-32 0 -52.5 21.5t-20.5 54.5q0 24 14.5 47.5t43 42t71.5 29.5t99 11
q115 0 168.5 -47.5t53.5 -132.5v-289h60v-59q-18 -10 -47 -15.5t-59 -5.5q-57 0 -80 26t-23 64v1h-4q-8 -16 -18.5 -32.5t-27.5 -29.5t-42 -21t-60 -8zM260 81q36 0 57 16t21 58v78h-54q-45 0 -68.5 -20t-23.5 -56v-15q0 -32 19 -46.5t49 -14.5zM261 -207q-36 0 -58 20.5
t-22 55.5v3q0 35 22 55.5t58 20.5t58 -20.5t22 -55.5v-3q0 -35 -22 -55.5t-58 -20.5z" />
    <glyph glyph-name="agrave" unicode="&#xe0;" horiz-adv-x="587" 
d="M199 -12q-88 0 -127 39.5t-39 111.5q0 77 59.5 116t174.5 39h71v56q0 61 -23.5 91.5t-80.5 30.5q-21 0 -35.5 -2.5t-25.5 -7.5v-6q10 -5 19.5 -17.5t9.5 -34.5q0 -31 -20 -52t-59 -21q-32 0 -52.5 21.5t-20.5 54.5q0 24 14.5 47.5t43 42t71.5 29.5t99 11
q115 0 168.5 -47.5t53.5 -132.5v-289h60v-59q-18 -10 -47 -15.5t-59 -5.5q-57 0 -80 26t-23 64v1h-4q-8 -16 -18.5 -32.5t-27.5 -29.5t-42 -21t-60 -8zM260 81q36 0 57 16t21 58v78h-54q-45 0 -68.5 -20t-23.5 -56v-15q0 -32 19 -46.5t49 -14.5zM121 753l137 65l72 -214
l-51 -24z" />
    <glyph glyph-name="uni1EA3" unicode="&#x1ea3;" horiz-adv-x="587" 
d="M199 -12q-88 0 -127 39.5t-39 111.5q0 77 59.5 116t174.5 39h71v56q0 61 -23.5 91.5t-80.5 30.5q-21 0 -35.5 -2.5t-25.5 -7.5v-6q10 -5 19.5 -17.5t9.5 -34.5q0 -31 -20 -52t-59 -21q-32 0 -52.5 21.5t-20.5 54.5q0 24 14.5 47.5t43 42t71.5 29.5t99 11
q115 0 168.5 -47.5t53.5 -132.5v-289h60v-59q-18 -10 -47 -15.5t-59 -5.5q-57 0 -80 26t-23 64v1h-4q-8 -16 -18.5 -32.5t-27.5 -29.5t-42 -21t-60 -8zM260 81q36 0 57 16t21 58v78h-54q-45 0 -68.5 -20t-23.5 -56v-15q0 -32 19 -46.5t49 -14.5zM262 593l42 107h-148v104
h145q29 0 48 -6t30.5 -16.5t16.5 -23.5t5 -28q0 -30 -16 -62.5t-41 -62.5l-29 -36z" />
    <glyph glyph-name="amacron" unicode="&#x101;" horiz-adv-x="587" 
d="M199 -12q-88 0 -127 39.5t-39 111.5q0 77 59.5 116t174.5 39h71v56q0 61 -23.5 91.5t-80.5 30.5q-21 0 -35.5 -2.5t-25.5 -7.5v-6q10 -5 19.5 -17.5t9.5 -34.5q0 -31 -20 -52t-59 -21q-32 0 -52.5 21.5t-20.5 54.5q0 24 14.5 47.5t43 42t71.5 29.5t99 11
q115 0 168.5 -47.5t53.5 -132.5v-289h60v-59q-18 -10 -47 -15.5t-59 -5.5q-57 0 -80 26t-23 64v1h-4q-8 -16 -18.5 -32.5t-27.5 -29.5t-42 -21t-60 -8zM260 81q36 0 57 16t21 58v78h-54q-45 0 -68.5 -20t-23.5 -56v-15q0 -32 19 -46.5t49 -14.5zM115 721h328v-93h-328v93z
" />
    <glyph glyph-name="aogonek" unicode="&#x105;" horiz-adv-x="587" 
d="M470 -212q-25 0 -47 5t-38 15.5t-25.5 27t-9.5 40.5q0 38 28.5 61.5t84.5 46.5v4h-9q-57 0 -80 26t-23 64v1h-4q-8 -16 -18.5 -32.5t-27.5 -29.5t-42 -21t-60 -8q-88 0 -127 39.5t-39 111.5q0 77 59.5 116t174.5 39h71v56q0 61 -23.5 91.5t-80.5 30.5q-21 0 -35.5 -2.5
t-25.5 -7.5v-6q10 -5 19.5 -17.5t9.5 -34.5q0 -31 -20 -52t-59 -21q-32 0 -52.5 21.5t-20.5 54.5q0 24 14.5 47.5t43 42t71.5 29.5t99 11q115 0 168.5 -47.5t53.5 -132.5v-289h60v-59l-13 -6q-29 -13 -47 -27.5t-29 -28.5t-15 -26.5t-4 -21.5q0 -21 12 -32t33 -11
q14 0 23.5 4.5t19.5 15.5l39 -40q-17 -23 -43 -35.5t-66 -12.5zM260 81q36 0 57 16t21 58v78h-54q-45 0 -68.5 -20t-23.5 -56v-15q0 -32 19 -46.5t49 -14.5z" />
    <glyph glyph-name="aring" unicode="&#xe5;" horiz-adv-x="587" 
d="M199 -12q-88 0 -127 39.5t-39 111.5q0 77 59.5 116t174.5 39h71v56q0 61 -23.5 91.5t-80.5 30.5q-21 0 -35.5 -2.5t-25.5 -7.5v-6q10 -5 19.5 -17.5t9.5 -34.5q0 -31 -20 -52t-59 -21q-32 0 -52.5 21.5t-20.5 54.5q0 24 14.5 47.5t43 42t71.5 29.5t99 11
q115 0 168.5 -47.5t53.5 -132.5v-289h60v-59q-18 -10 -47 -15.5t-59 -5.5q-57 0 -80 26t-23 64v1h-4q-8 -16 -18.5 -32.5t-27.5 -29.5t-42 -21t-60 -8zM260 81q36 0 57 16t21 58v78h-54q-45 0 -68.5 -20t-23.5 -56v-15q0 -32 19 -46.5t49 -14.5zM279 613q25 0 39 15t14 41
v65q0 26 -14 41t-39 15t-39 -15t-14 -41v-65q0 -26 14 -41t39 -15zM279 557q-32 0 -59 11t-47 30t-31.5 45.5t-11.5 58.5q0 31 11.5 57.5t31.5 45.5t47 30t59 11q31 0 58.5 -11t47.5 -30t31.5 -45.5t11.5 -57.5q0 -32 -11.5 -58.5t-31.5 -45.5t-47.5 -30t-58.5 -11z" />
    <glyph glyph-name="aringacute" unicode="&#x1fb;" horiz-adv-x="587" 
d="M199 -12q-88 0 -127 39.5t-39 111.5q0 77 59.5 116t174.5 39h71v56q0 61 -23.5 91.5t-80.5 30.5q-21 0 -35.5 -2.5t-25.5 -7.5v-6q10 -5 19.5 -17.5t9.5 -34.5q0 -31 -20 -52t-59 -21q-32 0 -52.5 21.5t-20.5 54.5q0 24 14.5 47.5t43 42t71.5 29.5t99 11
q115 0 168.5 -47.5t53.5 -132.5v-289h60v-59q-18 -10 -47 -15.5t-59 -5.5q-57 0 -80 26t-23 64v1h-4q-8 -16 -18.5 -32.5t-27.5 -29.5t-42 -21t-60 -8zM260 81q36 0 57 16t21 58v78h-54q-45 0 -68.5 -20t-23.5 -56v-15q0 -32 19 -46.5t49 -14.5zM279 615q26 0 41 13.5
t15 44.5v22q0 31 -15 44.5t-41 13.5t-41 -13.5t-15 -44.5v-22q0 -31 15 -44.5t41 -13.5zM279 564q-32 0 -59.5 8t-47.5 23.5t-32 37.5t-12 51q0 28 12 50.5t32 38t47.5 23.5t59.5 8q31 0 59 -8t48 -23.5t32 -38t12 -50.5q0 -29 -12 -51t-32 -37.5t-48 -23.5t-59 -8zM229 861
l120 130l75 -84l-161 -83z" />
    <glyph glyph-name="atilde" unicode="&#xe3;" horiz-adv-x="587" 
d="M199 -12q-88 0 -127 39.5t-39 111.5q0 77 59.5 116t174.5 39h71v56q0 61 -23.5 91.5t-80.5 30.5q-21 0 -35.5 -2.5t-25.5 -7.5v-6q10 -5 19.5 -17.5t9.5 -34.5q0 -31 -20 -52t-59 -21q-32 0 -52.5 21.5t-20.5 54.5q0 24 14.5 47.5t43 42t71.5 29.5t99 11
q115 0 168.5 -47.5t53.5 -132.5v-289h60v-59q-18 -10 -47 -15.5t-59 -5.5q-57 0 -80 26t-23 64v1h-4q-8 -16 -18.5 -32.5t-27.5 -29.5t-42 -21t-60 -8zM260 81q36 0 57 16t21 58v78h-54q-45 0 -68.5 -20t-23.5 -56v-15q0 -32 19 -46.5t49 -14.5zM355 593q-24 0 -47.5 10
t-45.5 21l-42 21t-39 10q-8 0 -14.5 -1t-13.5 -5.5t-15 -12.5t-18 -23l-40 42l25.5 41.5t27 33t31.5 21.5t38 8q24 0 47.5 -10t45.5 -21l42 -21t39 -10q8 0 14.5 1t13.5 5.5t14.5 12.5t18.5 23l40 -42q-13 -23 -25.5 -42t-27 -32.5t-31.5 -21.5t-38 -8z" />
    <glyph glyph-name="uni1EAF" unicode="&#x1eaf;" horiz-adv-x="587" 
d="M199 -12q-88 0 -127 39.5t-39 111.5q0 77 59.5 116t174.5 39h71v56q0 61 -23.5 91.5t-80.5 30.5q-21 0 -35.5 -2.5t-25.5 -7.5v-6q10 -5 19.5 -17.5t9.5 -34.5q0 -31 -20 -52t-59 -21q-32 0 -52.5 21.5t-20.5 54.5q0 24 14.5 47.5t43 42t71.5 29.5t99 11
q115 0 168.5 -47.5t53.5 -132.5v-289h60v-59q-18 -10 -47 -15.5t-59 -5.5q-57 0 -80 26t-23 64v1h-4q-8 -16 -18.5 -32.5t-27.5 -29.5t-42 -21t-60 -8zM260 81q36 0 57 16t21 58v78h-54q-45 0 -68.5 -20t-23.5 -56v-15q0 -32 19 -46.5t49 -14.5zM278 571q-43 0 -74 14.5
t-53.5 38.5t-37.5 54.5t-26 62.5l52 27l20 -33q19 -32 45.5 -42.5t73.5 -10.5t73.5 10.5t45.5 42.5l20 33l52 -27q-11 -32 -26 -62.5t-37.5 -54.5t-53.5 -38.5t-74 -14.5zM241 764l79 206l111 -58l-143 -172z" />
    <glyph glyph-name="uni1EB7" unicode="&#x1eb7;" horiz-adv-x="587" 
d="M199 -12q-88 0 -127 39.5t-39 111.5q0 77 59.5 116t174.5 39h71v56q0 61 -23.5 91.5t-80.5 30.5q-21 0 -35.5 -2.5t-25.5 -7.5v-6q10 -5 19.5 -17.5t9.5 -34.5q0 -31 -20 -52t-59 -21q-32 0 -52.5 21.5t-20.5 54.5q0 24 14.5 47.5t43 42t71.5 29.5t99 11
q115 0 168.5 -47.5t53.5 -132.5v-289h60v-59q-18 -10 -47 -15.5t-59 -5.5q-57 0 -80 26t-23 64v1h-4q-8 -16 -18.5 -32.5t-27.5 -29.5t-42 -21t-60 -8zM260 81q36 0 57 16t21 58v78h-54q-45 0 -68.5 -20t-23.5 -56v-15q0 -32 19 -46.5t49 -14.5zM279 580q-43 0 -74 16.5
t-53 43t-37 60.5t-27 69l52 26l20 -32q11 -18 22 -31t25 -21t31.5 -12t40.5 -4t40.5 4t31.5 12t25 21t22 31l20 32l52 -26q-12 -35 -27 -69t-37 -60.5t-53 -43t-74 -16.5zM261 -207q-36 0 -58 20.5t-22 55.5v3q0 35 22 55.5t58 20.5t58 -20.5t22 -55.5v-3q0 -35 -22 -55.5
t-58 -20.5z" />
    <glyph glyph-name="uni1EB1" unicode="&#x1eb1;" horiz-adv-x="587" 
d="M199 -12q-88 0 -127 39.5t-39 111.5q0 77 59.5 116t174.5 39h71v56q0 61 -23.5 91.5t-80.5 30.5q-21 0 -35.5 -2.5t-25.5 -7.5v-6q10 -5 19.5 -17.5t9.5 -34.5q0 -31 -20 -52t-59 -21q-32 0 -52.5 21.5t-20.5 54.5q0 24 14.5 47.5t43 42t71.5 29.5t99 11
q115 0 168.5 -47.5t53.5 -132.5v-289h60v-59q-18 -10 -47 -15.5t-59 -5.5q-57 0 -80 26t-23 64v1h-4q-8 -16 -18.5 -32.5t-27.5 -29.5t-42 -21t-60 -8zM260 81q36 0 57 16t21 58v78h-54q-45 0 -68.5 -20t-23.5 -56v-15q0 -32 19 -46.5t49 -14.5zM278 571q-43 0 -74 14.5
t-53.5 38.5t-37.5 54.5t-26 62.5l52 27l20 -33q19 -32 45.5 -42.5t73.5 -10.5t73.5 10.5t45.5 42.5l20 33l52 -27q-11 -32 -26 -62.5t-37.5 -54.5t-53.5 -38.5t-74 -14.5zM125 912l111 58l79 -206l-47 -24z" />
    <glyph glyph-name="uni1EB3" unicode="&#x1eb3;" horiz-adv-x="587" 
d="M199 -12q-88 0 -127 39.5t-39 111.5q0 77 59.5 116t174.5 39h71v56q0 61 -23.5 91.5t-80.5 30.5q-21 0 -35.5 -2.5t-25.5 -7.5v-6q10 -5 19.5 -17.5t9.5 -34.5q0 -31 -20 -52t-59 -21q-32 0 -52.5 21.5t-20.5 54.5q0 24 14.5 47.5t43 42t71.5 29.5t99 11
q115 0 168.5 -47.5t53.5 -132.5v-289h60v-59q-18 -10 -47 -15.5t-59 -5.5q-57 0 -80 26t-23 64v1h-4q-8 -16 -18.5 -32.5t-27.5 -29.5t-42 -21t-60 -8zM260 81q36 0 57 16t21 58v78h-54q-45 0 -68.5 -20t-23.5 -56v-15q0 -32 19 -46.5t49 -14.5zM278 571q-43 0 -74 14.5
t-53.5 38.5t-37.5 54.5t-26 62.5l52 27l20 -33q19 -32 45.5 -42.5t73.5 -10.5t73.5 10.5t45.5 42.5l20 33l52 -27q-11 -32 -26 -62.5t-37.5 -54.5t-53.5 -38.5t-74 -14.5zM258 744l43 110h-155v102h145q29 0 48 -6t30.5 -16.5t16.5 -23.5t5 -28q0 -30 -15.5 -63t-40.5 -63
l-30 -36z" />
    <glyph glyph-name="uni1EB5" unicode="&#x1eb5;" horiz-adv-x="587" 
d="M199 -12q-88 0 -127 39.5t-39 111.5q0 77 59.5 116t174.5 39h71v56q0 61 -23.5 91.5t-80.5 30.5q-21 0 -35.5 -2.5t-25.5 -7.5v-6q10 -5 19.5 -17.5t9.5 -34.5q0 -31 -20 -52t-59 -21q-32 0 -52.5 21.5t-20.5 54.5q0 24 14.5 47.5t43 42t71.5 29.5t99 11
q115 0 168.5 -47.5t53.5 -132.5v-289h60v-59q-18 -10 -47 -15.5t-59 -5.5q-57 0 -80 26t-23 64v1h-4q-8 -16 -18.5 -32.5t-27.5 -29.5t-42 -21t-60 -8zM260 81q36 0 57 16t21 58v78h-54q-45 0 -68.5 -20t-23.5 -56v-15q0 -32 19 -46.5t49 -14.5zM361 777q-25 0 -48 10
t-46 22l-41 21t-39 10q-16 0 -28.5 -6.5t-33.5 -36.5l-40 42q25 44 52.5 72t69.5 28q25 0 48 -10t46 -22l41 -21t39 -10q16 0 28.5 6.5t33.5 36.5l40 -42q-25 -44 -52.5 -72t-69.5 -28zM278 571q-43 0 -74 14.5t-53.5 38.5t-37.5 54.5t-26 62.5l52 27l20 -33
q19 -32 45.5 -42.5t73.5 -10.5t73.5 10.5t45.5 42.5l20 33l52 -27q-11 -32 -26 -62.5t-37.5 -54.5t-53.5 -38.5t-74 -14.5z" />
    <glyph glyph-name="uni1EA5" unicode="&#x1ea5;" horiz-adv-x="587" 
d="M199 -12q-88 0 -127 39.5t-39 111.5q0 77 59.5 116t174.5 39h71v56q0 61 -23.5 91.5t-80.5 30.5q-21 0 -35.5 -2.5t-25.5 -7.5v-6q10 -5 19.5 -17.5t9.5 -34.5q0 -31 -20 -52t-59 -21q-32 0 -52.5 21.5t-20.5 54.5q0 24 14.5 47.5t43 42t71.5 29.5t99 11
q115 0 168.5 -47.5t53.5 -132.5v-289h60v-59q-18 -10 -47 -15.5t-59 -5.5q-57 0 -80 26t-23 64v1h-4q-8 -16 -18.5 -32.5t-27.5 -29.5t-42 -21t-60 -8zM260 81q36 0 57 16t21 58v78h-54q-45 0 -68.5 -20t-23.5 -56v-15q0 -32 19 -46.5t49 -14.5zM97 606l134 177h94l134 -177
l-44 -36l-137 110l-138 -110zM389 765l80 206l110 -58l-143 -172z" />
    <glyph glyph-name="uni1EAD" unicode="&#x1ead;" horiz-adv-x="587" 
d="M199 -12q-88 0 -127 39.5t-39 111.5q0 77 59.5 116t174.5 39h71v56q0 61 -23.5 91.5t-80.5 30.5q-21 0 -35.5 -2.5t-25.5 -7.5v-6q10 -5 19.5 -17.5t9.5 -34.5q0 -31 -20 -52t-59 -21q-32 0 -52.5 21.5t-20.5 54.5q0 24 14.5 47.5t43 42t71.5 29.5t99 11
q115 0 168.5 -47.5t53.5 -132.5v-289h60v-59q-18 -10 -47 -15.5t-59 -5.5q-57 0 -80 26t-23 64v1h-4q-8 -16 -18.5 -32.5t-27.5 -29.5t-42 -21t-60 -8zM260 81q36 0 57 16t21 58v78h-54q-45 0 -68.5 -20t-23.5 -56v-15q0 -32 19 -46.5t49 -14.5zM93 617l138 181h96l138 -181
l-45 -37l-141 104l-141 -104zM261 -207q-36 0 -58 20.5t-22 55.5v3q0 35 22 55.5t58 20.5t58 -20.5t22 -55.5v-3q0 -35 -22 -55.5t-58 -20.5z" />
    <glyph glyph-name="uni1EA7" unicode="&#x1ea7;" horiz-adv-x="587" 
d="M199 -12q-88 0 -127 39.5t-39 111.5q0 77 59.5 116t174.5 39h71v56q0 61 -23.5 91.5t-80.5 30.5q-21 0 -35.5 -2.5t-25.5 -7.5v-6q10 -5 19.5 -17.5t9.5 -34.5q0 -31 -20 -52t-59 -21q-32 0 -52.5 21.5t-20.5 54.5q0 24 14.5 47.5t43 42t71.5 29.5t99 11
q115 0 168.5 -47.5t53.5 -132.5v-289h60v-59q-18 -10 -47 -15.5t-59 -5.5q-57 0 -80 26t-23 64v1h-4q-8 -16 -18.5 -32.5t-27.5 -29.5t-42 -21t-60 -8zM260 81q36 0 57 16t21 58v78h-54q-45 0 -68.5 -20t-23.5 -56v-15q0 -32 19 -46.5t49 -14.5zM97 606l134 177h94l134 -177
l-44 -36l-137 110l-138 -110zM-23 913l111 58l79 -206l-47 -24z" />
    <glyph glyph-name="uni1EA9" unicode="&#x1ea9;" horiz-adv-x="587" 
d="M199 -12q-88 0 -127 39.5t-39 111.5q0 77 59.5 116t174.5 39h71v56q0 61 -23.5 91.5t-80.5 30.5q-21 0 -35.5 -2.5t-25.5 -7.5v-6q10 -5 19.5 -17.5t9.5 -34.5q0 -31 -20 -52t-59 -21q-32 0 -52.5 21.5t-20.5 54.5q0 24 14.5 47.5t43 42t71.5 29.5t99 11
q115 0 168.5 -47.5t53.5 -132.5v-289h60v-59q-18 -10 -47 -15.5t-59 -5.5q-57 0 -80 26t-23 64v1h-4q-8 -16 -18.5 -32.5t-27.5 -29.5t-42 -21t-60 -8zM260 81q36 0 57 16t21 58v78h-54q-45 0 -68.5 -20t-23.5 -56v-15q0 -32 19 -46.5t49 -14.5zM414 744l45 110h-136v102
h124q28 0 47.5 -6t30.5 -16.5t16 -23.5t5 -28q0 -30 -16 -63.5t-41 -63.5l-28 -35zM97 606l134 177h94l134 -177l-44 -36l-137 110l-138 -110z" />
    <glyph glyph-name="uni1EAB" unicode="&#x1eab;" horiz-adv-x="587" 
d="M199 -12q-88 0 -127 39.5t-39 111.5q0 77 59.5 116t174.5 39h71v56q0 61 -23.5 91.5t-80.5 30.5q-21 0 -35.5 -2.5t-25.5 -7.5v-6q10 -5 19.5 -17.5t9.5 -34.5q0 -31 -20 -52t-59 -21q-32 0 -52.5 21.5t-20.5 54.5q0 24 14.5 47.5t43 42t71.5 29.5t99 11
q115 0 168.5 -47.5t53.5 -132.5v-289h60v-59q-18 -10 -47 -15.5t-59 -5.5q-57 0 -80 26t-23 64v1h-4q-8 -16 -18.5 -32.5t-27.5 -29.5t-42 -21t-60 -8zM260 81q36 0 57 16t21 58v78h-54q-45 0 -68.5 -20t-23.5 -56v-15q0 -32 19 -46.5t49 -14.5zM353 786q-25 0 -47 10.5
l-45 21.5l-41 21t-38 10q-16 0 -27.5 -9.5t-32.5 -39.5l-39 42q24 44 51 71t68 27q25 0 47 -10.5l45 -21.5l41 -21t38 -10q16 0 27.5 9.5t32.5 39.5l39 -42q-24 -44 -51 -71t-68 -27zM97 606l134 160h94l134 -160l-43 -36l-138 97l-138 -97z" />
    <glyph glyph-name="aacute.alt01" horiz-adv-x="649" 
d="M254 -12q-49 0 -88.5 20t-67 56t-42 86.5t-14.5 112.5q0 61 14.5 111.5t42 86.5t67 56t88.5 20q60 0 100 -28.5t54 -65.5h6l73 82h75v-457h60v-59q-19 -10 -47.5 -15.5t-58.5 -5.5q-60 0 -84.5 25.5t-24.5 62.5v9h-6q-7 -19 -19.5 -36.5t-31 -31t-42.5 -21.5t-54 -8z
M309 83q40 0 65.5 25t25.5 66v178q0 41 -25.5 66t-65.5 25t-68 -27.5t-28 -81.5v-142q0 -54 28 -81.5t68 -27.5zM263 604l72 214l137 -65l-158 -173z" />
    <glyph glyph-name="abreve.alt01" horiz-adv-x="649" 
d="M254 -12q-49 0 -88.5 20t-67 56t-42 86.5t-14.5 112.5q0 61 14.5 111.5t42 86.5t67 56t88.5 20q60 0 100 -28.5t54 -65.5h6l73 82h75v-457h60v-59q-19 -10 -47.5 -15.5t-58.5 -5.5q-60 0 -84.5 25.5t-24.5 62.5v9h-6q-7 -19 -19.5 -36.5t-31 -31t-42.5 -21.5t-54 -8z
M309 83q40 0 65.5 25t25.5 66v178q0 41 -25.5 66t-65.5 25t-68 -27.5t-28 -81.5v-142q0 -54 28 -81.5t68 -27.5zM314 580q-43 0 -74 16.5t-53 43t-37 60.5t-27 69l52 26l20 -32q11 -18 22 -31t25 -21t31.5 -12t40.5 -4t40.5 4t31.5 12t25 21t22 31l20 32l52 -26
q-12 -35 -27 -69t-37 -60.5t-53 -43t-74 -16.5z" />
    <glyph glyph-name="acircumflex.alt01" horiz-adv-x="649" 
d="M254 -12q-49 0 -88.5 20t-67 56t-42 86.5t-14.5 112.5q0 61 14.5 111.5t42 86.5t67 56t88.5 20q60 0 100 -28.5t54 -65.5h6l73 82h75v-457h60v-59q-19 -10 -47.5 -15.5t-58.5 -5.5q-60 0 -84.5 25.5t-24.5 62.5v9h-6q-7 -19 -19.5 -36.5t-31 -31t-42.5 -21.5t-54 -8z
M309 83q40 0 65.5 25t25.5 66v178q0 41 -25.5 66t-65.5 25t-68 -27.5t-28 -81.5v-142q0 -54 28 -81.5t68 -27.5zM128 617l138 181h96l138 -181l-45 -37l-141 104l-141 -104z" />
    <glyph glyph-name="adieresis.alt01" horiz-adv-x="649" 
d="M254 -12q-49 0 -88.5 20t-67 56t-42 86.5t-14.5 112.5q0 61 14.5 111.5t42 86.5t67 56t88.5 20q60 0 100 -28.5t54 -65.5h6l73 82h75v-457h60v-59q-19 -10 -47.5 -15.5t-58.5 -5.5q-60 0 -84.5 25.5t-24.5 62.5v9h-6q-7 -19 -19.5 -36.5t-31 -31t-42.5 -21.5t-54 -8z
M309 83q40 0 65.5 25t25.5 66v178q0 41 -25.5 66t-65.5 25t-68 -27.5t-28 -81.5v-142q0 -54 28 -81.5t68 -27.5zM203 596q-38 0 -59 21.5t-21 54.5v4q0 33 21 54.5t59 21.5t59 -21.5t21 -54.5v-4q0 -33 -21 -54.5t-59 -21.5zM425 596q-38 0 -59 21.5t-21 54.5v4
q0 33 21 54.5t59 21.5t59 -21.5t21 -54.5v-4q0 -33 -21 -54.5t-59 -21.5z" />
    <glyph glyph-name="uni1EA1.alt01" horiz-adv-x="649" 
d="M254 -12q-49 0 -88.5 20t-67 56t-42 86.5t-14.5 112.5q0 61 14.5 111.5t42 86.5t67 56t88.5 20q60 0 100 -28.5t54 -65.5h6l73 82h75v-457h60v-59q-19 -10 -47.5 -15.5t-58.5 -5.5q-60 0 -84.5 25.5t-24.5 62.5v9h-6q-7 -19 -19.5 -36.5t-31 -31t-42.5 -21.5t-54 -8z
M309 83q40 0 65.5 25t25.5 66v178q0 41 -25.5 66t-65.5 25t-68 -27.5t-28 -81.5v-142q0 -54 28 -81.5t68 -27.5zM304 -207q-36 0 -58 20.5t-22 55.5v3q0 35 22 55.5t58 20.5t58 -20.5t22 -55.5v-3q0 -35 -22 -55.5t-58 -20.5z" />
    <glyph glyph-name="agrave.alt01" horiz-adv-x="649" 
d="M254 -12q-49 0 -88.5 20t-67 56t-42 86.5t-14.5 112.5q0 61 14.5 111.5t42 86.5t67 56t88.5 20q60 0 100 -28.5t54 -65.5h6l73 82h75v-457h60v-59q-19 -10 -47.5 -15.5t-58.5 -5.5q-60 0 -84.5 25.5t-24.5 62.5v9h-6q-7 -19 -19.5 -36.5t-31 -31t-42.5 -21.5t-54 -8z
M309 83q40 0 65.5 25t25.5 66v178q0 41 -25.5 66t-65.5 25t-68 -27.5t-28 -81.5v-142q0 -54 28 -81.5t68 -27.5zM156 753l137 65l72 -214l-51 -24z" />
    <glyph glyph-name="uni1EA3.alt01" horiz-adv-x="649" 
d="M254 -12q-49 0 -88.5 20t-67 56t-42 86.5t-14.5 112.5q0 61 14.5 111.5t42 86.5t67 56t88.5 20q60 0 100 -28.5t54 -65.5h6l73 82h75v-457h60v-59q-19 -10 -47.5 -15.5t-58.5 -5.5q-60 0 -84.5 25.5t-24.5 62.5v9h-6q-7 -19 -19.5 -36.5t-31 -31t-42.5 -21.5t-54 -8z
M309 83q40 0 65.5 25t25.5 66v178q0 41 -25.5 66t-65.5 25t-68 -27.5t-28 -81.5v-142q0 -54 28 -81.5t68 -27.5zM298 593l42 107h-148v104h145q29 0 48 -6t30.5 -16.5t16.5 -23.5t5 -28q0 -30 -16 -62.5t-41 -62.5l-29 -36z" />
    <glyph glyph-name="amacron.alt01" horiz-adv-x="649" 
d="M254 -12q-49 0 -88.5 20t-67 56t-42 86.5t-14.5 112.5q0 61 14.5 111.5t42 86.5t67 56t88.5 20q60 0 100 -28.5t54 -65.5h6l73 82h75v-457h60v-59q-19 -10 -47.5 -15.5t-58.5 -5.5q-60 0 -84.5 25.5t-24.5 62.5v9h-6q-7 -19 -19.5 -36.5t-31 -31t-42.5 -21.5t-54 -8z
M309 83q40 0 65.5 25t25.5 66v178q0 41 -25.5 66t-65.5 25t-68 -27.5t-28 -81.5v-142q0 -54 28 -81.5t68 -27.5zM150 721h328v-93h-328v93z" />
    <glyph glyph-name="aogonek.alt01" horiz-adv-x="649" 
d="M530 -212q-25 0 -47 5t-38 15.5t-25.5 27t-9.5 40.5q0 38 29 61.5t84 46.5v4h-7q-60 0 -84.5 25.5t-24.5 62.5v9h-6q-7 -19 -19.5 -36.5t-31 -31t-42.5 -21.5t-54 -8q-49 0 -88.5 20t-67 56t-42 86.5t-14.5 112.5q0 61 14.5 111.5t42 86.5t67 56t88.5 20q60 0 100 -28.5
t54 -65.5h6l73 82h75v-457h60v-59l-14 -6q-29 -12 -47.5 -26.5t-29.5 -29t-15 -27t-4 -21.5q0 -21 12 -32t33 -11q14 0 23.5 4.5t19.5 15.5l39 -40q-17 -23 -43 -35.5t-66 -12.5zM309 83q40 0 65.5 23.5t25.5 65.5v180q0 41 -25.5 66t-65.5 25t-68 -28t-28 -81v-142
q0 -54 28 -81.5t68 -27.5z" />
    <glyph glyph-name="aring.alt01" horiz-adv-x="649" 
d="M254 -12q-49 0 -88.5 20t-67 56t-42 86.5t-14.5 112.5q0 61 14.5 111.5t42 86.5t67 56t88.5 20q60 0 100 -28.5t54 -65.5h6l73 82h75v-457h60v-59q-19 -10 -47.5 -15.5t-58.5 -5.5q-60 0 -84.5 25.5t-24.5 62.5v9h-6q-7 -19 -19.5 -36.5t-31 -31t-42.5 -21.5t-54 -8z
M309 83q40 0 65.5 25t25.5 66v178q0 41 -25.5 66t-65.5 25t-68 -27.5t-28 -81.5v-142q0 -54 28 -81.5t68 -27.5zM314 613q25 0 39 15t14 41v65q0 26 -14 41t-39 15t-39 -15t-14 -41v-65q0 -26 14 -41t39 -15zM314 557q-32 0 -59 11t-47 30t-31.5 45.5t-11.5 58.5
q0 31 11.5 57.5t31.5 45.5t47 30t59 11q31 0 58.5 -11t47.5 -30t31.5 -45.5t11.5 -57.5q0 -32 -11.5 -58.5t-31.5 -45.5t-47.5 -30t-58.5 -11z" />
    <glyph glyph-name="aringacute.alt01" horiz-adv-x="649" 
d="M254 -12q-49 0 -88.5 20t-67 56t-42 86.5t-14.5 112.5q0 61 14.5 111.5t42 86.5t67 56t88.5 20q60 0 100 -28.5t54 -65.5h6l73 82h75v-457h60v-59q-19 -10 -47.5 -15.5t-58.5 -5.5q-60 0 -84.5 25.5t-24.5 62.5v9h-6q-7 -19 -19.5 -36.5t-31 -31t-42.5 -21.5t-54 -8z
M309 83q40 0 65.5 25t25.5 66v178q0 41 -25.5 66t-65.5 25t-68 -27.5t-28 -81.5v-142q0 -54 28 -81.5t68 -27.5zM314 615q26 0 41 13.5t15 44.5v22q0 31 -15 44.5t-41 13.5t-41 -13.5t-15 -44.5v-22q0 -31 15 -44.5t41 -13.5zM314 564q-32 0 -59.5 8t-47.5 23.5t-32 37.5
t-12 51q0 28 12 50.5t32 38t47.5 23.5t59.5 8q31 0 59 -8t48 -23.5t32 -38t12 -50.5q0 -29 -12 -51t-32 -37.5t-48 -23.5t-59 -8zM264 861l120 130l75 -84l-161 -83z" />
    <glyph glyph-name="atilde.alt01" horiz-adv-x="649" 
d="M254 -12q-49 0 -88.5 20t-67 56t-42 86.5t-14.5 112.5q0 61 14.5 111.5t42 86.5t67 56t88.5 20q60 0 100 -28.5t54 -65.5h6l73 82h75v-457h60v-59q-19 -10 -47.5 -15.5t-58.5 -5.5q-60 0 -84.5 25.5t-24.5 62.5v9h-6q-7 -19 -19.5 -36.5t-31 -31t-42.5 -21.5t-54 -8z
M309 83q40 0 65.5 25t25.5 66v178q0 41 -25.5 66t-65.5 25t-68 -27.5t-28 -81.5v-142q0 -54 28 -81.5t68 -27.5zM390 593q-24 0 -47.5 10t-45.5 21l-42 21t-39 10q-8 0 -14.5 -1t-13.5 -5.5t-15 -12.5t-18 -23l-40 42l25.5 41.5t27 33t31.5 21.5t38 8q24 0 47.5 -10
t45.5 -21l42 -21t39 -10q8 0 14.5 1t13.5 5.5t14.5 12.5t18.5 23l40 -42q-13 -23 -25.5 -42t-27 -32.5t-31.5 -21.5t-38 -8z" />
    <glyph glyph-name="uni1EAF.alt01" horiz-adv-x="649" 
d="M254 -12q-49 0 -88.5 20t-67 56t-42 86.5t-14.5 112.5q0 61 14.5 111.5t42 86.5t67 56t88.5 20q60 0 100 -28.5t54 -65.5h6l73 82h75v-457h60v-59q-19 -10 -47.5 -15.5t-58.5 -5.5q-60 0 -84.5 25.5t-24.5 62.5v9h-6q-7 -19 -19.5 -36.5t-31 -31t-42.5 -21.5t-54 -8z
M309 83q40 0 65.5 25t25.5 66v178q0 41 -25.5 66t-65.5 25t-68 -27.5t-28 -81.5v-142q0 -54 28 -81.5t68 -27.5zM314 571q-43 0 -74 14.5t-53.5 38.5t-37.5 54.5t-26 62.5l52 27l20 -33q19 -32 45.5 -42.5t73.5 -10.5t73.5 10.5t45.5 42.5l20 33l52 -27q-11 -32 -26 -62.5
t-37.5 -54.5t-53.5 -38.5t-74 -14.5zM277 764l79 206l111 -58l-143 -172z" />
    <glyph glyph-name="uni1EB7.alt01" horiz-adv-x="649" 
d="M254 -12q-49 0 -88.5 20t-67 56t-42 86.5t-14.5 112.5q0 61 14.5 111.5t42 86.5t67 56t88.5 20q60 0 100 -28.5t54 -65.5h6l73 82h75v-457h60v-59q-19 -10 -47.5 -15.5t-58.5 -5.5q-60 0 -84.5 25.5t-24.5 62.5v9h-6q-7 -19 -19.5 -36.5t-31 -31t-42.5 -21.5t-54 -8z
M309 83q40 0 65.5 25t25.5 66v178q0 41 -25.5 66t-65.5 25t-68 -27.5t-28 -81.5v-142q0 -54 28 -81.5t68 -27.5zM314 580q-43 0 -74 16.5t-53 43t-37 60.5t-27 69l52 26l20 -32q11 -18 22 -31t25 -21t31.5 -12t40.5 -4t40.5 4t31.5 12t25 21t22 31l20 32l52 -26
q-12 -35 -27 -69t-37 -60.5t-53 -43t-74 -16.5zM304 -207q-36 0 -58 20.5t-22 55.5v3q0 35 22 55.5t58 20.5t58 -20.5t22 -55.5v-3q0 -35 -22 -55.5t-58 -20.5z" />
    <glyph glyph-name="uni1EB1.alt01" horiz-adv-x="649" 
d="M254 -12q-49 0 -88.5 20t-67 56t-42 86.5t-14.5 112.5q0 61 14.5 111.5t42 86.5t67 56t88.5 20q60 0 100 -28.5t54 -65.5h6l73 82h75v-457h60v-59q-19 -10 -47.5 -15.5t-58.5 -5.5q-60 0 -84.5 25.5t-24.5 62.5v9h-6q-7 -19 -19.5 -36.5t-31 -31t-42.5 -21.5t-54 -8z
M309 83q40 0 65.5 25t25.5 66v178q0 41 -25.5 66t-65.5 25t-68 -27.5t-28 -81.5v-142q0 -54 28 -81.5t68 -27.5zM314 571q-43 0 -74 14.5t-53.5 38.5t-37.5 54.5t-26 62.5l52 27l20 -33q19 -32 45.5 -42.5t73.5 -10.5t73.5 10.5t45.5 42.5l20 33l52 -27q-11 -32 -26 -62.5
t-37.5 -54.5t-53.5 -38.5t-74 -14.5zM161 912l111 58l79 -206l-47 -24z" />
    <glyph glyph-name="uni1EB3.alt01" horiz-adv-x="649" 
d="M254 -12q-49 0 -88.5 20t-67 56t-42 86.5t-14.5 112.5q0 61 14.5 111.5t42 86.5t67 56t88.5 20q60 0 100 -28.5t54 -65.5h6l73 82h75v-457h60v-59q-19 -10 -47.5 -15.5t-58.5 -5.5q-60 0 -84.5 25.5t-24.5 62.5v9h-6q-7 -19 -19.5 -36.5t-31 -31t-42.5 -21.5t-54 -8z
M309 83q40 0 65.5 25t25.5 66v178q0 41 -25.5 66t-65.5 25t-68 -27.5t-28 -81.5v-142q0 -54 28 -81.5t68 -27.5zM314 571q-43 0 -74 14.5t-53.5 38.5t-37.5 54.5t-26 62.5l52 27l20 -33q19 -32 45.5 -42.5t73.5 -10.5t73.5 10.5t45.5 42.5l20 33l52 -27q-11 -32 -26 -62.5
t-37.5 -54.5t-53.5 -38.5t-74 -14.5zM294 744l43 110h-155v102h145q29 0 48 -6t30.5 -16.5t16.5 -23.5t5 -28q0 -30 -15.5 -63t-40.5 -63l-30 -36z" />
    <glyph glyph-name="uni1EB5.alt01" horiz-adv-x="649" 
d="M254 -12q-49 0 -88.5 20t-67 56t-42 86.5t-14.5 112.5q0 61 14.5 111.5t42 86.5t67 56t88.5 20q60 0 100 -28.5t54 -65.5h6l73 82h75v-457h60v-59q-19 -10 -47.5 -15.5t-58.5 -5.5q-60 0 -84.5 25.5t-24.5 62.5v9h-6q-7 -19 -19.5 -36.5t-31 -31t-42.5 -21.5t-54 -8z
M309 83q40 0 65.5 25t25.5 66v178q0 41 -25.5 66t-65.5 25t-68 -27.5t-28 -81.5v-142q0 -54 28 -81.5t68 -27.5zM397 777q-25 0 -48 10t-46 22l-41 21t-39 10q-16 0 -28.5 -6.5t-33.5 -36.5l-40 42q25 44 52.5 72t69.5 28q25 0 48 -10t46 -22l41 -21t39 -10q16 0 28.5 6.5
t33.5 36.5l40 -42q-25 -44 -52.5 -72t-69.5 -28zM314 571q-43 0 -74 14.5t-53.5 38.5t-37.5 54.5t-26 62.5l52 27l20 -33q19 -32 45.5 -42.5t73.5 -10.5t73.5 10.5t45.5 42.5l20 33l52 -27q-11 -32 -26 -62.5t-37.5 -54.5t-53.5 -38.5t-74 -14.5z" />
    <glyph glyph-name="uni1EA5.alt01" horiz-adv-x="649" 
d="M254 -12q-49 0 -88.5 20t-67 56t-42 86.5t-14.5 112.5q0 61 14.5 111.5t42 86.5t67 56t88.5 20q60 0 100 -28.5t54 -65.5h6l73 82h75v-457h60v-59q-19 -10 -47.5 -15.5t-58.5 -5.5q-60 0 -84.5 25.5t-24.5 62.5v9h-6q-7 -19 -19.5 -36.5t-31 -31t-42.5 -21.5t-54 -8z
M309 83q40 0 65.5 25t25.5 66v178q0 41 -25.5 66t-65.5 25t-68 -27.5t-28 -81.5v-142q0 -54 28 -81.5t68 -27.5zM133 606l134 177h94l134 -177l-44 -36l-137 110l-138 -110zM425 765l80 206l110 -58l-143 -172z" />
    <glyph glyph-name="uni1EAD.alt01" horiz-adv-x="649" 
d="M254 -12q-49 0 -88.5 20t-67 56t-42 86.5t-14.5 112.5q0 61 14.5 111.5t42 86.5t67 56t88.5 20q60 0 100 -28.5t54 -65.5h6l73 82h75v-457h60v-59q-19 -10 -47.5 -15.5t-58.5 -5.5q-60 0 -84.5 25.5t-24.5 62.5v9h-6q-7 -19 -19.5 -36.5t-31 -31t-42.5 -21.5t-54 -8z
M309 83q40 0 65.5 25t25.5 66v178q0 41 -25.5 66t-65.5 25t-68 -27.5t-28 -81.5v-142q0 -54 28 -81.5t68 -27.5zM128 617l138 181h96l138 -181l-45 -37l-141 104l-141 -104zM304 -207q-36 0 -58 20.5t-22 55.5v3q0 35 22 55.5t58 20.5t58 -20.5t22 -55.5v-3q0 -35 -22 -55.5
t-58 -20.5z" />
    <glyph glyph-name="uni1EA7.alt01" horiz-adv-x="649" 
d="M254 -12q-49 0 -88.5 20t-67 56t-42 86.5t-14.5 112.5q0 61 14.5 111.5t42 86.5t67 56t88.5 20q60 0 100 -28.5t54 -65.5h6l73 82h75v-457h60v-59q-19 -10 -47.5 -15.5t-58.5 -5.5q-60 0 -84.5 25.5t-24.5 62.5v9h-6q-7 -19 -19.5 -36.5t-31 -31t-42.5 -21.5t-54 -8z
M309 83q40 0 65.5 25t25.5 66v178q0 41 -25.5 66t-65.5 25t-68 -27.5t-28 -81.5v-142q0 -54 28 -81.5t68 -27.5zM133 606l134 177h94l134 -177l-44 -36l-137 110l-138 -110zM13 913l111 58l79 -206l-47 -24z" />
    <glyph glyph-name="uni1EA9.alt01" horiz-adv-x="649" 
d="M254 -12q-49 0 -88.5 20t-67 56t-42 86.5t-14.5 112.5q0 61 14.5 111.5t42 86.5t67 56t88.5 20q60 0 100 -28.5t54 -65.5h6l73 82h75v-457h60v-59q-19 -10 -47.5 -15.5t-58.5 -5.5q-60 0 -84.5 25.5t-24.5 62.5v9h-6q-7 -19 -19.5 -36.5t-31 -31t-42.5 -21.5t-54 -8z
M309 83q40 0 65.5 25t25.5 66v178q0 41 -25.5 66t-65.5 25t-68 -27.5t-28 -81.5v-142q0 -54 28 -81.5t68 -27.5zM450 744l45 110h-136v102h124q28 0 47.5 -6t30.5 -16.5t16 -23.5t5 -28q0 -30 -16 -63.5t-41 -63.5l-28 -35zM133 606l134 177h94l134 -177l-44 -36l-137 110
l-138 -110z" />
    <glyph glyph-name="uni1EAB.alt01" horiz-adv-x="649" 
d="M254 -12q-49 0 -88.5 20t-67 56t-42 86.5t-14.5 112.5q0 61 14.5 111.5t42 86.5t67 56t88.5 20q60 0 100 -28.5t54 -65.5h6l73 82h75v-457h60v-59q-19 -10 -47.5 -15.5t-58.5 -5.5q-60 0 -84.5 25.5t-24.5 62.5v9h-6q-7 -19 -19.5 -36.5t-31 -31t-42.5 -21.5t-54 -8z
M309 83q40 0 65.5 25t25.5 66v178q0 41 -25.5 66t-65.5 25t-68 -27.5t-28 -81.5v-142q0 -54 28 -81.5t68 -27.5zM389 786q-25 0 -47 10.5l-45 21.5l-41 21t-38 10q-16 0 -27.5 -9.5t-32.5 -39.5l-39 42q24 44 51 71t68 27q25 0 47 -10.5l45 -21.5l41 -21t38 -10
q16 0 27.5 9.5t32.5 39.5l39 -42q-24 -44 -51 -71t-68 -27zM133 606l134 160h94l134 -160l-43 -36l-138 97l-138 -97z" />
    <glyph glyph-name="ae" unicode="&#xe6;" horiz-adv-x="876" 
d="M204 -12q-92 0 -131.5 39.5t-39.5 111.5q0 78 59.5 117.5t174.5 39.5h71v54q0 61 -23.5 91.5t-80.5 30.5q-21 0 -35.5 -2.5t-25.5 -7.5v-6q10 -5 19.5 -17.5t9.5 -34.5q0 -31 -20 -52t-59 -21q-32 0 -52.5 21.5t-20.5 54.5q0 24 14.5 47.5t43 42t71.5 29.5t99 11
q59 0 96 -18.5t53 -43.5h6q7 11 22.5 22t36.5 20t46 14.5t51 5.5q58 0 104 -17t78 -48.5t49.5 -76t17.5 -100.5v-35h-333v-58q0 -63 34.5 -92.5t93.5 -29.5q54 0 87 26.5t48 64.5l58 -34q-9 -24 -26.5 -50.5t-45 -48.5t-66.5 -36t-90 -14q-33 0 -63.5 6.5t-56 18t-45.5 27.5
t-32 35h-6q-8 -14 -23.5 -29.5t-38.5 -28.5t-55 -21t-74 -8zM260 81q36 0 57 16t21 58v78h-54q-45 0 -68.5 -20t-23.5 -56v-15q0 -32 19 -46.5t49 -14.5zM505 323h167v16q0 71 -22.5 99t-59.5 28q-38 0 -61.5 -27.5t-23.5 -99.5v-16z" />
    <glyph glyph-name="aeacute" unicode="&#x1fd;" horiz-adv-x="876" 
d="M204 -12q-92 0 -131.5 39.5t-39.5 111.5q0 78 59.5 117.5t174.5 39.5h71v54q0 61 -23.5 91.5t-80.5 30.5q-21 0 -35.5 -2.5t-25.5 -7.5v-6q10 -5 19.5 -17.5t9.5 -34.5q0 -31 -20 -52t-59 -21q-32 0 -52.5 21.5t-20.5 54.5q0 24 14.5 47.5t43 42t71.5 29.5t99 11
q59 0 96 -18.5t53 -43.5h6q7 11 22.5 22t36.5 20t46 14.5t51 5.5q58 0 104 -17t78 -48.5t49.5 -76t17.5 -100.5v-35h-333v-58q0 -63 34.5 -92.5t93.5 -29.5q54 0 87 26.5t48 64.5l58 -34q-9 -24 -26.5 -50.5t-45 -48.5t-66.5 -36t-90 -14q-33 0 -63.5 6.5t-56 18t-45.5 27.5
t-32 35h-6q-8 -14 -23.5 -29.5t-38.5 -28.5t-55 -21t-74 -8zM260 81q36 0 57 16t21 58v78h-54q-45 0 -68.5 -20t-23.5 -56v-15q0 -32 19 -46.5t49 -14.5zM505 323h167v16q0 71 -22.5 99t-59.5 28q-38 0 -61.5 -27.5t-23.5 -99.5v-16zM380 604l72 214l137 -65l-158 -173z" />
    <glyph glyph-name="cacute" unicode="&#x107;" horiz-adv-x="548" 
d="M301 -12q-65 0 -114 21t-82 58t-50 87.5t-17 108.5q0 66 21.5 117.5t59 86t89 52.5t110.5 18q94 0 145 -38.5t51 -96.5q0 -39 -22 -61.5t-60 -22.5t-59 19.5t-21 51.5q0 26 13.5 43.5t30.5 25.5v6q-10 3 -23 5.5t-35 2.5q-62 0 -95.5 -37.5t-33.5 -109.5v-107
q0 -64 30.5 -97t85.5 -33q56 0 89.5 26t47.5 61l59 -34q-9 -25 -26 -52t-43.5 -49.5t-64 -37t-86.5 -14.5zM253 604l72 214l137 -65l-158 -173z" />
    <glyph glyph-name="ccaron" unicode="&#x10d;" horiz-adv-x="548" 
d="M301 -12q-65 0 -114 21t-82 58t-50 87.5t-17 108.5q0 66 21.5 117.5t59 86t89 52.5t110.5 18q94 0 145 -38.5t51 -96.5q0 -39 -22 -61.5t-60 -22.5t-59 19.5t-21 51.5q0 26 13.5 43.5t30.5 25.5v6q-10 3 -23 5.5t-35 2.5q-62 0 -95.5 -37.5t-33.5 -109.5v-107
q0 -64 30.5 -97t85.5 -33q56 0 89.5 26t47.5 61l59 -34q-9 -25 -26 -52t-43.5 -49.5t-64 -37t-86.5 -14.5zM118 765l45 37l141 -104l141 104l45 -37l-138 -181h-96z" />
    <glyph glyph-name="ccedilla" unicode="&#xe7;" horiz-adv-x="548" 
d="M307 -212q-48 0 -75.5 15t-39.5 29l35 43q10 -12 25 -20.5t35 -8.5q21 0 33.5 9t12.5 29q0 11 -11 23.5t-48 16.5l-21 2l13 64q-56 5 -98.5 28t-71.5 59.5t-43.5 84t-14.5 101.5q0 66 21.5 117.5t59 86t89 52.5t110.5 18q94 0 145 -38.5t51 -96.5q0 -39 -22 -61.5
t-60 -22.5t-59 19.5t-21 51.5q0 26 13.5 43.5t30.5 25.5v6q-10 3 -23 5.5t-35 2.5q-62 0 -95.5 -37.5t-33.5 -109.5v-107q0 -64 30.5 -97t85.5 -33q56 0 89.5 26t47.5 61l59 -34q-9 -24 -24 -49.5t-39 -47t-57 -37t-77 -18.5l-9 -44l4 -4q11 3 22.5 5t22.5 2q34 0 55.5 -16
t21.5 -53q0 -26 -11 -43t-30 -28t-43 -15.5t-50 -4.5z" />
    <glyph glyph-name="ccircumflex" unicode="&#x109;" horiz-adv-x="548" 
d="M301 -12q-65 0 -114 21t-82 58t-50 87.5t-17 108.5q0 66 21.5 117.5t59 86t89 52.5t110.5 18q94 0 145 -38.5t51 -96.5q0 -39 -22 -61.5t-60 -22.5t-59 19.5t-21 51.5q0 26 13.5 43.5t30.5 25.5v6q-10 3 -23 5.5t-35 2.5q-62 0 -95.5 -37.5t-33.5 -109.5v-107
q0 -64 30.5 -97t85.5 -33q56 0 89.5 26t47.5 61l59 -34q-9 -25 -26 -52t-43.5 -49.5t-64 -37t-86.5 -14.5zM118 617l138 181h96l138 -181l-45 -37l-141 104l-141 -104z" />
    <glyph glyph-name="cdotaccent" unicode="&#x10b;" horiz-adv-x="548" 
d="M301 -12q-65 0 -114 21t-82 58t-50 87.5t-17 108.5q0 66 21.5 117.5t59 86t89 52.5t110.5 18q94 0 145 -38.5t51 -96.5q0 -39 -22 -61.5t-60 -22.5t-59 19.5t-21 51.5q0 26 13.5 43.5t30.5 25.5v6q-10 3 -23 5.5t-35 2.5q-62 0 -95.5 -37.5t-33.5 -109.5v-107
q0 -64 30.5 -97t85.5 -33q56 0 89.5 26t47.5 61l59 -34q-9 -25 -26 -52t-43.5 -49.5t-64 -37t-86.5 -14.5zM304 585q-42 0 -67 24t-25 64v3q0 40 25 64t67 24t67 -24t25 -64v-3q0 -40 -25 -64t-67 -24z" />
    <glyph glyph-name="dcaron" unicode="&#x10f;" horiz-adv-x="649" 
d="M254 -12q-49 0 -88.5 20t-67 56t-42 86.5t-14.5 111.5t14.5 112t42 87t67 56t88.5 20q57 0 91.5 -26.5t48.5 -61.5h6v204l-60 13v60l222 44v-664l61 -13v-60l-223 -45v90h-6q-14 -35 -50 -62.5t-90 -27.5zM309 83q40 0 65.5 25t25.5 66v178q0 41 -25.5 66t-65.5 25
t-68 -27.5t-28 -81.5v-142q0 -54 28 -81.5t68 -27.5zM628 758h140l-89 -217h-56z" />
    <glyph glyph-name="dcroat" unicode="&#x111;" horiz-adv-x="649" 
d="M254 -12q-49 0 -88.5 20t-67 56t-42 86.5t-14.5 111.5t14.5 112t42 87t67 56t88.5 20q57 0 91.5 -26.5t48.5 -61.5h6v145h-145v72h145v72l162 32v-104h71v-72h-71v-488l61 -13v-60l-223 -45v90h-6q-14 -35 -50 -62.5t-90 -27.5zM309 83q40 0 65.5 23.5t25.5 65.5v180
q0 41 -25.5 66t-65.5 25t-68 -28t-28 -81v-142q0 -54 28 -81.5t68 -27.5z" />
    <glyph glyph-name="eth" unicode="&#xf0;" horiz-adv-x="602" 
d="M300 -12q-60 0 -108 18.5t-81 53t-51 84t-18 111.5q0 56 13.5 102t39 78.5t61.5 50.5t80 18q54 0 91.5 -22.5t63.5 -64.5l6 3q-12 46 -35.5 93.5t-57.5 92.5l-97 -58l-42 54l94 57q-29 30 -61.5 55.5t-67.5 43.5h104q55 -23 102 -53l109 65l41 -55l-91 -54
q36 -31 65.5 -69.5t50.5 -86.5t33 -105t12 -126q0 -74 -18.5 -128t-52.5 -89t-81 -52t-104 -17zM300 60q88 0 88 105v142q0 105 -88 105t-88 -105v-142q0 -105 88 -105z" />
    <glyph glyph-name="eacute" unicode="&#xe9;" horiz-adv-x="580" 
d="M302 -12q-63 0 -112.5 20.5t-83 57.5t-51 87t-17.5 110q0 64 18 115t51.5 86t80.5 54t105 19q57 0 103.5 -17t78.5 -48.5t49.5 -76t17.5 -100.5v-35h-333v-42q0 -65 35 -97.5t93 -32.5q54 0 87.5 24.5t47.5 58.5l58 -34q-9 -24 -26.5 -50.5t-45 -48.5t-66.5 -36t-90 -14z
M209 325h167v14q0 71 -22.5 99t-59.5 28q-38 0 -61.5 -27.5t-23.5 -99.5v-14zM243 604l72 214l137 -65l-158 -173z" />
    <glyph glyph-name="ebreve" unicode="&#x115;" horiz-adv-x="580" 
d="M302 -12q-63 0 -112.5 20.5t-83 57.5t-51 87t-17.5 110q0 64 18 115t51.5 86t80.5 54t105 19q57 0 103.5 -17t78.5 -48.5t49.5 -76t17.5 -100.5v-35h-333v-42q0 -65 35 -97.5t93 -32.5q54 0 87.5 24.5t47.5 58.5l58 -34q-9 -24 -26.5 -50.5t-45 -48.5t-66.5 -36t-90 -14z
M209 325h167v14q0 71 -22.5 99t-59.5 28q-38 0 -61.5 -27.5t-23.5 -99.5v-14zM294 580q-43 0 -74 16.5t-53 43t-37 60.5t-27 69l52 26l20 -32q11 -18 22 -31t25 -21t31.5 -12t40.5 -4t40.5 4t31.5 12t25 21t22 31l20 32l52 -26q-12 -35 -27 -69t-37 -60.5t-53 -43t-74 -16.5
z" />
    <glyph glyph-name="ecaron" unicode="&#x11b;" horiz-adv-x="580" 
d="M302 -12q-63 0 -112.5 20.5t-83 57.5t-51 87t-17.5 110q0 64 18 115t51.5 86t80.5 54t105 19q57 0 103.5 -17t78.5 -48.5t49.5 -76t17.5 -100.5v-35h-333v-42q0 -65 35 -97.5t93 -32.5q54 0 87.5 24.5t47.5 58.5l58 -34q-9 -24 -26.5 -50.5t-45 -48.5t-66.5 -36t-90 -14z
M209 325h167v14q0 71 -22.5 99t-59.5 28q-38 0 -61.5 -27.5t-23.5 -99.5v-14zM108 765l45 37l141 -104l141 104l45 -37l-138 -181h-96z" />
    <glyph glyph-name="ecircumflex" unicode="&#xea;" horiz-adv-x="580" 
d="M302 -12q-63 0 -112.5 20.5t-83 57.5t-51 87t-17.5 110q0 64 18 115t51.5 86t80.5 54t105 19q57 0 103.5 -17t78.5 -48.5t49.5 -76t17.5 -100.5v-35h-333v-42q0 -65 35 -97.5t93 -32.5q54 0 87.5 24.5t47.5 58.5l58 -34q-9 -24 -26.5 -50.5t-45 -48.5t-66.5 -36t-90 -14z
M209 325h167v14q0 71 -22.5 99t-59.5 28q-38 0 -61.5 -27.5t-23.5 -99.5v-14zM108 617l138 181h96l138 -181l-45 -37l-141 104l-141 -104z" />
    <glyph glyph-name="edieresis" unicode="&#xeb;" horiz-adv-x="580" 
d="M302 -12q-63 0 -112.5 20.5t-83 57.5t-51 87t-17.5 110q0 64 18 115t51.5 86t80.5 54t105 19q57 0 103.5 -17t78.5 -48.5t49.5 -76t17.5 -100.5v-35h-333v-42q0 -65 35 -97.5t93 -32.5q54 0 87.5 24.5t47.5 58.5l58 -34q-9 -24 -26.5 -50.5t-45 -48.5t-66.5 -36t-90 -14z
M209 325h167v14q0 71 -22.5 99t-59.5 28q-38 0 -61.5 -27.5t-23.5 -99.5v-14zM183 596q-38 0 -59 21.5t-21 54.5v4q0 33 21 54.5t59 21.5t59 -21.5t21 -54.5v-4q0 -33 -21 -54.5t-59 -21.5zM405 596q-38 0 -59 21.5t-21 54.5v4q0 33 21 54.5t59 21.5t59 -21.5t21 -54.5v-4
q0 -33 -21 -54.5t-59 -21.5z" />
    <glyph glyph-name="edotaccent" unicode="&#x117;" horiz-adv-x="580" 
d="M302 -12q-63 0 -112.5 20.5t-83 57.5t-51 87t-17.5 110q0 64 18 115t51.5 86t80.5 54t105 19q57 0 103.5 -17t78.5 -48.5t49.5 -76t17.5 -100.5v-35h-333v-42q0 -65 35 -97.5t93 -32.5q54 0 87.5 24.5t47.5 58.5l58 -34q-9 -24 -26.5 -50.5t-45 -48.5t-66.5 -36t-90 -14z
M209 325h167v14q0 71 -22.5 99t-59.5 28q-38 0 -61.5 -27.5t-23.5 -99.5v-14zM294 585q-42 0 -67 24t-25 64v3q0 40 25 64t67 24t67 -24t25 -64v-3q0 -40 -25 -64t-67 -24z" />
    <glyph glyph-name="uni1EB9" unicode="&#x1eb9;" horiz-adv-x="580" 
d="M302 -12q-63 0 -112.5 20.5t-83 57.5t-51 87t-17.5 110q0 64 18 115t51.5 86t80.5 54t105 19q57 0 103.5 -17t78.5 -48.5t49.5 -76t17.5 -100.5v-35h-333v-42q0 -65 35 -97.5t93 -32.5q54 0 87.5 24.5t47.5 58.5l58 -34q-9 -24 -26.5 -50.5t-45 -48.5t-66.5 -36t-90 -14z
M209 325h167v14q0 71 -22.5 99t-59.5 28q-38 0 -61.5 -27.5t-23.5 -99.5v-14zM299 -207q-36 0 -58 20.5t-22 55.5v3q0 35 22 55.5t58 20.5t58 -20.5t22 -55.5v-3q0 -35 -22 -55.5t-58 -20.5z" />
    <glyph glyph-name="egrave" unicode="&#xe8;" horiz-adv-x="580" 
d="M302 -12q-63 0 -112.5 20.5t-83 57.5t-51 87t-17.5 110q0 64 18 115t51.5 86t80.5 54t105 19q57 0 103.5 -17t78.5 -48.5t49.5 -76t17.5 -100.5v-35h-333v-42q0 -65 35 -97.5t93 -32.5q54 0 87.5 24.5t47.5 58.5l58 -34q-9 -24 -26.5 -50.5t-45 -48.5t-66.5 -36t-90 -14z
M209 325h167v14q0 71 -22.5 99t-59.5 28q-38 0 -61.5 -27.5t-23.5 -99.5v-14zM136 753l137 65l72 -214l-51 -24z" />
    <glyph glyph-name="uni1EBB" unicode="&#x1ebb;" horiz-adv-x="580" 
d="M302 -12q-63 0 -112.5 20.5t-83 57.5t-51 87t-17.5 110q0 64 18 115t51.5 86t80.5 54t105 19q57 0 103.5 -17t78.5 -48.5t49.5 -76t17.5 -100.5v-35h-333v-42q0 -65 35 -97.5t93 -32.5q54 0 87.5 24.5t47.5 58.5l58 -34q-9 -24 -26.5 -50.5t-45 -48.5t-66.5 -36t-90 -14z
M209 325h167v14q0 71 -22.5 99t-59.5 28q-38 0 -61.5 -27.5t-23.5 -99.5v-14zM277 593l42 107h-148v104h145q29 0 48 -6t30.5 -16.5t16.5 -23.5t5 -28q0 -30 -16 -62.5t-41 -62.5l-29 -36z" />
    <glyph glyph-name="emacron" unicode="&#x113;" horiz-adv-x="580" 
d="M302 -12q-63 0 -112.5 20.5t-83 57.5t-51 87t-17.5 110q0 64 18 115t51.5 86t80.5 54t105 19q57 0 103.5 -17t78.5 -48.5t49.5 -76t17.5 -100.5v-35h-333v-42q0 -65 35 -97.5t93 -32.5q54 0 87.5 24.5t47.5 58.5l58 -34q-9 -24 -26.5 -50.5t-45 -48.5t-66.5 -36t-90 -14z
M209 325h167v14q0 71 -22.5 99t-59.5 28q-38 0 -61.5 -27.5t-23.5 -99.5v-14zM130 721h328v-93h-328v93z" />
    <glyph glyph-name="eogonek" unicode="&#x119;" horiz-adv-x="580" 
d="M354 -212q-25 0 -47 5t-38 15.5t-25.5 27t-9.5 40.5q0 37 26.5 63t70.5 45v5q-9 -1 -15 -1h-14q-63 0 -112.5 20.5t-83 57.5t-51 87t-17.5 110q0 64 18 115t51.5 86t80.5 54t105 19q57 0 103.5 -17t78.5 -48.5t49.5 -76t17.5 -100.5v-35h-333v-42q0 -65 35 -97.5
t93 -32.5q54 0 87.5 24.5t47.5 58.5l58 -34q-11 -31 -35 -63.5t-66 -55.5q-48 -26 -70.5 -51t-22.5 -62q0 -26 12 -37.5t33 -11.5q14 0 23.5 4.5t19.5 15.5l39 -40q-17 -23 -43 -35.5t-66 -12.5zM209 325h167v14q0 71 -22.5 99t-59.5 28q-38 0 -61.5 -27.5t-23.5 -99.5v-14z
" />
    <glyph glyph-name="uni1EBD" unicode="&#x1ebd;" horiz-adv-x="580" 
d="M302 -12q-63 0 -112.5 20.5t-83 57.5t-51 87t-17.5 110q0 64 18 115t51.5 86t80.5 54t105 19q57 0 103.5 -17t78.5 -48.5t49.5 -76t17.5 -100.5v-35h-333v-42q0 -65 35 -97.5t93 -32.5q54 0 87.5 24.5t47.5 58.5l58 -34q-9 -24 -26.5 -50.5t-45 -48.5t-66.5 -36t-90 -14z
M209 325h167v14q0 71 -22.5 99t-59.5 28q-38 0 -61.5 -27.5t-23.5 -99.5v-14zM370 593q-24 0 -47.5 10t-45.5 21l-42 21t-39 10q-8 0 -14.5 -1t-13.5 -5.5t-15 -12.5t-18 -23l-40 42l25.5 41.5t27 33t31.5 21.5t38 8q24 0 47.5 -10t45.5 -21l42 -21t39 -10q8 0 14.5 1
t13.5 5.5t14.5 12.5t18.5 23l40 -42q-13 -23 -25.5 -42t-27 -32.5t-31.5 -21.5t-38 -8z" />
    <glyph glyph-name="uni1EBF" unicode="&#x1ebf;" horiz-adv-x="580" 
d="M302 -12q-63 0 -112.5 20.5t-83 57.5t-51 87t-17.5 110q0 64 18 115t51.5 86t80.5 54t105 19q57 0 103.5 -17t78.5 -48.5t49.5 -76t17.5 -100.5v-35h-333v-42q0 -65 35 -97.5t93 -32.5q54 0 87.5 24.5t47.5 58.5l58 -34q-9 -24 -26.5 -50.5t-45 -48.5t-66.5 -36t-90 -14z
M209 325h167v14q0 71 -22.5 99t-59.5 28q-38 0 -61.5 -27.5t-23.5 -99.5v-14zM112 606l134 177h94l134 -177l-44 -36l-137 110l-138 -110zM404 765l80 206l110 -58l-143 -172z" />
    <glyph glyph-name="uni1EC7" unicode="&#x1ec7;" horiz-adv-x="580" 
d="M302 -12q-63 0 -112.5 20.5t-83 57.5t-51 87t-17.5 110q0 64 18 115t51.5 86t80.5 54t105 19q57 0 103.5 -17t78.5 -48.5t49.5 -76t17.5 -100.5v-35h-333v-42q0 -65 35 -97.5t93 -32.5q54 0 87.5 24.5t47.5 58.5l58 -34q-9 -24 -26.5 -50.5t-45 -48.5t-66.5 -36t-90 -14z
M209 325h167v14q0 71 -22.5 99t-59.5 28q-38 0 -61.5 -27.5t-23.5 -99.5v-14zM108 617l138 181h96l138 -181l-45 -37l-141 104l-141 -104zM299 -207q-36 0 -58 20.5t-22 55.5v3q0 35 22 55.5t58 20.5t58 -20.5t22 -55.5v-3q0 -35 -22 -55.5t-58 -20.5z" />
    <glyph glyph-name="uni1EC1" unicode="&#x1ec1;" horiz-adv-x="580" 
d="M302 -12q-63 0 -112.5 20.5t-83 57.5t-51 87t-17.5 110q0 64 18 115t51.5 86t80.5 54t105 19q57 0 103.5 -17t78.5 -48.5t49.5 -76t17.5 -100.5v-35h-333v-42q0 -65 35 -97.5t93 -32.5q54 0 87.5 24.5t47.5 58.5l58 -34q-9 -24 -26.5 -50.5t-45 -48.5t-66.5 -36t-90 -14z
M209 325h167v14q0 71 -22.5 99t-59.5 28q-38 0 -61.5 -27.5t-23.5 -99.5v-14zM112 606l134 177h94l134 -177l-44 -36l-137 110l-138 -110zM-8 913l111 58l79 -206l-47 -24z" />
    <glyph glyph-name="uni1EC3" unicode="&#x1ec3;" horiz-adv-x="580" 
d="M302 -12q-63 0 -112.5 20.5t-83 57.5t-51 87t-17.5 110q0 64 18 115t51.5 86t80.5 54t105 19q57 0 103.5 -17t78.5 -48.5t49.5 -76t17.5 -100.5v-35h-333v-42q0 -65 35 -97.5t93 -32.5q54 0 87.5 24.5t47.5 58.5l58 -34q-9 -24 -26.5 -50.5t-45 -48.5t-66.5 -36t-90 -14z
M209 325h167v14q0 71 -22.5 99t-59.5 28q-38 0 -61.5 -27.5t-23.5 -99.5v-14zM429 744l45 110h-136v102h124q28 0 47.5 -6t30.5 -16.5t16 -23.5t5 -28q0 -30 -16 -63.5t-41 -63.5l-28 -35zM112 606l134 177h94l134 -177l-44 -36l-137 110l-138 -110z" />
    <glyph glyph-name="uni1EC5" unicode="&#x1ec5;" horiz-adv-x="580" 
d="M302 -12q-63 0 -112.5 20.5t-83 57.5t-51 87t-17.5 110q0 64 18 115t51.5 86t80.5 54t105 19q57 0 103.5 -17t78.5 -48.5t49.5 -76t17.5 -100.5v-35h-333v-42q0 -65 35 -97.5t93 -32.5q54 0 87.5 24.5t47.5 58.5l58 -34q-9 -24 -26.5 -50.5t-45 -48.5t-66.5 -36t-90 -14z
M209 325h167v14q0 71 -22.5 99t-59.5 28q-38 0 -61.5 -27.5t-23.5 -99.5v-14zM368 786q-25 0 -47 10.5l-45 21.5l-41 21t-38 10q-16 0 -27.5 -9.5t-32.5 -39.5l-39 42q24 44 51 71t68 27q25 0 47 -10.5l45 -21.5l41 -21t38 -10q16 0 27.5 9.5t32.5 39.5l39 -42
q-24 -44 -51 -71t-68 -27zM112 606l134 160h94l134 -160l-43 -36l-138 97l-138 -97z" />
    <glyph glyph-name="uni0259" unicode="&#x259;" horiz-adv-x="580" 
d="M287 -12q-57 0 -103.5 17t-78.5 48.5t-49.5 76t-17.5 100.5v35h333v42q0 65 -35 97.5t-93 32.5q-54 0 -87.5 -24.5t-47.5 -58.5l-58 34q9 24 26 50.5t45 48.5t67 36t90 14q63 0 112.5 -20.5t83 -57.5t51 -87t17.5 -110q0 -64 -18 -115t-51.5 -86t-80.5 -54t-105 -19z
M286 59q38 0 61.5 27.5t23.5 99.5v14h-167v-14q0 -71 22 -99t60 -28z" />
    <glyph glyph-name="gbreve" unicode="&#x11f;" horiz-adv-x="597" 
d="M287 -212q-77 0 -128 8t-81 22.5t-42.5 35.5t-12.5 48q0 38 33 61.5t83 30.5v4q-37 8 -59.5 33.5t-22.5 66.5q0 47 32 73t77 35v4q-52 20 -80.5 58t-28.5 95q0 42 16.5 74.5t46.5 54.5t72 33.5t94 11.5q24 0 48.5 -2.5t47.5 -9.5h197v-67h-67l-43 5v-4q21 -13 34 -38
t13 -57q0 -42 -16.5 -74.5t-46.5 -54.5t-72 -33.5t-94 -11.5q-41 0 -81 8q-14 -9 -19 -21t-5 -23q0 -20 15.5 -31t50.5 -11h118q57 0 96.5 -10.5t64 -29.5t36 -46t11.5 -59q0 -85 -70.5 -132t-216.5 -47zM286 262q73 0 73 91v22q0 47 -17.5 68.5t-54.5 21.5q-73 0 -73 -91
v-22q0 -47 17.5 -68.5t54.5 -21.5zM153 -84q0 -31 25.5 -46t83.5 -15h67q112 0 112 65q0 33 -22.5 43t-64.5 10h-174q-14 -11 -20.5 -23.5t-6.5 -33.5zM288 580q-43 0 -74 16.5t-53 43t-37 60.5t-27 69l52 26l20 -32q11 -18 22 -31t25 -21t31.5 -12t40.5 -4t40.5 4t31.5 12
t25 21t22 31l20 32l52 -26q-12 -35 -27 -69t-37 -60.5t-53 -43t-74 -16.5z" />
    <glyph glyph-name="gcircumflex" unicode="&#x11d;" horiz-adv-x="597" 
d="M287 -212q-77 0 -128 8t-81 22.5t-42.5 35.5t-12.5 48q0 38 33 61.5t83 30.5v4q-37 8 -59.5 33.5t-22.5 66.5q0 47 32 73t77 35v4q-52 20 -80.5 58t-28.5 95q0 42 16.5 74.5t46.5 54.5t72 33.5t94 11.5q24 0 48.5 -2.5t47.5 -9.5h197v-67h-67l-43 5v-4q21 -13 34 -38
t13 -57q0 -42 -16.5 -74.5t-46.5 -54.5t-72 -33.5t-94 -11.5q-41 0 -81 8q-14 -9 -19 -21t-5 -23q0 -20 15.5 -31t50.5 -11h118q57 0 96.5 -10.5t64 -29.5t36 -46t11.5 -59q0 -85 -70.5 -132t-216.5 -47zM286 262q73 0 73 91v22q0 47 -17.5 68.5t-54.5 21.5q-73 0 -73 -91
v-22q0 -47 17.5 -68.5t54.5 -21.5zM153 -84q0 -31 25.5 -46t83.5 -15h67q112 0 112 65q0 33 -22.5 43t-64.5 10h-174q-14 -11 -20.5 -23.5t-6.5 -33.5zM102 617l138 181h96l138 -181l-45 -37l-141 104l-141 -104z" />
    <glyph glyph-name="gcommaaccent" unicode="&#x123;" horiz-adv-x="597" 
d="M287 -212q-77 0 -128 8t-81 22.5t-42.5 35.5t-12.5 48q0 38 33 61.5t83 30.5v4q-37 8 -59.5 33.5t-22.5 66.5q0 47 32 73t77 35v4q-52 20 -80.5 58t-28.5 95q0 42 16.5 74.5t46.5 54.5t72 33.5t94 11.5q34 0 67 -5.5t63 -19.5q11 112 103 112q31 0 51 -17t20 -49
q0 -29 -18.5 -47t-51.5 -18q-18 0 -33.5 6t-26.5 19h-4v-28q29 -23 44.5 -53.5t15.5 -72.5t-16.5 -74.5t-46.5 -54.5t-72 -33.5t-94 -11.5q-41 0 -81 8q-14 -9 -19 -21t-5 -23q0 -20 15.5 -31t50.5 -11h118q57 0 96.5 -10.5t64 -29.5t36 -46t11.5 -59q0 -85 -70.5 -132
t-216.5 -47zM286 262q73 0 73 91v22q0 47 -17.5 68.5t-54.5 21.5q-73 0 -73 -91v-22q0 -47 17.5 -68.5t54.5 -21.5zM153 -84q0 -31 25.5 -46t83.5 -15h67q112 0 112 65q0 33 -22.5 43t-64.5 10h-174q-14 -11 -20.5 -23.5t-6.5 -33.5zM288 565q-39 0 -58 23t-19 54v9
q0 48 20 93t52 78h71q-19 -20 -35 -49t-24 -55q37 -2 53.5 -24.5t16.5 -50.5v-1q0 -32 -19.5 -54.5t-57.5 -22.5z" />
    <glyph glyph-name="gdotaccent" unicode="&#x121;" horiz-adv-x="597" 
d="M287 -212q-77 0 -128 8t-81 22.5t-42.5 35.5t-12.5 48q0 38 33 61.5t83 30.5v4q-37 8 -59.5 33.5t-22.5 66.5q0 47 32 73t77 35v4q-52 20 -80.5 58t-28.5 95q0 42 16.5 74.5t46.5 54.5t72 33.5t94 11.5q34 0 67 -5.5t63 -19.5q11 112 103 112q31 0 51 -17t20 -49
q0 -29 -18.5 -47t-51.5 -18q-18 0 -33.5 6t-26.5 19h-4v-28q29 -23 44.5 -53.5t15.5 -72.5t-16.5 -74.5t-46.5 -54.5t-72 -33.5t-94 -11.5q-41 0 -81 8q-14 -9 -19 -21t-5 -23q0 -20 15.5 -31t50.5 -11h118q57 0 96.5 -10.5t64 -29.5t36 -46t11.5 -59q0 -85 -70.5 -132
t-216.5 -47zM286 262q73 0 73 91v22q0 47 -17.5 68.5t-54.5 21.5q-73 0 -73 -91v-22q0 -47 17.5 -68.5t54.5 -21.5zM153 -84q0 -31 25.5 -46t83.5 -15h67q112 0 112 65q0 33 -22.5 43t-64.5 10h-174q-14 -11 -20.5 -23.5t-6.5 -33.5zM288 585q-42 0 -67 24t-25 64v3
q0 40 25 64t67 24t67 -24t25 -64v-3q0 -40 -25 -64t-67 -24z" />
    <glyph glyph-name="gbreve.alt01" horiz-adv-x="643" 
d="M267 -212q-98 0 -145.5 34.5t-47.5 93.5q0 32 19 52t50 20q34 0 50.5 -17t16.5 -41q0 -20 -11 -36t-25 -21v-4q18 -8 39 -10.5t43 -2.5q34 0 60.5 9t45 29t28.5 52t10 78v53h-6q-12 -31 -47.5 -54t-92.5 -23q-49 0 -88.5 19.5t-67 55t-42 85t-14.5 109.5t14.5 109
t42 84.5t67 55t88.5 19.5q60 0 100 -28.5t54 -65.5h6l73 82h75v-448q0 -75 -22.5 -129.5t-62.5 -90t-93.5 -52.5t-116.5 -17zM309 94q40 0 65.5 24.5t25.5 66.5v166q0 42 -25.5 66.5t-65.5 24.5t-68 -27.5t-28 -81.5v-130q0 -54 28 -81.5t68 -27.5zM314 580q-43 0 -74 16.5
t-53 43t-37 60.5t-27 69l52 26l20 -32q11 -18 22 -31t25 -21t31.5 -12t40.5 -4t40.5 4t31.5 12t25 21t22 31l20 32l52 -26q-12 -35 -27 -69t-37 -60.5t-53 -43t-74 -16.5z" />
    <glyph glyph-name="gcircumflex.alt01" horiz-adv-x="643" 
d="M267 -212q-98 0 -145.5 34.5t-47.5 93.5q0 32 19 52t50 20q34 0 50.5 -17t16.5 -41q0 -20 -11 -36t-25 -21v-4q18 -8 39 -10.5t43 -2.5q34 0 60.5 9t45 29t28.5 52t10 78v53h-6q-12 -31 -47.5 -54t-92.5 -23q-49 0 -88.5 19.5t-67 55t-42 85t-14.5 109.5t14.5 109
t42 84.5t67 55t88.5 19.5q60 0 100 -28.5t54 -65.5h6l73 82h75v-448q0 -75 -22.5 -129.5t-62.5 -90t-93.5 -52.5t-116.5 -17zM309 94q40 0 65.5 24.5t25.5 66.5v166q0 42 -25.5 66.5t-65.5 24.5t-68 -27.5t-28 -81.5v-130q0 -54 28 -81.5t68 -27.5zM128 617l138 181h96
l138 -181l-45 -37l-141 104l-141 -104z" />
    <glyph glyph-name="gcommaaccent.alt01" horiz-adv-x="643" 
d="M267 -212q-98 0 -145.5 34.5t-47.5 93.5q0 32 19 52t50 20q34 0 50.5 -17t16.5 -41q0 -20 -11 -36t-25 -21v-4q18 -8 39 -10.5t43 -2.5q34 0 60.5 9t45 29t28.5 52t10 78v53h-6q-12 -31 -47.5 -54t-92.5 -23q-49 0 -88.5 19.5t-67 55t-42 85t-14.5 109.5t14.5 109
t42 84.5t67 55t88.5 19.5q60 0 100 -28.5t54 -65.5h6l73 82h75v-448q0 -75 -22.5 -129.5t-62.5 -90t-93.5 -52.5t-116.5 -17zM309 94q40 0 65.5 24.5t25.5 66.5v166q0 42 -25.5 66.5t-65.5 24.5t-68 -27.5t-28 -81.5v-130q0 -54 28 -81.5t68 -27.5zM314 565q-39 0 -58 23
t-19 54v9q0 48 20 93t52 78h71q-19 -20 -35 -49t-24 -55q37 -2 53.5 -24.5t16.5 -50.5v-1q0 -32 -19.5 -54.5t-57.5 -22.5z" />
    <glyph glyph-name="gdotaccent.alt01" horiz-adv-x="643" 
d="M267 -212q-98 0 -145.5 34.5t-47.5 93.5q0 32 19 52t50 20q34 0 50.5 -17t16.5 -41q0 -20 -11 -36t-25 -21v-4q18 -8 39 -10.5t43 -2.5q34 0 60.5 9t45 29t28.5 52t10 78v53h-6q-12 -31 -47.5 -54t-92.5 -23q-49 0 -88.5 19.5t-67 55t-42 85t-14.5 109.5t14.5 109
t42 84.5t67 55t88.5 19.5q60 0 100 -28.5t54 -65.5h6l73 82h75v-448q0 -75 -22.5 -129.5t-62.5 -90t-93.5 -52.5t-116.5 -17zM309 94q40 0 65.5 24.5t25.5 66.5v166q0 42 -25.5 66.5t-65.5 24.5t-68 -27.5t-28 -81.5v-130q0 -54 28 -81.5t68 -27.5zM314 585q-42 0 -67 24
t-25 64v3q0 40 25 64t67 24t67 -24t25 -64v-3q0 -40 -25 -64t-67 -24z" />
    <glyph glyph-name="hbar" unicode="&#x127;" horiz-adv-x="669" 
d="M27 68h60v526h-70v72h70v72l162 32v-104h145v-72h-145v-153h7q14 41 50.5 68.5t97.5 27.5q97 0 137.5 -48.5t40.5 -145.5v-275h61v-68h-278v68h55v270q0 51 -17.5 72.5t-60.5 21.5q-17 0 -33.5 -4.5t-30 -13.5t-21.5 -23.5t-8 -34.5v-288h55v-68h-277v68z" />
    <glyph glyph-name="hcircumflex" unicode="&#x125;" horiz-adv-x="669" 
d="M27 68h60v585l-60 13v60l222 44v-329h7q14 41 50.5 68.5t97.5 27.5q97 0 137.5 -48.5t40.5 -145.5v-275h61v-68h-278v68h55v270q0 51 -17.5 72.5t-60.5 21.5q-17 0 -33.5 -4.5t-30 -13.5t-21.5 -23.5t-8 -34.5v-288h55v-68h-277v68zM-17 795l138 181h96l138 -181l-45 -37
l-141 104l-141 -104z" />
    <glyph glyph-name="dotlessi" unicode="&#x131;" horiz-adv-x="346" 
d="M37 68h60v352l-60 13v60l222 44v-469h60v-68h-282v68z" />
    <glyph glyph-name="iacute" unicode="&#xed;" horiz-adv-x="346" 
d="M37 68h60v352l-60 13v60l222 44v-469h60v-68h-282v68zM128 604l72 214l137 -65l-158 -173z" />
    <glyph glyph-name="ibreve" unicode="&#x12d;" horiz-adv-x="346" 
d="M37 68h60v352l-60 13v60l222 44v-469h60v-68h-282v68zM179 580q-43 0 -74 16.5t-53 43t-37 60.5t-27 69l52 26l20 -32q11 -18 22 -31t25 -21t31.5 -12t40.5 -4t40.5 4t31.5 12t25 21t22 31l20 32l52 -26q-12 -35 -27 -69t-37 -60.5t-53 -43t-74 -16.5z" />
    <glyph glyph-name="icircumflex" unicode="&#xee;" horiz-adv-x="346" 
d="M37 68h60v352l-60 13v60l222 44v-469h60v-68h-282v68zM-7 617l138 181h96l138 -181l-45 -37l-141 104l-141 -104z" />
    <glyph glyph-name="idieresis" unicode="&#xef;" horiz-adv-x="346" 
d="M37 68h60v352l-60 13v60l222 44v-469h60v-68h-282v68zM68 596q-38 0 -59 21.5t-21 54.5v4q0 33 21 54.5t59 21.5t59 -21.5t21 -54.5v-4q0 -33 -21 -54.5t-59 -21.5zM290 596q-38 0 -59 21.5t-21 54.5v4q0 33 21 54.5t59 21.5t59 -21.5t21 -54.5v-4q0 -33 -21 -54.5
t-59 -21.5z" />
    <glyph glyph-name="uni1ECB" unicode="&#x1ecb;" horiz-adv-x="345" 
d="M177 589q-44 0 -69 23.5t-25 64.5v5q0 41 25 64.5t69 23.5q45 0 70 -23.5t25 -64.5v-5q0 -41 -25 -64.5t-70 -23.5zM37 68h60v352l-60 13v60l222 44v-469h60v-68h-282v68zM178 -207q-36 0 -58 20.5t-22 55.5v3q0 35 22 55.5t58 20.5t58 -20.5t22 -55.5v-3
q0 -35 -22 -55.5t-58 -20.5z" />
    <glyph glyph-name="igrave" unicode="&#xec;" horiz-adv-x="346" 
d="M37 68h60v352l-60 13v60l222 44v-469h60v-68h-282v68zM21 753l137 65l72 -214l-51 -24z" />
    <glyph glyph-name="uni1EC9" unicode="&#x1ec9;" horiz-adv-x="346" 
d="M37 68h60v352l-60 13v60l222 44v-469h60v-68h-282v68zM162 593l42 107h-148v104h145q29 0 48 -6t30.5 -16.5t16.5 -23.5t5 -28q0 -30 -16 -62.5t-41 -62.5l-29 -36z" />
    <glyph glyph-name="imacron" unicode="&#x12b;" horiz-adv-x="346" 
d="M37 68h60v352l-60 13v60l222 44v-469h60v-68h-282v68zM15 721h328v-93h-328v93z" />
    <glyph glyph-name="iogonek" unicode="&#x12f;" horiz-adv-x="346" 
d="M240 -212q-25 0 -47 5t-38 15.5t-25 27t-9 40.5q0 42 37 72t95 48l-1 4h-215v68h60v352l-60 13v60l222 44v-469h60v-68q-32 -18 -51 -32.5t-29 -27t-13.5 -22.5t-3.5 -19q0 -21 12 -32t33 -11q14 0 23.5 4.5t19.5 15.5l39 -40q-17 -23 -42.5 -35.5t-66.5 -12.5zM177 589
q-44 0 -69 23t-25 64v6q0 41 25 64.5t69 23.5q45 0 70 -23.5t25 -64.5v-6q0 -41 -25 -64t-70 -23z" />
    <glyph glyph-name="itilde" unicode="&#x129;" horiz-adv-x="346" 
d="M37 68h60v352l-60 13v60l222 44v-469h60v-68h-282v68zM255 593q-24 0 -47.5 10t-45.5 21l-42 21t-39 10q-8 0 -14.5 -1t-13.5 -5.5t-15 -12.5t-18 -23l-40 42l25.5 41.5t27 33t31.5 21.5t38 8q24 0 47.5 -10t45.5 -21l42 -21t39 -10q8 0 14.5 1t13.5 5.5t14.5 12.5
t18.5 23l40 -42q-13 -23 -25.5 -42t-27 -32.5t-31.5 -21.5t-38 -8z" />
    <glyph glyph-name="ij" unicode="&#x133;" horiz-adv-x="684" 
d="M177 589q-44 0 -69 23.5t-25 64.5v5q0 41 25 64.5t69 23.5q45 0 70 -23.5t25 -64.5v-5q0 -41 -25 -64.5t-70 -23.5zM37 68h60v352l-60 13v60l222 44v-469h60v-68h-282v68zM375 -212q-62 0 -93 24t-31 66q0 31 19.5 51.5t51.5 20.5q33 0 49.5 -19t16.5 -45q0 -33 -18 -46
v-4q5 -1 8.5 -1h7.5q26 0 41 24t15 79v482l-60 13v60l222 44v-529q0 -114 -59 -167t-170 -53zM522 589q-44 0 -69 23.5t-25 64.5v5q0 41 25 64.5t69 23.5q45 0 70 -23.5t25 -64.5v-5q0 -41 -25 -64.5t-70 -23.5z" />
    <glyph glyph-name="ijacute" horiz-adv-x="685" 
d="M37 68h60v352l-60 13v60l222 44v-469h60v-68h-282v68zM128 604l72 214l137 -65l-158 -173zM376 -212q-62 0 -93 24t-31 66q0 31 19.5 51.5t51.5 20.5q33 0 49.5 -19t16.5 -45q0 -33 -18 -46v-4q5 -1 8.5 -1h7.5q26 0 41 24t15 79v482l-60 13v60l222 44v-529
q0 -114 -59 -167t-170 -53zM473 604l72 214l137 -65l-158 -173z" />
    <glyph glyph-name="uni0237" unicode="&#x237;" horiz-adv-x="339" 
d="M30 -212q-62 0 -93 24t-31 66q0 31 19.5 51.5t51.5 20.5q33 0 49.5 -19t16.5 -45q0 -33 -18 -46v-4q5 -1 8.5 -1h7.5q26 0 41 24t15 79v482l-60 13v60l222 44v-529q0 -114 -59 -167t-170 -53z" />
    <glyph glyph-name="jacute" horiz-adv-x="339" 
d="M30 -212q-62 0 -93 24t-31 66q0 31 19.5 51.5t51.5 20.5q33 0 49.5 -19t16.5 -45q0 -33 -18 -46v-4q5 -1 8.5 -1h7.5q26 0 41 24t15 79v482l-60 13v60l222 44v-529q0 -114 -59 -167t-170 -53zM128 604l72 214l137 -65l-158 -173z" />
    <glyph glyph-name="jcircumflex" unicode="&#x135;" horiz-adv-x="339" 
d="M30 -212q-62 0 -93 24t-31 66q0 31 19.5 51.5t51.5 20.5q33 0 49.5 -19t16.5 -45q0 -33 -18 -46v-4q5 -1 8.5 -1h7.5q26 0 41 24t15 79v482l-60 13v60l222 44v-529q0 -114 -59 -167t-170 -53zM-7 617l138 181h96l138 -181l-45 -37l-141 104l-141 -104z" />
    <glyph glyph-name="kcommaaccent" unicode="&#x137;" horiz-adv-x="639" 
d="M27 68h60v585l-60 13v60l222 44v-503h6l57 67l122 123h-61v68h231v-68h-71l-114 -110l171 -279h45v-68h-269v68h40l-95 183l-62 -65v-118h55v-68h-277v68zM268 -290q19 20 35 49t24 55q-37 2 -53.5 25t-16.5 50v1q0 32 19.5 54.5t57.5 22.5q39 0 58 -22.5t19 -54.5v-9
q0 -48 -20 -93t-52 -78h-71v0z" />
    <glyph glyph-name="kgreenlandic" unicode="&#x138;" horiz-adv-x="648" 
d="M37 68h60v352l-60 13v60l222 44v-270h6l57 67l122 123h-61v68h231v-68h-71l-114 -110l171 -279h45v-68h-269v68h40l-95 183l-62 -65v-118h55v-68h-277v68z" />
    <glyph glyph-name="lacute" unicode="&#x13a;" horiz-adv-x="336" 
d="M27 68h60v585l-60 13v60l222 44v-702h60v-68h-282v68zM118 804l72 214l137 -65l-158 -173z" />
    <glyph glyph-name="lcaron" unicode="&#x13e;" horiz-adv-x="336" 
d="M27 68h60v585l-60 13v60l222 44v-702h60v-68h-282v68zM316 758h140l-89 -217h-56z" />
    <glyph glyph-name="lcommaaccent" unicode="&#x13c;" horiz-adv-x="336" 
d="M27 68h60v585l-60 13v60l222 44v-702h60v-68h-282v68zM102 -290q19 20 35 49t24 55q-37 2 -53.5 25t-16.5 50v1q0 32 19.5 54.5t57.5 22.5q39 0 58 -22.5t19 -54.5v-9q0 -48 -20 -93t-52 -78h-71v0z" />
    <glyph glyph-name="ldot" unicode="&#x140;" horiz-adv-x="458" 
d="M27 68h60v585l-60 13v60l222 44v-702h60v-68h-282v68zM397 257q-42 0 -67 24t-25 64v3q0 40 25 64t67 24t67 -24t25 -64v-3q0 -40 -25 -64t-67 -24z" />
    <glyph glyph-name="lslash" unicode="&#x142;" horiz-adv-x="346" 
d="M32 68h60v245l-86 -28v64l86 28v276l-60 13v60l222 44v-341l85 28v-64l-85 -28v-297h60v-68h-282v68z" />
    <glyph glyph-name="nacute" unicode="&#x144;" horiz-adv-x="679" 
d="M37 68h60v352l-60 13v60l219 44v-100h6q7 20 19.5 38.5t31 32t43.5 21.5t58 8q97 0 137.5 -48.5t40.5 -145.5v-275h60v-68h-277v68h55v270q0 51 -18 72.5t-60 21.5q-17 0 -34 -4.5t-30 -13.5t-21 -23.5t-8 -34.5v-288h55v-68h-277v68zM297 604l72 214l137 -65l-158 -173z
" />
    <glyph glyph-name="ncaron" unicode="&#x148;" horiz-adv-x="679" 
d="M37 68h60v352l-60 13v60l219 44v-100h6q7 20 19.5 38.5t31 32t43.5 21.5t58 8q97 0 137.5 -48.5t40.5 -145.5v-275h60v-68h-277v68h55v270q0 51 -18 72.5t-60 21.5q-17 0 -34 -4.5t-30 -13.5t-21 -23.5t-8 -34.5v-288h55v-68h-277v68zM162 765l45 37l141 -104l141 104
l45 -37l-138 -181h-96z" />
    <glyph glyph-name="ncommaaccent" unicode="&#x146;" horiz-adv-x="679" 
d="M37 68h60v352l-60 13v60l219 44v-100h6q7 20 19.5 38.5t31 32t43.5 21.5t58 8q97 0 137.5 -48.5t40.5 -145.5v-275h60v-68h-277v68h55v270q0 51 -18 72.5t-60 21.5q-17 0 -34 -4.5t-30 -13.5t-21 -23.5t-8 -34.5v-288h55v-68h-277v68zM279 -290q19 20 35 49t24 55
q-37 2 -53.5 25t-16.5 50v1q0 32 19.5 54.5t57.5 22.5q39 0 58 -22.5t19 -54.5v-9q0 -48 -20 -93t-52 -78h-71v0z" />
    <glyph glyph-name="ntilde" unicode="&#xf1;" horiz-adv-x="679" 
d="M37 68h60v352l-60 13v60l219 44v-100h6q7 20 19.5 38.5t31 32t43.5 21.5t58 8q97 0 137.5 -48.5t40.5 -145.5v-275h60v-68h-277v68h55v270q0 51 -18 72.5t-60 21.5q-17 0 -34 -4.5t-30 -13.5t-21 -23.5t-8 -34.5v-288h55v-68h-277v68zM424 593q-24 0 -47.5 10t-45.5 21
l-42 21t-39 10q-8 0 -14.5 -1t-13.5 -5.5t-15 -12.5t-18 -23l-40 42l25.5 41.5t27 33t31.5 21.5t38 8q24 0 47.5 -10t45.5 -21l42 -21t39 -10q8 0 14.5 1t13.5 5.5t14.5 12.5t18.5 23l40 -42q-13 -23 -25.5 -42t-27 -32.5t-31.5 -21.5t-38 -8z" />
    <glyph glyph-name="napostrophe" unicode="&#x149;" horiz-adv-x="928" 
d="M36 440q34 26 58.5 60.5t34.5 65.5h-4q-20 0 -34.5 7t-24.5 18.5t-15 25.5t-5 28v4q0 38 24 64.5t69 26.5q47 0 70 -27.5t23 -65.5v-12q0 -27 -8 -53.5t-22 -51.5t-32.5 -48t-38.5 -42h-95v0zM286 68h60v352l-60 13v60l219 44v-100h6q7 20 19.5 38.5t31 32t43.5 21.5
t58 8q97 0 137.5 -48.5t40.5 -145.5v-275h60v-68h-277v68h55v270q0 51 -18 72.5t-60 21.5q-17 0 -34 -4.5t-30 -13.5t-21 -23.5t-8 -34.5v-288h55v-68h-277v68z" />
    <glyph glyph-name="eng" unicode="&#x14b;" horiz-adv-x="679" 
d="M363 -212q-62 0 -93 24t-31 66q0 31 19.5 51.5t51.5 20.5q33 0 49.5 -19t16.5 -45q0 -33 -18 -46v-4q5 -1 8.5 -1h7.5q26 0 41 24t15 79v400q0 51 -18 72.5t-60 21.5q-17 0 -34 -4.5t-30 -13.5t-21 -23.5t-8 -34.5v-288h55v-68h-277v68h60v352l-60 13v60l219 44v-100h6
q7 20 19.5 38.5t31 32t43.5 21.5t58 8q97 0 137.5 -48.5t40.5 -145.5v-335q0 -114 -59 -167t-170 -53z" />
    <glyph glyph-name="oacute" unicode="&#xf3;" horiz-adv-x="596" 
d="M298 62q43 0 66 26t23 79v191q0 53 -23 79t-66 26t-66 -26t-23 -79v-191q0 -53 23 -79t66 -26zM298 -12q-59 0 -106.5 18.5t-82 53.5t-53 86t-18.5 116q0 66 18.5 117t53 86t82 53.5t106.5 18.5q58 0 106 -18.5t82.5 -53.5t53 -86t18.5 -116q0 -66 -18.5 -117t-53 -86
t-82.5 -53.5t-106 -18.5zM248 604l72 214l137 -65l-158 -173z" />
    <glyph glyph-name="obreve" unicode="&#x14f;" horiz-adv-x="596" 
d="M298 62q43 0 66 26t23 79v191q0 53 -23 79t-66 26t-66 -26t-23 -79v-191q0 -53 23 -79t66 -26zM298 -12q-59 0 -106.5 18.5t-82 53.5t-53 86t-18.5 116q0 66 18.5 117t53 86t82 53.5t106.5 18.5q58 0 106 -18.5t82.5 -53.5t53 -86t18.5 -116q0 -66 -18.5 -117t-53 -86
t-82.5 -53.5t-106 -18.5zM299 580q-43 0 -74 16.5t-53 43t-37 60.5t-27 69l52 26l20 -32q11 -18 22 -31t25 -21t31.5 -12t40.5 -4t40.5 4t31.5 12t25 21t22 31l20 32l52 -26q-12 -35 -27 -69t-37 -60.5t-53 -43t-74 -16.5z" />
    <glyph glyph-name="ocircumflex" unicode="&#xf4;" horiz-adv-x="596" 
d="M298 62q43 0 66 26t23 79v191q0 53 -23 79t-66 26t-66 -26t-23 -79v-191q0 -53 23 -79t66 -26zM298 -12q-59 0 -106.5 18.5t-82 53.5t-53 86t-18.5 116q0 66 18.5 117t53 86t82 53.5t106.5 18.5q58 0 106 -18.5t82.5 -53.5t53 -86t18.5 -116q0 -66 -18.5 -117t-53 -86
t-82.5 -53.5t-106 -18.5zM113 617l138 181h96l138 -181l-45 -37l-141 104l-141 -104z" />
    <glyph glyph-name="odieresis" unicode="&#xf6;" horiz-adv-x="596" 
d="M298 62q43 0 66 26t23 79v191q0 53 -23 79t-66 26t-66 -26t-23 -79v-191q0 -53 23 -79t66 -26zM298 -12q-59 0 -106.5 18.5t-82 53.5t-53 86t-18.5 116q0 66 18.5 117t53 86t82 53.5t106.5 18.5q58 0 106 -18.5t82.5 -53.5t53 -86t18.5 -116q0 -66 -18.5 -117t-53 -86
t-82.5 -53.5t-106 -18.5zM188 596q-38 0 -59 21.5t-21 54.5v4q0 33 21 54.5t59 21.5t59 -21.5t21 -54.5v-4q0 -33 -21 -54.5t-59 -21.5zM410 596q-38 0 -59 21.5t-21 54.5v4q0 33 21 54.5t59 21.5t59 -21.5t21 -54.5v-4q0 -33 -21 -54.5t-59 -21.5z" />
    <glyph glyph-name="uni1ECD" unicode="&#x1ecd;" horiz-adv-x="596" 
d="M298 62q43 0 66 26t23 79v191q0 53 -23 79t-66 26t-66 -26t-23 -79v-191q0 -53 23 -79t66 -26zM298 -12q-59 0 -106.5 18.5t-82 53.5t-53 86t-18.5 116q0 66 18.5 117t53 86t82 53.5t106.5 18.5q58 0 106 -18.5t82.5 -53.5t53 -86t18.5 -116q0 -66 -18.5 -117t-53 -86
t-82.5 -53.5t-106 -18.5zM298 -207q-36 0 -58 20.5t-22 55.5v3q0 35 22 55.5t58 20.5t58 -20.5t22 -55.5v-3q0 -35 -22 -55.5t-58 -20.5z" />
    <glyph glyph-name="ograve" unicode="&#xf2;" horiz-adv-x="596" 
d="M298 62q43 0 66 26t23 79v191q0 53 -23 79t-66 26t-66 -26t-23 -79v-191q0 -53 23 -79t66 -26zM298 -12q-59 0 -106.5 18.5t-82 53.5t-53 86t-18.5 116q0 66 18.5 117t53 86t82 53.5t106.5 18.5q58 0 106 -18.5t82.5 -53.5t53 -86t18.5 -116q0 -66 -18.5 -117t-53 -86
t-82.5 -53.5t-106 -18.5zM141 753l137 65l72 -214l-51 -24z" />
    <glyph glyph-name="uni1ECF" unicode="&#x1ecf;" horiz-adv-x="596" 
d="M298 62q43 0 66 26t23 79v191q0 53 -23 79t-66 26t-66 -26t-23 -79v-191q0 -53 23 -79t66 -26zM298 -12q-59 0 -106.5 18.5t-82 53.5t-53 86t-18.5 116q0 66 18.5 117t53 86t82 53.5t106.5 18.5q58 0 106 -18.5t82.5 -53.5t53 -86t18.5 -116q0 -66 -18.5 -117t-53 -86
t-82.5 -53.5t-106 -18.5zM282 593l42 107h-148v104h145q29 0 48 -6t30.5 -16.5t16.5 -23.5t5 -28q0 -30 -16 -62.5t-41 -62.5l-29 -36z" />
    <glyph glyph-name="ohungarumlaut" unicode="&#x151;" horiz-adv-x="596" 
d="M298 62q43 0 66 26t23 79v191q0 53 -23 79t-66 26t-66 -26t-23 -79v-191q0 -53 23 -79t66 -26zM298 -12q-59 0 -106.5 18.5t-82 53.5t-53 86t-18.5 116q0 66 18.5 117t53 86t82 53.5t106.5 18.5q58 0 106 -18.5t82.5 -53.5t53 -86t18.5 -116q0 -66 -18.5 -117t-53 -86
t-82.5 -53.5t-106 -18.5zM147 604l79 214l117 -61l-146 -177zM349 604l79 214l117 -61l-146 -177z" />
    <glyph glyph-name="omacron" unicode="&#x14d;" horiz-adv-x="596" 
d="M298 62q43 0 66 26t23 79v191q0 53 -23 79t-66 26t-66 -26t-23 -79v-191q0 -53 23 -79t66 -26zM298 -12q-59 0 -106.5 18.5t-82 53.5t-53 86t-18.5 116q0 66 18.5 117t53 86t82 53.5t106.5 18.5q58 0 106 -18.5t82.5 -53.5t53 -86t18.5 -116q0 -66 -18.5 -117t-53 -86
t-82.5 -53.5t-106 -18.5zM135 721h328v-93h-328v93z" />
    <glyph glyph-name="oslash" unicode="&#xf8;" horiz-adv-x="596" 
d="M44 3l54 69q-29 35 -44.5 82.5t-15.5 107.5q0 66 18.5 117t53 86t82 53.5t106.5 18.5q42 0 78 -9.5t66 -26.5l52 65l58 -44l-54 -69q29 -35 44.5 -82.5t15.5 -107.5q0 -66 -18.5 -117t-53 -86t-82.5 -53.5t-106 -18.5q-42 0 -78 9.5t-66 26.5l-52 -65zM197 192l185 231
q-28 42 -84 42q-45 0 -73 -27.5t-28 -79.5v-166zM298 60q45 0 73 27.5t28 79.5v166l-185 -231q28 -42 84 -42z" />
    <glyph glyph-name="oslashacute" unicode="&#x1ff;" horiz-adv-x="596" 
d="M44 3l54 69q-29 35 -44.5 82.5t-15.5 107.5q0 66 18.5 117t53 86t82 53.5t106.5 18.5q42 0 78 -9.5t66 -26.5l52 65l58 -44l-54 -69q29 -35 44.5 -82.5t15.5 -107.5q0 -66 -18.5 -117t-53 -86t-82.5 -53.5t-106 -18.5q-42 0 -78 9.5t-66 26.5l-52 -65zM197 192l185 231
q-28 42 -84 42q-45 0 -73 -27.5t-28 -79.5v-166zM298 60q45 0 73 27.5t28 79.5v166l-185 -231q28 -42 84 -42zM248 604l72 214l137 -65l-158 -173z" />
    <glyph glyph-name="otilde" unicode="&#xf5;" horiz-adv-x="596" 
d="M298 62q43 0 66 26t23 79v191q0 53 -23 79t-66 26t-66 -26t-23 -79v-191q0 -53 23 -79t66 -26zM298 -12q-59 0 -106.5 18.5t-82 53.5t-53 86t-18.5 116q0 66 18.5 117t53 86t82 53.5t106.5 18.5q58 0 106 -18.5t82.5 -53.5t53 -86t18.5 -116q0 -66 -18.5 -117t-53 -86
t-82.5 -53.5t-106 -18.5zM375 593q-24 0 -47.5 10t-45.5 21l-42 21t-39 10q-8 0 -14.5 -1t-13.5 -5.5t-15 -12.5t-18 -23l-40 42l25.5 41.5t27 33t31.5 21.5t38 8q24 0 47.5 -10t45.5 -21l42 -21t39 -10q8 0 14.5 1t13.5 5.5t14.5 12.5t18.5 23l40 -42q-13 -23 -25.5 -42
t-27 -32.5t-31.5 -21.5t-38 -8z" />
    <glyph glyph-name="ohorn" unicode="&#x1a1;" horiz-adv-x="596" 
d="M298 -12q-59 0 -106.5 18.5t-82 53.5t-53 86t-18.5 116q0 66 18.5 117t53 86t82 53.5t106.5 18.5q49 0 87 -12h79v106h126v-63q0 -93 -92 -93h-21q81 -77 81 -212q0 -66 -18.5 -117t-53 -86t-82.5 -53.5t-106 -18.5zM298 62q43 0 66 26t23 79v191q0 53 -23 79t-66 26
t-66 -26t-23 -79v-191q0 -53 23 -79t66 -26z" />
    <glyph glyph-name="uni1EDB" unicode="&#x1edb;" horiz-adv-x="596" 
d="M298 -12q-59 0 -106.5 18.5t-82 53.5t-53 86t-18.5 116q0 66 18.5 117t53 86t82 53.5t106.5 18.5q49 0 87 -12h79v106h126v-63q0 -93 -92 -93h-21q81 -77 81 -212q0 -66 -18.5 -117t-53 -86t-82.5 -53.5t-106 -18.5zM298 62q43 0 66 26t23 79v191q0 53 -23 79t-66 26
t-66 -26t-23 -79v-191q0 -53 23 -79t66 -26zM248 604l72 214l137 -65l-158 -173z" />
    <glyph glyph-name="uni1EE3" unicode="&#x1ee3;" horiz-adv-x="596" 
d="M298 -12q-59 0 -106.5 18.5t-82 53.5t-53 86t-18.5 116q0 66 18.5 117t53 86t82 53.5t106.5 18.5q49 0 87 -12h79v106h126v-63q0 -93 -92 -93h-21q81 -77 81 -212q0 -66 -18.5 -117t-53 -86t-82.5 -53.5t-106 -18.5zM298 62q43 0 66 26t23 79v191q0 53 -23 79t-66 26
t-66 -26t-23 -79v-191q0 -53 23 -79t66 -26zM298 -207q-36 0 -58 20.5t-22 55.5v3q0 35 22 55.5t58 20.5t58 -20.5t22 -55.5v-3q0 -35 -22 -55.5t-58 -20.5z" />
    <glyph glyph-name="uni1EDD" unicode="&#x1edd;" horiz-adv-x="596" 
d="M298 -12q-59 0 -106.5 18.5t-82 53.5t-53 86t-18.5 116q0 66 18.5 117t53 86t82 53.5t106.5 18.5q49 0 87 -12h79v106h126v-63q0 -93 -92 -93h-21q81 -77 81 -212q0 -66 -18.5 -117t-53 -86t-82.5 -53.5t-106 -18.5zM298 62q43 0 66 26t23 79v191q0 53 -23 79t-66 26
t-66 -26t-23 -79v-191q0 -53 23 -79t66 -26zM141 753l137 65l72 -214l-51 -24z" />
    <glyph glyph-name="uni1EDF" unicode="&#x1edf;" horiz-adv-x="596" 
d="M298 -12q-59 0 -106.5 18.5t-82 53.5t-53 86t-18.5 116q0 66 18.5 117t53 86t82 53.5t106.5 18.5q49 0 87 -12h79v106h126v-63q0 -93 -92 -93h-21q81 -77 81 -212q0 -66 -18.5 -117t-53 -86t-82.5 -53.5t-106 -18.5zM298 62q43 0 66 26t23 79v191q0 53 -23 79t-66 26
t-66 -26t-23 -79v-191q0 -53 23 -79t66 -26zM282 593l42 107h-148v104h145q29 0 48 -6t30.5 -16.5t16.5 -23.5t5 -28q0 -30 -16 -62.5t-41 -62.5l-29 -36z" />
    <glyph glyph-name="uni1EE1" unicode="&#x1ee1;" horiz-adv-x="596" 
d="M298 -12q-59 0 -106.5 18.5t-82 53.5t-53 86t-18.5 116q0 66 18.5 117t53 86t82 53.5t106.5 18.5q49 0 87 -12h79v106h126v-63q0 -93 -92 -93h-21q81 -77 81 -212q0 -66 -18.5 -117t-53 -86t-82.5 -53.5t-106 -18.5zM298 62q43 0 66 26t23 79v191q0 53 -23 79t-66 26
t-66 -26t-23 -79v-191q0 -53 23 -79t66 -26zM365 593q-22 0 -42.5 10.5l-40.5 20.5t-37 20.5t-34 10.5q-15 0 -27 -5.5t-32 -32.5l-40 42q25 44 51.5 72t68.5 28q22 0 42.5 -10.5l40.5 -20.5t37 -20.5t34 -10.5q7 0 13.5 1t13.5 4.5t14.5 11t17.5 21.5l40 -42
q-25 -44 -51.5 -72t-68.5 -28z" />
    <glyph glyph-name="uni1ED1" unicode="&#x1ed1;" horiz-adv-x="596" 
d="M298 62q43 0 66 26t23 79v191q0 53 -23 79t-66 26t-66 -26t-23 -79v-191q0 -53 23 -79t66 -26zM298 -12q-59 0 -106.5 18.5t-82 53.5t-53 86t-18.5 116q0 66 18.5 117t53 86t82 53.5t106.5 18.5q58 0 106 -18.5t82.5 -53.5t53 -86t18.5 -116q0 -66 -18.5 -117t-53 -86
t-82.5 -53.5t-106 -18.5zM117 606l134 177h94l134 -177l-44 -36l-137 110l-138 -110zM409 765l80 206l110 -58l-143 -172z" />
    <glyph glyph-name="uni1ED9" unicode="&#x1ed9;" horiz-adv-x="596" 
d="M298 62q43 0 66 26t23 79v191q0 53 -23 79t-66 26t-66 -26t-23 -79v-191q0 -53 23 -79t66 -26zM298 -12q-59 0 -106.5 18.5t-82 53.5t-53 86t-18.5 116q0 66 18.5 117t53 86t82 53.5t106.5 18.5q58 0 106 -18.5t82.5 -53.5t53 -86t18.5 -116q0 -66 -18.5 -117t-53 -86
t-82.5 -53.5t-106 -18.5zM113 617l138 181h96l138 -181l-45 -37l-141 104l-141 -104zM298 -207q-36 0 -58 20.5t-22 55.5v3q0 35 22 55.5t58 20.5t58 -20.5t22 -55.5v-3q0 -35 -22 -55.5t-58 -20.5z" />
    <glyph glyph-name="uni1ED3" unicode="&#x1ed3;" horiz-adv-x="596" 
d="M298 62q43 0 66 26t23 79v191q0 53 -23 79t-66 26t-66 -26t-23 -79v-191q0 -53 23 -79t66 -26zM298 -12q-59 0 -106.5 18.5t-82 53.5t-53 86t-18.5 116q0 66 18.5 117t53 86t82 53.5t106.5 18.5q58 0 106 -18.5t82.5 -53.5t53 -86t18.5 -116q0 -66 -18.5 -117t-53 -86
t-82.5 -53.5t-106 -18.5zM117 606l134 177h94l134 -177l-44 -36l-137 110l-138 -110zM-3 913l111 58l79 -206l-47 -24z" />
    <glyph glyph-name="uni1ED5" unicode="&#x1ed5;" horiz-adv-x="596" 
d="M298 62q43 0 66 26t23 79v191q0 53 -23 79t-66 26t-66 -26t-23 -79v-191q0 -53 23 -79t66 -26zM298 -12q-59 0 -106.5 18.5t-82 53.5t-53 86t-18.5 116q0 66 18.5 117t53 86t82 53.5t106.5 18.5q58 0 106 -18.5t82.5 -53.5t53 -86t18.5 -116q0 -66 -18.5 -117t-53 -86
t-82.5 -53.5t-106 -18.5zM434 744l45 110h-136v102h124q28 0 47.5 -6t30.5 -16.5t16 -23.5t5 -28q0 -30 -16 -63.5t-41 -63.5l-28 -35zM117 606l134 177h94l134 -177l-44 -36l-137 110l-138 -110z" />
    <glyph glyph-name="uni1ED7" unicode="&#x1ed7;" horiz-adv-x="596" 
d="M298 62q43 0 66 26t23 79v191q0 53 -23 79t-66 26t-66 -26t-23 -79v-191q0 -53 23 -79t66 -26zM298 -12q-59 0 -106.5 18.5t-82 53.5t-53 86t-18.5 116q0 66 18.5 117t53 86t82 53.5t106.5 18.5q58 0 106 -18.5t82.5 -53.5t53 -86t18.5 -116q0 -66 -18.5 -117t-53 -86
t-82.5 -53.5t-106 -18.5zM373 786q-25 0 -47 10.5l-45 21.5l-41 21t-38 10q-16 0 -27.5 -9.5t-32.5 -39.5l-39 42q24 44 51 71t68 27q25 0 47 -10.5l45 -21.5l41 -21t38 -10q16 0 27.5 9.5t32.5 39.5l39 -42q-24 -44 -51 -71t-68 -27zM117 606l134 160h94l134 -160l-43 -36
l-138 97l-138 -97z" />
    <glyph glyph-name="oe" unicode="&#x153;" horiz-adv-x="938" 
d="M297 -12q-58 0 -106 18.5t-82 53.5t-52.5 86.5t-18.5 116.5q0 66 18.5 117t52.5 86t82 53t106 18q21 0 45.5 -3.5t48 -11.5t44.5 -20.5t35 -29.5h6q16 17 37.5 29.5t44.5 20.5t47 11.5t46 3.5q57 0 103.5 -17t78.5 -48.5t49.5 -76t17.5 -100.5v-35h-333v-58
q0 -63 35 -92.5t93 -29.5q54 0 87 26.5t48 64.5l58 -34q-9 -24 -26.5 -50.5t-45 -48.5t-66.5 -36t-90 -14t-98.5 16t-84.5 51h-6q-38 -34 -83 -50.5t-91 -16.5zM298 62q42 0 65 26t23 79v191q0 53 -23 79t-66 26q-42 0 -65 -26t-23 -79v-191q0 -53 23 -79t66 -26zM567 323
h167v16q0 71 -22.5 99t-59.5 28q-38 0 -61.5 -27.5t-23.5 -99.5v-16z" />
    <glyph glyph-name="racute" unicode="&#x155;" horiz-adv-x="508" 
d="M37 68h60v352l-60 13v60l219 44v-98h4q14 42 46 70t83 28t79 -27t28 -73q0 -42 -21.5 -65t-62.5 -23q-38 0 -57.5 19.5t-19.5 47.5q0 11 5 20.5t12 12.5l-2 6q-2 1 -7 1q-15 0 -30 -9t-27 -23t-19.5 -30.5t-7.5 -32.5v-293h80v-68h-302v68zM245 604l72 214l137 -65
l-158 -173z" />
    <glyph glyph-name="rcaron" unicode="&#x159;" horiz-adv-x="508" 
d="M37 68h60v352l-60 13v60l219 44v-98h4q14 42 46 70t83 28t79 -27t28 -73q0 -42 -21.5 -65t-62.5 -23q-38 0 -57.5 19.5t-19.5 47.5q0 11 5 20.5t12 12.5l-2 6q-2 1 -7 1q-15 0 -30 -9t-27 -23t-19.5 -30.5t-7.5 -32.5v-293h80v-68h-302v68zM110 765l45 37l141 -104
l141 104l45 -37l-138 -181h-96z" />
    <glyph glyph-name="rcommaaccent" unicode="&#x157;" horiz-adv-x="508" 
d="M37 68h60v352l-60 13v60l219 44v-98h4q14 42 46 70t83 28t79 -27t28 -73q0 -42 -21.5 -65t-62.5 -23q-38 0 -57.5 19.5t-19.5 47.5q0 11 5 20.5t12 12.5l-2 6q-2 1 -7 1q-15 0 -30 -9t-27 -23t-19.5 -30.5t-7.5 -32.5v-293h80v-68h-302v68zM118 -290q19 20 35 49t24 55
q-37 2 -53.5 25t-16.5 50v1q0 32 19.5 54.5t57.5 22.5q39 0 58 -22.5t19 -54.5v-9q0 -48 -20 -93t-52 -78h-71v0z" />
    <glyph glyph-name="sacute" unicode="&#x15b;" horiz-adv-x="522" 
d="M272 -12q-58 0 -87.5 20.5t-36.5 45.5h-4v-54h-103v156h103v-16q0 -38 24.5 -57.5t79.5 -19.5q49 0 70.5 15t21.5 44q0 24 -16 37.5t-54 23.5l-47 12q-91 23 -133 64.5t-42 110.5q0 80 53.5 123.5t140.5 43.5q55 0 84 -20.5t36 -45.5h4v54h103v-156h-103v16
q0 38 -24 57.5t-78 19.5q-37 0 -55.5 -14t-18.5 -39q0 -26 15 -40.5t57 -25.5l43 -11q43 -11 76 -25t55.5 -34t33.5 -47.5t11 -66.5q0 -42 -15 -74t-43 -53.5t-66.5 -32.5t-84.5 -11zM193 604l72 214l137 -65l-158 -173z" />
    <glyph glyph-name="scaron" unicode="&#x161;" horiz-adv-x="522" 
d="M272 -12q-58 0 -87.5 20.5t-36.5 45.5h-4v-54h-103v156h103v-16q0 -38 24.5 -57.5t79.5 -19.5q49 0 70.5 15t21.5 44q0 24 -16 37.5t-54 23.5l-47 12q-91 23 -133 64.5t-42 110.5q0 80 53.5 123.5t140.5 43.5q55 0 84 -20.5t36 -45.5h4v54h103v-156h-103v16
q0 38 -24 57.5t-78 19.5q-37 0 -55.5 -14t-18.5 -39q0 -26 15 -40.5t57 -25.5l43 -11q43 -11 76 -25t55.5 -34t33.5 -47.5t11 -66.5q0 -42 -15 -74t-43 -53.5t-66.5 -32.5t-84.5 -11zM58 765l45 37l141 -104l141 104l45 -37l-138 -181h-96z" />
    <glyph glyph-name="scedilla" unicode="&#x15f;" horiz-adv-x="522" 
d="M270 -212q-48 0 -76 15t-40 29l35 43q10 -12 25 -20.5t35 -8.5q21 0 33.5 9t12.5 29q0 11 -11 23.5t-48 16.5l-21 2l14 66q-37 8 -56.5 25t-24.5 37h-4v-54h-103v156h103v-16q0 -38 24.5 -57.5t79.5 -19.5q49 0 70.5 15t21.5 44q0 24 -16 37.5t-54 23.5l-47 12
q-91 23 -133 64.5t-42 110.5q0 80 53.5 123.5t140.5 43.5q55 0 84 -20.5t36 -45.5h4v54h103v-156h-103v16q0 38 -24 57.5t-78 19.5q-37 0 -55.5 -14t-18.5 -39q0 -26 15 -40.5t57 -25.5l43 -11q43 -11 76 -25t55.5 -34t33.5 -47.5t11 -66.5q0 -81 -54 -124t-141 -47l-9 -43
l4 -4q11 3 22.5 5t23.5 2q33 0 54.5 -16t21.5 -53q0 -26 -11 -43t-30 -28t-43 -15.5t-49 -4.5z" />
    <glyph glyph-name="scircumflex" unicode="&#x15d;" horiz-adv-x="522" 
d="M272 -12q-58 0 -87.5 20.5t-36.5 45.5h-4v-54h-103v156h103v-16q0 -38 24.5 -57.5t79.5 -19.5q49 0 70.5 15t21.5 44q0 24 -16 37.5t-54 23.5l-47 12q-91 23 -133 64.5t-42 110.5q0 80 53.5 123.5t140.5 43.5q55 0 84 -20.5t36 -45.5h4v54h103v-156h-103v16
q0 38 -24 57.5t-78 19.5q-37 0 -55.5 -14t-18.5 -39q0 -26 15 -40.5t57 -25.5l43 -11q43 -11 76 -25t55.5 -34t33.5 -47.5t11 -66.5q0 -42 -15 -74t-43 -53.5t-66.5 -32.5t-84.5 -11zM58 617l138 181h96l138 -181l-45 -37l-141 104l-141 -104z" />
    <glyph glyph-name="scommaaccent" unicode="&#x219;" horiz-adv-x="522" 
d="M272 -12q-58 0 -87.5 20.5t-36.5 45.5h-4v-54h-103v156h103v-16q0 -38 24.5 -57.5t79.5 -19.5q49 0 70.5 15t21.5 44q0 24 -16 37.5t-54 23.5l-47 12q-91 23 -133 64.5t-42 110.5q0 80 53.5 123.5t140.5 43.5q55 0 84 -20.5t36 -45.5h4v54h103v-156h-103v16
q0 38 -24 57.5t-78 19.5q-37 0 -55.5 -14t-18.5 -39q0 -26 15 -40.5t57 -25.5l43 -11q43 -11 76 -25t55.5 -34t33.5 -47.5t11 -66.5q0 -42 -15 -74t-43 -53.5t-66.5 -32.5t-84.5 -11zM194 -290q19 20 35 49t24 55q-37 2 -53.5 25t-16.5 50v1q0 32 19.5 54.5t57.5 22.5
q39 0 58 -22.5t19 -54.5v-9q0 -48 -20 -93t-52 -78h-71v0z" />
    <glyph glyph-name="germandbls" unicode="&#xdf;" horiz-adv-x="734" 
d="M472 -12q-44 0 -77 10.5t-55.5 27t-34 37.5t-11.5 42q0 34 22 55t54 21q35 0 53 -20t18 -48q0 -23 -9.5 -35.5t-19.5 -17.5v-6q19 -8 57 -8q44 0 67 18.5t23 55.5q0 17 -4 28.5t-14.5 21t-28 17.5t-44.5 18l-25 9q-61 23 -93.5 60.5t-32.5 98.5q0 37 13.5 66.5t35.5 49.5
t50 32t57 15v50q0 56 -27.5 83t-80.5 27q-51 0 -78.5 -32.5t-27.5 -98.5v-565h-222v68h60v385h-60v72h60v8q0 114 65 175.5t203 61.5q69 0 118 -17.5t80.5 -47t46 -68t14.5 -81.5v-63h-50q-52 0 -81 -19.5t-29 -53.5q0 -17 4 -29t14.5 -21.5t28.5 -18t45 -18.5l25 -9
q61 -23 93 -60t32 -98q0 -38 -12.5 -70.5t-40.5 -56.5t-72.5 -37.5t-108.5 -13.5z" />
    <glyph glyph-name="germandbls.alt01" horiz-adv-x="677" 
d="M418 -212q-88 0 -133 32t-45 81q0 34 21.5 55t54.5 21q35 0 52.5 -18.5t17.5 -47.5q0 -23 -10.5 -36.5t-20.5 -18.5v-6q17 -5 39 -5t41 8t33 25.5t22 45.5t8 67v43q0 63 -28.5 98t-91.5 35h-66v62l126 224h-189v-453h-222v68h60v504q0 95 60 146.5t169 51.5
q45 0 76.5 -10t51 -26t28.5 -36.5t9 -41.5q0 -34 -21.5 -54.5t-52.5 -20.5q-36 0 -54 20t-18 49q0 23 9 35t19 17v6q-6 2 -15 3t-19 1q-46 0 -63 -26t-17 -86v-75h374v-59l-146 -263q36 0 69 -10t58.5 -32.5t40.5 -57.5t15 -86q0 -56 -19.5 -98.5t-53 -71.5t-77.5 -44
t-92 -15z" />
    <glyph glyph-name="tbar" unicode="&#x167;" horiz-adv-x="396" 
d="M218 -10q-121 0 -121 105v160h-61v68h61v130h-71v72h29q32 0 49 15t31 44l44 87h80v-146h116v-72h-116v-130h106v-68h-106v-185h116v-62q-17 -6 -59.5 -12t-97.5 -6z" />
    <glyph glyph-name="tcaron" unicode="&#x165;" horiz-adv-x="385" 
d="M212 -10q-121 0 -121 105v358h-71v72h29q32 0 49 15t31 44l44 87h80v-146h116v-72h-116v-383h116v-62q-17 -6 -59.5 -12t-97.5 -6zM320 778h140l-89 -217h-56z" />
    <glyph glyph-name="tcommaaccent" unicode="&#x163;" horiz-adv-x="385" 
d="M212 -10q-121 0 -121 105v358h-71v72h29q32 0 49 15t31 44l44 87h80v-146h116v-72h-116v-383h116v-62q-17 -6 -59.5 -12t-97.5 -6zM146 -290q19 20 35 49t24 55q-37 2 -53.5 25t-16.5 50v1q0 32 19.5 54.5t57.5 22.5q39 0 58 -22.5t19 -54.5v-9q0 -48 -20 -93t-52 -78
h-71v0z" />
    <glyph glyph-name="uni021B" unicode="&#x21b;" horiz-adv-x="385" 
d="M212 -10q-121 0 -121 105v358h-71v72h29q32 0 49 15t31 44l44 87h80v-146h116v-72h-116v-383h116v-62q-17 -6 -59.5 -12t-97.5 -6zM146 -290q19 20 35 49t24 55q-37 2 -53.5 25t-16.5 50v1q0 32 19.5 54.5t57.5 22.5q39 0 58 -22.5t19 -54.5v-9q0 -48 -20 -93t-52 -78
h-71v0z" />
    <glyph glyph-name="thorn" unicode="&#xfe;" horiz-adv-x="642" 
d="M20 -132h60v785l-60 13v60l222 44v-323h6q14 35 50 62.5t90 27.5q49 0 88.5 -20t67 -56t42 -87t14.5 -112t-14.5 -111.5t-42 -86.5t-67 -56t-88.5 -20q-57 0 -91.5 26.5t-48.5 61.5h-6v-208h80v-68h-302v68zM333 83q40 0 68 27.5t28 81.5v142q0 53 -28 81t-68 28
t-65.5 -25t-25.5 -66v-180q0 -42 25.5 -65.5t65.5 -23.5z" />
    <glyph glyph-name="uacute" unicode="&#xfa;" horiz-adv-x="664" 
d="M260 -12q-49 0 -83 12t-55 36.5t-30.5 61t-9.5 84.5v238l-60 13v60l222 44v-350q0 -51 18 -72.5t60 -21.5q17 0 34 4.5t30 13.5t21 23.5t8 34.5v251l-60 13v60l222 44v-432l60 -13v-60l-219 -44v100h-6q-14 -41 -50.5 -70.5t-101.5 -29.5zM278 604l72 214l137 -65
l-158 -173z" />
    <glyph glyph-name="ubreve" unicode="&#x16d;" horiz-adv-x="664" 
d="M260 -12q-49 0 -83 12t-55 36.5t-30.5 61t-9.5 84.5v238l-60 13v60l222 44v-350q0 -51 18 -72.5t60 -21.5q17 0 34 4.5t30 13.5t21 23.5t8 34.5v251l-60 13v60l222 44v-432l60 -13v-60l-219 -44v100h-6q-14 -41 -50.5 -70.5t-101.5 -29.5zM329 580q-43 0 -74 16.5t-53 43
t-37 60.5t-27 69l52 26l20 -32q11 -18 22 -31t25 -21t31.5 -12t40.5 -4t40.5 4t31.5 12t25 21t22 31l20 32l52 -26q-12 -35 -27 -69t-37 -60.5t-53 -43t-74 -16.5z" />
    <glyph glyph-name="ucircumflex" unicode="&#xfb;" horiz-adv-x="664" 
d="M260 -12q-49 0 -83 12t-55 36.5t-30.5 61t-9.5 84.5v238l-60 13v60l222 44v-350q0 -51 18 -72.5t60 -21.5q17 0 34 4.5t30 13.5t21 23.5t8 34.5v251l-60 13v60l222 44v-432l60 -13v-60l-219 -44v100h-6q-14 -41 -50.5 -70.5t-101.5 -29.5zM143 617l138 181h96l138 -181
l-45 -37l-141 104l-141 -104z" />
    <glyph glyph-name="udieresis" unicode="&#xfc;" horiz-adv-x="664" 
d="M260 -12q-49 0 -83 12t-55 36.5t-30.5 61t-9.5 84.5v238l-60 13v60l222 44v-350q0 -51 18 -72.5t60 -21.5q17 0 34 4.5t30 13.5t21 23.5t8 34.5v251l-60 13v60l222 44v-432l60 -13v-60l-219 -44v100h-6q-14 -41 -50.5 -70.5t-101.5 -29.5zM218 596q-38 0 -59 21.5
t-21 54.5v4q0 33 21 54.5t59 21.5t59 -21.5t21 -54.5v-4q0 -33 -21 -54.5t-59 -21.5zM440 596q-38 0 -59 21.5t-21 54.5v4q0 33 21 54.5t59 21.5t59 -21.5t21 -54.5v-4q0 -33 -21 -54.5t-59 -21.5z" />
    <glyph glyph-name="uni1EE5" unicode="&#x1ee5;" horiz-adv-x="664" 
d="M260 -12q-49 0 -83 12t-55 36.5t-30.5 61t-9.5 84.5v238l-60 13v60l222 44v-350q0 -51 18 -72.5t60 -21.5q17 0 34 4.5t30 13.5t21 23.5t8 34.5v251l-60 13v60l222 44v-432l60 -13v-60l-219 -44v100h-6q-14 -41 -50.5 -70.5t-101.5 -29.5zM318 -207q-36 0 -58 20.5
t-22 55.5v3q0 35 22 55.5t58 20.5t58 -20.5t22 -55.5v-3q0 -35 -22 -55.5t-58 -20.5z" />
    <glyph glyph-name="ugrave" unicode="&#xf9;" horiz-adv-x="664" 
d="M260 -12q-49 0 -83 12t-55 36.5t-30.5 61t-9.5 84.5v238l-60 13v60l222 44v-350q0 -51 18 -72.5t60 -21.5q17 0 34 4.5t30 13.5t21 23.5t8 34.5v251l-60 13v60l222 44v-432l60 -13v-60l-219 -44v100h-6q-14 -41 -50.5 -70.5t-101.5 -29.5zM171 753l137 65l72 -214
l-51 -24z" />
    <glyph glyph-name="uni1EE7" unicode="&#x1ee7;" horiz-adv-x="664" 
d="M260 -12q-49 0 -83 12t-55 36.5t-30.5 61t-9.5 84.5v238l-60 13v60l222 44v-350q0 -51 18 -72.5t60 -21.5q17 0 34 4.5t30 13.5t21 23.5t8 34.5v251l-60 13v60l222 44v-432l60 -13v-60l-219 -44v100h-6q-14 -41 -50.5 -70.5t-101.5 -29.5zM313 593l42 107h-148v104h145
q29 0 48 -6t30.5 -16.5t16.5 -23.5t5 -28q0 -30 -16 -62.5t-41 -62.5l-29 -36z" />
    <glyph glyph-name="uhungarumlaut" unicode="&#x171;" horiz-adv-x="664" 
d="M260 -12q-49 0 -83 12t-55 36.5t-30.5 61t-9.5 84.5v238l-60 13v60l222 44v-350q0 -51 18 -72.5t60 -21.5q17 0 34 4.5t30 13.5t21 23.5t8 34.5v251l-60 13v60l222 44v-432l60 -13v-60l-219 -44v100h-6q-14 -41 -50.5 -70.5t-101.5 -29.5zM177 604l79 214l117 -61
l-146 -177zM379 604l79 214l117 -61l-146 -177z" />
    <glyph glyph-name="umacron" unicode="&#x16b;" horiz-adv-x="664" 
d="M260 -12q-49 0 -83 12t-55 36.5t-30.5 61t-9.5 84.5v238l-60 13v60l222 44v-350q0 -51 18 -72.5t60 -21.5q17 0 34 4.5t30 13.5t21 23.5t8 34.5v251l-60 13v60l222 44v-432l60 -13v-60l-219 -44v100h-6q-14 -41 -50.5 -70.5t-101.5 -29.5zM165 721h328v-93h-328v93z" />
    <glyph glyph-name="uogonek" unicode="&#x173;" horiz-adv-x="664" 
d="M550 -212q-25 0 -47 5t-38 15.5t-25 27t-9 40.5t10 44t27 36.5t39.5 30t47.5 24.5l-1 4l-136 -27v100h-6q-14 -41 -50.5 -70.5t-101.5 -29.5q-49 0 -83 12t-55 36.5t-30.5 61t-9.5 84.5v238l-60 13v60l222 44v-350q0 -51 18 -72.5t60 -21.5q17 0 34 4.5t30 13.5t21 23.5
t8 34.5v251l-60 13v60l222 44v-432l60 -13v-59q-35 -18 -55.5 -37t-31.5 -36t-14.5 -32.5t-3.5 -25.5q0 -23 12 -34.5t33 -11.5q14 0 23.5 4.5t19.5 15.5l39 -40q-17 -23 -43 -35.5t-66 -12.5z" />
    <glyph glyph-name="uring" unicode="&#x16f;" horiz-adv-x="664" 
d="M260 -12q-49 0 -83 12t-55 36.5t-30.5 61t-9.5 84.5v238l-60 13v60l222 44v-350q0 -51 18 -72.5t60 -21.5q17 0 34 4.5t30 13.5t21 23.5t8 34.5v251l-60 13v60l222 44v-432l60 -13v-60l-219 -44v100h-6q-14 -41 -50.5 -70.5t-101.5 -29.5zM329 613q25 0 39 15t14 41v65
q0 26 -14 41t-39 15t-39 -15t-14 -41v-65q0 -26 14 -41t39 -15zM329 557q-32 0 -59 11t-47 30t-31.5 45.5t-11.5 58.5q0 31 11.5 57.5t31.5 45.5t47 30t59 11q31 0 58.5 -11t47.5 -30t31.5 -45.5t11.5 -57.5q0 -32 -11.5 -58.5t-31.5 -45.5t-47.5 -30t-58.5 -11z" />
    <glyph glyph-name="utilde" unicode="&#x169;" horiz-adv-x="664" 
d="M260 -12q-49 0 -83 12t-55 36.5t-30.5 61t-9.5 84.5v238l-60 13v60l222 44v-350q0 -51 18 -72.5t60 -21.5q17 0 34 4.5t30 13.5t21 23.5t8 34.5v251l-60 13v60l222 44v-432l60 -13v-60l-219 -44v100h-6q-14 -41 -50.5 -70.5t-101.5 -29.5zM405 593q-24 0 -47.5 10
t-45.5 21l-42 21t-39 10q-8 0 -14.5 -1t-13.5 -5.5t-15 -12.5t-18 -23l-40 42l25.5 41.5t27 33t31.5 21.5t38 8q24 0 47.5 -10t45.5 -21l42 -21t39 -10q8 0 14.5 1t13.5 5.5t14.5 12.5t18.5 23l40 -42q-13 -23 -25.5 -42t-27 -32.5t-31.5 -21.5t-38 -8z" />
    <glyph glyph-name="uhorn" unicode="&#x1b0;" horiz-adv-x="664" 
d="M260 -12q-49 0 -83 12t-55 36.5t-30.5 61t-9.5 84.5v238l-60 13v60l222 44v-350q0 -51 18 -72.5t60 -21.5q17 0 34 4.5t30 13.5t21 23.5t8 34.5v251l-60 13v60l184 37v101h126v-68q0 -50 -23 -69t-57 -19h-8v-370l60 -13v-60l-219 -44v100h-6q-14 -41 -50.5 -70.5
t-101.5 -29.5z" />
    <glyph glyph-name="uni1EE9" unicode="&#x1ee9;" horiz-adv-x="664" 
d="M260 -12q-49 0 -83 12t-55 36.5t-30.5 61t-9.5 84.5v238l-60 13v60l222 44v-350q0 -51 18 -72.5t60 -21.5q17 0 34 4.5t30 13.5t21 23.5t8 34.5v251l-60 13v60l184 37v101h126v-68q0 -50 -23 -69t-57 -19h-8v-370l60 -13v-60l-219 -44v100h-6q-14 -41 -50.5 -70.5
t-101.5 -29.5zM278 604l72 214l137 -65l-158 -173z" />
    <glyph glyph-name="uni1EF1" unicode="&#x1ef1;" horiz-adv-x="664" 
d="M260 -12q-49 0 -83 12t-55 36.5t-30.5 61t-9.5 84.5v238l-60 13v60l222 44v-350q0 -51 18 -72.5t60 -21.5q17 0 34 4.5t30 13.5t21 23.5t8 34.5v251l-60 13v60l184 37v101h126v-68q0 -50 -23 -69t-57 -19h-8v-370l60 -13v-60l-219 -44v100h-6q-14 -41 -50.5 -70.5
t-101.5 -29.5zM312 -207q-36 0 -58 20.5t-22 55.5v3q0 35 22 55.5t58 20.5t58 -20.5t22 -55.5v-3q0 -35 -22 -55.5t-58 -20.5z" />
    <glyph glyph-name="uni1EEB" unicode="&#x1eeb;" horiz-adv-x="664" 
d="M260 -12q-49 0 -83 12t-55 36.5t-30.5 61t-9.5 84.5v238l-60 13v60l222 44v-350q0 -51 18 -72.5t60 -21.5q17 0 34 4.5t30 13.5t21 23.5t8 34.5v251l-60 13v60l184 37v101h126v-68q0 -50 -23 -69t-57 -19h-8v-370l60 -13v-60l-219 -44v100h-6q-14 -41 -50.5 -70.5
t-101.5 -29.5zM171 753l137 65l72 -214l-51 -24z" />
    <glyph glyph-name="uni1EED" unicode="&#x1eed;" horiz-adv-x="664" 
d="M260 -12q-49 0 -83 12t-55 36.5t-30.5 61t-9.5 84.5v238l-60 13v60l222 44v-350q0 -51 18 -72.5t60 -21.5q17 0 34 4.5t30 13.5t21 23.5t8 34.5v251l-60 13v60l184 37v101h126v-68q0 -50 -23 -69t-57 -19h-8v-370l60 -13v-60l-219 -44v100h-6q-14 -41 -50.5 -70.5
t-101.5 -29.5zM313 593l42 107h-148v104h145q29 0 48 -6t30.5 -16.5t16.5 -23.5t5 -28q0 -30 -16 -62.5t-41 -62.5l-29 -36z" />
    <glyph glyph-name="uni1EEF" unicode="&#x1eef;" horiz-adv-x="664" 
d="M260 -12q-49 0 -83 12t-55 36.5t-30.5 61t-9.5 84.5v238l-60 13v60l222 44v-350q0 -51 18 -72.5t60 -21.5q17 0 34 4.5t30 13.5t21 23.5t8 34.5v251l-60 13v60l184 37v101h126v-68q0 -50 -23 -69t-57 -19h-8v-370l60 -13v-60l-219 -44v100h-6q-14 -41 -50.5 -70.5
t-101.5 -29.5zM395 593q-22 0 -42.5 10.5l-40.5 20.5t-37 20.5t-34 10.5q-15 0 -27 -5.5t-32 -32.5l-40 42q25 44 51.5 72t68.5 28q22 0 42.5 -10.5l40.5 -20.5t37 -20.5t34 -10.5q7 0 13.5 1t13.5 4.5t14.5 11t17.5 21.5l40 -42q-25 -44 -51.5 -72t-68.5 -28z" />
    <glyph glyph-name="wacute" unicode="&#x1e83;" horiz-adv-x="894" 
d="M69 457h-48v68h268v-68h-56l74 -298h6l105 366h127l121 -367h6l71 299h-66v68h196v-68h-48l-139 -457h-116l-120 362h-6l-120 -362h-116zM431 604l72 214l137 -65l-158 -173z" />
    <glyph glyph-name="wcircumflex" unicode="&#x175;" horiz-adv-x="894" 
d="M69 457h-48v68h268v-68h-56l74 -298h6l105 366h127l121 -367h6l71 299h-66v68h196v-68h-48l-139 -457h-116l-120 362h-6l-120 -362h-116zM296 617l138 181h96l138 -181l-45 -37l-141 104l-141 -104z" />
    <glyph glyph-name="wdieresis" unicode="&#x1e85;" horiz-adv-x="894" 
d="M69 457h-48v68h268v-68h-56l74 -298h6l105 366h127l121 -367h6l71 299h-66v68h196v-68h-48l-139 -457h-116l-120 362h-6l-120 -362h-116zM371 596q-38 0 -59 21.5t-21 54.5v4q0 33 21 54.5t59 21.5t59 -21.5t21 -54.5v-4q0 -33 -21 -54.5t-59 -21.5zM593 596
q-38 0 -59 21.5t-21 54.5v4q0 33 21 54.5t59 21.5t59 -21.5t21 -54.5v-4q0 -33 -21 -54.5t-59 -21.5z" />
    <glyph glyph-name="wgrave" unicode="&#x1e81;" horiz-adv-x="894" 
d="M69 457h-48v68h268v-68h-56l74 -298h6l105 366h127l121 -367h6l71 299h-66v68h196v-68h-48l-139 -457h-116l-120 362h-6l-120 -362h-116zM324 753l137 65l72 -214l-51 -24z" />
    <glyph glyph-name="yacute" unicode="&#xfd;" horiz-adv-x="591" 
d="M131 -212q-63 0 -97.5 30t-34.5 72q0 37 21.5 57.5t59.5 20.5q37 0 57 -23t20 -53q0 -26 -12 -43l3 -6q3 -1 9 -1q27 0 49.5 29t42.5 81l10 26l-203 479h-48v68h279v-68h-56l106 -296h6l108 296h-56v68h188v-68h-48l-215 -508q-12 -27 -27 -56t-37 -52t-52.5 -38
t-72.5 -15zM290 604l72 214l137 -65l-158 -173z" />
    <glyph glyph-name="ycircumflex" unicode="&#x177;" horiz-adv-x="591" 
d="M131 -212q-63 0 -97.5 30t-34.5 72q0 37 21.5 57.5t59.5 20.5q37 0 57 -23t20 -53q0 -26 -12 -43l3 -6q3 -1 9 -1q27 0 49.5 29t42.5 81l10 26l-203 479h-48v68h279v-68h-56l106 -296h6l108 296h-56v68h188v-68h-48l-215 -508q-12 -27 -27 -56t-37 -52t-52.5 -38
t-72.5 -15zM155 617l138 181h96l138 -181l-45 -37l-141 104l-141 -104z" />
    <glyph glyph-name="ydieresis" unicode="&#xff;" horiz-adv-x="591" 
d="M131 -212q-63 0 -97.5 30t-34.5 72q0 37 21.5 57.5t59.5 20.5q37 0 57 -23t20 -53q0 -26 -12 -43l3 -6q3 -1 9 -1q27 0 49.5 29t42.5 81l10 26l-203 479h-48v68h279v-68h-56l106 -296h6l108 296h-56v68h188v-68h-48l-215 -508q-12 -27 -27 -56t-37 -52t-52.5 -38
t-72.5 -15zM230 596q-38 0 -59 21.5t-21 54.5v4q0 33 21 54.5t59 21.5t59 -21.5t21 -54.5v-4q0 -33 -21 -54.5t-59 -21.5zM452 596q-38 0 -59 21.5t-21 54.5v4q0 33 21 54.5t59 21.5t59 -21.5t21 -54.5v-4q0 -33 -21 -54.5t-59 -21.5z" />
    <glyph glyph-name="uni1EF5" unicode="&#x1ef5;" horiz-adv-x="591" 
d="M131 -212q-63 0 -97.5 30t-34.5 72q0 37 21.5 57.5t59.5 20.5q37 0 57 -23t20 -53q0 -26 -12 -43l3 -6q3 -1 9 -1q27 0 49.5 29t42.5 81l10 26l-203 479h-48v68h279v-68h-56l106 -296h6l108 296h-56v68h188v-68h-48l-215 -508q-12 -27 -27 -56t-37 -52t-52.5 -38
t-72.5 -15zM410 -207q-36 0 -58 20.5t-22 55.5v3q0 35 22 55.5t58 20.5t58 -20.5t22 -55.5v-3q0 -35 -22 -55.5t-58 -20.5z" />
    <glyph glyph-name="ygrave" unicode="&#x1ef3;" horiz-adv-x="591" 
d="M131 -212q-63 0 -97.5 30t-34.5 72q0 37 21.5 57.5t59.5 20.5q37 0 57 -23t20 -53q0 -26 -12 -43l3 -6q3 -1 9 -1q27 0 49.5 29t42.5 81l10 26l-203 479h-48v68h279v-68h-56l106 -296h6l108 296h-56v68h188v-68h-48l-215 -508q-12 -27 -27 -56t-37 -52t-52.5 -38
t-72.5 -15zM183 753l137 65l72 -214l-51 -24z" />
    <glyph glyph-name="uni1EF7" unicode="&#x1ef7;" horiz-adv-x="591" 
d="M131 -212q-63 0 -97.5 30t-34.5 72q0 37 21.5 57.5t59.5 20.5q37 0 57 -23t20 -53q0 -26 -12 -43l3 -6q3 -1 9 -1q27 0 49.5 29t42.5 81l10 26l-203 479h-48v68h279v-68h-56l106 -296h6l108 296h-56v68h188v-68h-48l-215 -508q-12 -27 -27 -56t-37 -52t-52.5 -38
t-72.5 -15zM325 593l42 107h-148v104h145q29 0 48 -6t30.5 -16.5t16.5 -23.5t5 -28q0 -30 -16 -62.5t-41 -62.5l-29 -36z" />
    <glyph glyph-name="uni1EF9" unicode="&#x1ef9;" horiz-adv-x="591" 
d="M131 -212q-63 0 -97.5 30t-34.5 72q0 37 21.5 57.5t59.5 20.5q37 0 57 -23t20 -53q0 -26 -12 -43l3 -6q3 -1 9 -1q27 0 49.5 29t42.5 81l10 26l-203 479h-48v68h279v-68h-56l106 -296h6l108 296h-56v68h188v-68h-48l-215 -508q-12 -27 -27 -56t-37 -52t-52.5 -38
t-72.5 -15zM417 593q-24 0 -47.5 10t-45.5 21l-42 21t-39 10q-8 0 -14.5 -1t-13.5 -5.5t-15 -12.5t-18 -23l-40 42l25.5 41.5t27 33t31.5 21.5t38 8q24 0 47.5 -10t45.5 -21l42 -21t39 -10q8 0 14.5 1t13.5 5.5t14.5 12.5t18.5 23l40 -42q-13 -23 -25.5 -42t-27 -32.5
t-31.5 -21.5t-38 -8z" />
    <glyph glyph-name="zacute" unicode="&#x17a;" horiz-adv-x="527" 
d="M31 65l268 388h-157v-84h-103v156h449v-69l-265 -384h170v84h103v-156h-465v65zM212 604l72 214l137 -65l-158 -173z" />
    <glyph glyph-name="zcaron" unicode="&#x17e;" horiz-adv-x="527" 
d="M31 65l268 388h-157v-84h-103v156h449v-69l-265 -384h170v84h103v-156h-465v65zM77 765l45 37l141 -104l141 104l45 -37l-138 -181h-96z" />
    <glyph glyph-name="zdotaccent" unicode="&#x17c;" horiz-adv-x="527" 
d="M31 65l268 388h-157v-84h-103v156h449v-69l-265 -384h170v84h103v-156h-465v65zM263 585q-42 0 -67 24t-25 64v3q0 40 25 64t67 24t67 -24t25 -64v-3q0 -40 -25 -64t-67 -24z" />
    <glyph glyph-name="Aacute" unicode="&#xc1;" horiz-adv-x="716" 
d="M14 68h51l221 630h145l221 -630h51v-68h-305v68h80l-48 144h-228l-48 -144h80v-68h-220v68zM223 282h188l-93 290h-4zM308 764l72 214l137 -65l-158 -173z" />
    <glyph glyph-name="Abreve" unicode="&#x102;" horiz-adv-x="716" 
d="M14 68h51l221 630h145l221 -630h51v-68h-305v68h80l-48 144h-228l-48 -144h80v-68h-220v68zM223 282h188l-93 290h-4zM359 740q-43 0 -74 16.5t-53 43t-37 60.5t-27 69l52 26l20 -32q11 -18 22 -31t25 -21t31.5 -12t40.5 -4t40.5 4t31.5 12t25 21t22 31l20 32l52 -26
q-12 -35 -27 -69t-37 -60.5t-53 -43t-74 -16.5z" />
    <glyph glyph-name="Acircumflex" unicode="&#xc2;" horiz-adv-x="716" 
d="M14 68h51l221 630h145l221 -630h51v-68h-305v68h80l-48 144h-228l-48 -144h80v-68h-220v68zM223 282h188l-93 290h-4zM173 777l138 181h96l138 -181l-45 -37l-141 104l-141 -104z" />
    <glyph glyph-name="Adieresis" unicode="&#xc4;" horiz-adv-x="716" 
d="M14 68h51l221 630h145l221 -630h51v-68h-305v68h80l-48 144h-228l-48 -144h80v-68h-220v68zM223 282h188l-93 290h-4zM248 759q-38 0 -59 21.5t-21 54.5v4q0 33 21 54.5t59 21.5t59 -21.5t21 -54.5v-4q0 -33 -21 -54.5t-59 -21.5zM470 759q-38 0 -59 21.5t-21 54.5v4
q0 33 21 54.5t59 21.5t59 -21.5t21 -54.5v-4q0 -33 -21 -54.5t-59 -21.5z" />
    <glyph glyph-name="uni1EA0" unicode="&#x1ea0;" horiz-adv-x="716" 
d="M14 68h51l221 630h145l221 -630h51v-68h-305v68h80l-48 144h-228l-48 -144h80v-68h-220v68zM223 282h188l-93 290h-4zM315 -207q-36 0 -58 20.5t-22 55.5v3q0 35 22 55.5t58 20.5t58 -20.5t22 -55.5v-3q0 -35 -22 -55.5t-58 -20.5z" />
    <glyph glyph-name="Agrave" unicode="&#xc0;" horiz-adv-x="716" 
d="M14 68h51l221 630h145l221 -630h51v-68h-305v68h80l-48 144h-228l-48 -144h80v-68h-220v68zM223 282h188l-93 290h-4zM201 913l137 65l72 -214l-51 -24z" />
    <glyph glyph-name="uni1EA2" unicode="&#x1ea2;" horiz-adv-x="716" 
d="M14 68h51l221 630h145l221 -630h51v-68h-305v68h80l-48 144h-228l-48 -144h80v-68h-220v68zM223 282h188l-93 290h-4zM343 753l42 107h-148v104h145q29 0 48 -6t30.5 -16.5t16.5 -23.5t5 -28q0 -30 -16 -62.5t-41 -62.5l-29 -36z" />
    <glyph glyph-name="Amacron" unicode="&#x100;" horiz-adv-x="716" 
d="M14 68h51l221 630h145l221 -630h51v-68h-305v68h80l-48 144h-228l-48 -144h80v-68h-220v68zM223 282h188l-93 290h-4zM195 883h328v-93h-328v93z" />
    <glyph glyph-name="Aogonek" unicode="&#x104;" horiz-adv-x="716" 
d="M616 -212q-25 0 -47 5t-38 15.5t-25.5 27t-9.5 40.5q0 42 34.5 71t106.5 49l-1 4h-238v68h80l-48 144h-228l-48 -144h80v-68h-220v68h51l221 630h145l221 -630h51v-68q-34 -15 -54.5 -29.5t-32 -27t-15 -24t-3.5 -20.5q0 -21 12 -32t33 -11q14 0 23.5 4.5t19.5 15.5
l39 -40q-17 -23 -42.5 -35.5t-66.5 -12.5zM223 282h188l-93 290h-4z" />
    <glyph glyph-name="Aring" unicode="&#xc5;" horiz-adv-x="716" 
d="M14 68h51l221 630h145l221 -630h51v-68h-305v68h80l-48 144h-228l-48 -144h80v-68h-220v68zM223 282h188l-93 290h-4zM359 774q25 0 39 15t14 41v65q0 26 -14 41t-39 15t-39 -15t-14 -41v-65q0 -26 14 -41t39 -15zM359 718q-32 0 -59 11t-47 30t-31.5 45.5t-11.5 58.5
q0 31 11.5 57.5t31.5 45.5t47 30t59 11q31 0 58.5 -11t47.5 -30t31.5 -45.5t11.5 -57.5q0 -32 -11.5 -58.5t-31.5 -45.5t-47.5 -30t-58.5 -11z" />
    <glyph glyph-name="Aringacute" unicode="&#x1fa;" horiz-adv-x="716" 
d="M14 68h51l221 630h145l221 -630h51v-68h-305v68h80l-48 144h-228l-48 -144h80v-68h-220v68zM223 282h188l-93 290h-4zM359 776q26 0 41 13.5t15 44.5v22q0 31 -15 44.5t-41 13.5t-41 -13.5t-15 -44.5v-22q0 -31 15 -44.5t41 -13.5zM359 725q-32 0 -59.5 8t-47.5 23.5
t-32 37.5t-12 51q0 28 12 50.5t32 38t47.5 23.5t59.5 8q31 0 59 -8t48 -23.5t32 -38t12 -50.5q0 -29 -12 -51t-32 -37.5t-48 -23.5t-59 -8zM309 1022l120 130l75 -84l-161 -83z" />
    <glyph glyph-name="Atilde" unicode="&#xc3;" horiz-adv-x="716" 
d="M14 68h51l221 630h145l221 -630h51v-68h-305v68h80l-48 144h-228l-48 -144h80v-68h-220v68zM223 282h188l-93 290h-4zM435 755q-24 0 -47.5 10t-45.5 21l-42 21t-39 10q-8 0 -14.5 -1t-13.5 -5.5t-15 -12.5t-18 -23l-40 42l25.5 41.5t27 33t31.5 21.5t38 8q24 0 47.5 -10
t45.5 -21l42 -21t39 -10q8 0 14.5 1t13.5 5.5t14.5 12.5t18.5 23l40 -42q-13 -23 -25.5 -42t-27 -32.5t-31.5 -21.5t-38 -8z" />
    <glyph glyph-name="uni1EAE" unicode="&#x1eae;" horiz-adv-x="716" 
d="M14 68h51l221 630h145l221 -630h51v-68h-305v68h80l-48 144h-228l-48 -144h80v-68h-220v68zM223 282h188l-93 290h-4zM359 731q-43 0 -74 14.5t-53.5 38.5t-37.5 54.5t-26 62.5l52 27l20 -33q19 -32 45.5 -42.5t73.5 -10.5t73.5 10.5t45.5 42.5l20 33l52 -27
q-11 -32 -26 -62.5t-37.5 -54.5t-53.5 -38.5t-74 -14.5zM322 924l79 206l111 -58l-143 -172z" />
    <glyph glyph-name="uni1EB6" unicode="&#x1eb6;" horiz-adv-x="716" 
d="M14 68h51l221 630h145l221 -630h51v-68h-305v68h80l-48 144h-228l-48 -144h80v-68h-220v68zM223 282h188l-93 290h-4zM359 740q-43 0 -74 16.5t-53 43t-37 60.5t-27 69l52 26l20 -32q11 -18 22 -31t25 -21t31.5 -12t40.5 -4t40.5 4t31.5 12t25 21t22 31l20 32l52 -26
q-12 -35 -27 -69t-37 -60.5t-53 -43t-74 -16.5zM315 -207q-36 0 -58 20.5t-22 55.5v3q0 35 22 55.5t58 20.5t58 -20.5t22 -55.5v-3q0 -35 -22 -55.5t-58 -20.5z" />
    <glyph glyph-name="uni1EB0" unicode="&#x1eb0;" horiz-adv-x="716" 
d="M14 68h51l221 630h145l221 -630h51v-68h-305v68h80l-48 144h-228l-48 -144h80v-68h-220v68zM223 282h188l-93 290h-4zM359 731q-43 0 -74 14.5t-53.5 38.5t-37.5 54.5t-26 62.5l52 27l20 -33q19 -32 45.5 -42.5t73.5 -10.5t73.5 10.5t45.5 42.5l20 33l52 -27
q-11 -32 -26 -62.5t-37.5 -54.5t-53.5 -38.5t-74 -14.5zM206 1072l111 58l79 -206l-47 -24z" />
    <glyph glyph-name="uni1EB2" unicode="&#x1eb2;" horiz-adv-x="716" 
d="M14 68h51l221 630h145l221 -630h51v-68h-305v68h80l-48 144h-228l-48 -144h80v-68h-220v68zM223 282h188l-93 290h-4zM359 731q-43 0 -74 14.5t-53.5 38.5t-37.5 54.5t-26 62.5l52 27l20 -33q19 -32 45.5 -42.5t73.5 -10.5t73.5 10.5t45.5 42.5l20 33l52 -27
q-11 -32 -26 -62.5t-37.5 -54.5t-53.5 -38.5t-74 -14.5zM339 904l43 110h-155v102h145q29 0 48 -6t30.5 -16.5t16.5 -23.5t5 -28q0 -30 -15.5 -63t-40.5 -63l-30 -36z" />
    <glyph glyph-name="uni1EB4" unicode="&#x1eb4;" horiz-adv-x="716" 
d="M14 68h51l221 630h145l221 -630h51v-68h-305v68h80l-48 144h-228l-48 -144h80v-68h-220v68zM223 282h188l-93 290h-4zM442 937q-25 0 -48 10t-46 22l-41 21t-39 10q-16 0 -28.5 -6.5t-33.5 -36.5l-40 42q25 44 52.5 72t69.5 28q25 0 48 -10t46 -22l41 -21t39 -10
q16 0 28.5 6.5t33.5 36.5l40 -42q-25 -44 -52.5 -72t-69.5 -28zM359 731q-43 0 -74 14.5t-53.5 38.5t-37.5 54.5t-26 62.5l52 27l20 -33q19 -32 45.5 -42.5t73.5 -10.5t73.5 10.5t45.5 42.5l20 33l52 -27q-11 -32 -26 -62.5t-37.5 -54.5t-53.5 -38.5t-74 -14.5z" />
    <glyph glyph-name="uni1EA4" unicode="&#x1ea4;" horiz-adv-x="716" 
d="M14 68h51l221 630h145l221 -630h51v-68h-305v68h80l-48 144h-228l-48 -144h80v-68h-220v68zM223 282h188l-93 290h-4zM178 766l134 177h94l134 -177l-44 -36l-137 110l-138 -110zM470 925l80 206l110 -58l-143 -172z" />
    <glyph glyph-name="uni1EAC" unicode="&#x1eac;" horiz-adv-x="716" 
d="M14 68h51l221 630h145l221 -630h51v-68h-305v68h80l-48 144h-228l-48 -144h80v-68h-220v68zM223 282h188l-93 290h-4zM173 777l138 181h96l138 -181l-45 -37l-141 104l-141 -104zM315 -207q-36 0 -58 20.5t-22 55.5v3q0 35 22 55.5t58 20.5t58 -20.5t22 -55.5v-3
q0 -35 -22 -55.5t-58 -20.5z" />
    <glyph glyph-name="uni1EA6" unicode="&#x1ea6;" horiz-adv-x="716" 
d="M14 68h51l221 630h145l221 -630h51v-68h-305v68h80l-48 144h-228l-48 -144h80v-68h-220v68zM223 282h188l-93 290h-4zM178 766l134 177h94l134 -177l-44 -36l-137 110l-138 -110zM58 1073l111 58l79 -206l-47 -24z" />
    <glyph glyph-name="uni1EA8" unicode="&#x1ea8;" horiz-adv-x="716" 
d="M14 68h51l221 630h145l221 -630h51v-68h-305v68h80l-48 144h-228l-48 -144h80v-68h-220v68zM223 282h188l-93 290h-4zM495 904l45 110h-136v102h124q28 0 47.5 -6t30.5 -16.5t16 -23.5t5 -28q0 -30 -16 -63.5t-41 -63.5l-28 -35zM178 766l134 177h94l134 -177l-44 -36
l-137 110l-138 -110z" />
    <glyph glyph-name="uni1EAA" unicode="&#x1eaa;" horiz-adv-x="716" 
d="M14 68h51l221 630h145l221 -630h51v-68h-305v68h80l-48 144h-228l-48 -144h80v-68h-220v68zM223 282h188l-93 290h-4zM434 946q-25 0 -47 10.5l-45 21.5l-41 21t-38 10q-16 0 -27.5 -9.5t-32.5 -39.5l-39 42q24 44 51 71t68 27q25 0 47 -10.5l45 -21.5l41 -21t38 -10
q16 0 27.5 9.5t32.5 39.5l39 -42q-24 -44 -51 -71t-68 -27zM178 766l134 160h94l134 -160l-43 -36l-138 97l-138 -97z" />
    <glyph glyph-name="AE" unicode="&#xc6;" horiz-adv-x="1029" 
d="M7 68h51l308 562h-68v68h670v-188h-123v113h-205v-220h128v58h78v-191h-78v58h-128v-253h214v134h123v-209h-577v68h68v144h-240l-79 -144h68v-68h-210v68zM266 282h202v348h-10z" />
    <glyph glyph-name="AEacute" unicode="&#x1fc;" horiz-adv-x="1029" 
d="M7 68h51l308 562h-68v68h670v-188h-123v113h-205v-220h128v58h78v-191h-78v58h-128v-253h214v134h123v-209h-577v68h68v144h-240l-79 -144h68v-68h-210v68zM266 282h202v348h-10zM580 764l72 214l137 -65l-158 -173z" />
    <glyph glyph-name="Cacute" unicode="&#x106;" horiz-adv-x="680" 
d="M372 -12q-77 0 -137 28t-100.5 76.5t-61.5 114.5t-21 141q0 89 25.5 156.5t68 113.5t97.5 69t115 23q33 0 58 -6.5t43 -16.5t30 -22.5t18 -24.5h6v58h123v-225h-123v45q0 51 -33 82t-98 31q-64 0 -102 -39t-38 -127v-211q0 -46 12 -78.5t33.5 -53.5t50.5 -30.5t63 -9.5
q65 0 110 33.5t68 90.5l60 -34q-14 -39 -39 -73t-59 -58.5t-77 -38.5t-92 -14zM319 764l72 214l137 -65l-158 -173z" />
    <glyph glyph-name="Ccaron" unicode="&#x10c;" horiz-adv-x="680" 
d="M372 -12q-77 0 -137 28t-100.5 76.5t-61.5 114.5t-21 141q0 89 25.5 156.5t68 113.5t97.5 69t115 23q33 0 58 -6.5t43 -16.5t30 -22.5t18 -24.5h6v58h123v-225h-123v45q0 51 -33 82t-98 31q-64 0 -102 -39t-38 -127v-211q0 -46 12 -78.5t33.5 -53.5t50.5 -30.5t63 -9.5
q65 0 110 33.5t68 90.5l60 -34q-14 -39 -39 -73t-59 -58.5t-77 -38.5t-92 -14zM184 925l45 37l141 -104l141 104l45 -37l-138 -181h-96z" />
    <glyph glyph-name="Ccedilla" unicode="&#xc7;" horiz-adv-x="680" 
d="M381 -212q-48 0 -75.5 15t-39.5 29l34 43q10 -12 25.5 -20.5t35.5 -8.5t32.5 9t12.5 29q0 11 -11 23.5t-48 16.5l-21 2l13 63q-70 6 -123.5 36.5t-90 78.5t-55 110.5t-18.5 133.5q0 89 25.5 156.5t68 113.5t97.5 69t115 23q33 0 58 -6.5t43 -16.5t30 -22.5t18 -24.5h6v58
h123v-225h-123v45q0 51 -33 82t-98 31q-64 0 -102 -39t-38 -127v-211q0 -46 12 -78.5t33.5 -53.5t50.5 -30.5t63 -9.5q65 0 110 33.5t68 90.5l60 -34q-13 -37 -35.5 -69t-53.5 -56t-69.5 -39.5t-83.5 -18.5l-9 -44l4 -4q11 3 23 5t23 2q33 0 54.5 -16t21.5 -53
q0 -26 -11 -43t-30 -28t-43 -15.5t-49 -4.5z" />
    <glyph glyph-name="Ccircumflex" unicode="&#x108;" horiz-adv-x="680" 
d="M372 -12q-77 0 -137 28t-100.5 76.5t-61.5 114.5t-21 141q0 89 25.5 156.5t68 113.5t97.5 69t115 23q33 0 58 -6.5t43 -16.5t30 -22.5t18 -24.5h6v58h123v-225h-123v45q0 51 -33 82t-98 31q-64 0 -102 -39t-38 -127v-211q0 -46 12 -78.5t33.5 -53.5t50.5 -30.5t63 -9.5
q65 0 110 33.5t68 90.5l60 -34q-14 -39 -39 -73t-59 -58.5t-77 -38.5t-92 -14zM184 777l138 181h96l138 -181l-45 -37l-141 104l-141 -104z" />
    <glyph glyph-name="Cdotaccent" unicode="&#x10a;" horiz-adv-x="680" 
d="M372 -12q-77 0 -137 28t-100.5 76.5t-61.5 114.5t-21 141q0 89 25.5 156.5t68 113.5t97.5 69t115 23q33 0 58 -6.5t43 -16.5t30 -22.5t18 -24.5h6v58h123v-225h-123v45q0 51 -33 82t-98 31q-64 0 -102 -39t-38 -127v-211q0 -46 12 -78.5t33.5 -53.5t50.5 -30.5t63 -9.5
q65 0 110 33.5t68 90.5l60 -34q-14 -39 -39 -73t-59 -58.5t-77 -38.5t-92 -14zM370 747q-42 0 -67 24t-25 64v3q0 40 25 64t67 24t67 -24t25 -64v-3q0 -40 -25 -64t-67 -24z" />
    <glyph glyph-name="Dcaron" unicode="&#x10e;" horiz-adv-x="773" 
d="M41 68h70v562h-70v68h334q73 0 136.5 -23.5t110 -68t73 -109.5t26.5 -148t-26.5 -148t-73 -109.5t-110 -68t-136.5 -23.5h-334v68zM283 75h61q51 0 87 9t58 30t32 55t10 85v190q0 51 -10 85t-32 55t-58 30t-87 9h-61v-548zM148 925l45 37l141 -104l141 104l45 -37
l-138 -181h-96z" />
    <glyph glyph-name="Dcroat" unicode="&#x110;" horiz-adv-x="773" 
d="M41 68h70v245h-80v73h80v244h-70v68h334q73 0 136.5 -23.5t110 -68t73 -109.5t26.5 -148t-26.5 -148t-73 -109.5t-110 -68t-136.5 -23.5h-334v68zM283 75h61q51 0 87 9t58 30t32 55t10 85v190q0 51 -10 85t-32 55t-58 30t-87 9h-61v-237h112v-73h-112v-238z" />
    <glyph glyph-name="Eth" unicode="&#xd0;" horiz-adv-x="773" 
d="M41 68h70v245h-80v73h80v244h-70v68h334q73 0 136.5 -23.5t110 -68t73 -109.5t26.5 -148t-26.5 -148t-73 -109.5t-110 -68t-136.5 -23.5h-334v68zM283 75h61q51 0 87 9t58 30t32 55t10 85v190q0 51 -10 85t-32 55t-58 30t-87 9h-61v-237h112v-73h-112v-238z" />
    <glyph glyph-name="Eacute" unicode="&#xc9;" horiz-adv-x="672" 
d="M41 68h70v562h-70v68h570v-188h-123v113h-205v-220h128v58h78v-191h-78v58h-128v-253h214v134h123v-209h-579v68zM300 764l72 214l137 -65l-158 -173z" />
    <glyph glyph-name="Ebreve" unicode="&#x114;" horiz-adv-x="672" 
d="M41 68h70v562h-70v68h570v-188h-123v113h-205v-220h128v58h78v-191h-78v58h-128v-253h214v134h123v-209h-579v68zM351 740q-43 0 -74 16.5t-53 43t-37 60.5t-27 69l52 26l20 -32q11 -18 22 -31t25 -21t31.5 -12t40.5 -4t40.5 4t31.5 12t25 21t22 31l20 32l52 -26
q-12 -35 -27 -69t-37 -60.5t-53 -43t-74 -16.5z" />
    <glyph glyph-name="Ecaron" unicode="&#x11a;" horiz-adv-x="672" 
d="M41 68h70v562h-70v68h570v-188h-123v113h-205v-220h128v58h78v-191h-78v58h-128v-253h214v134h123v-209h-579v68zM165 925l45 37l141 -104l141 104l45 -37l-138 -181h-96z" />
    <glyph glyph-name="Ecircumflex" unicode="&#xca;" horiz-adv-x="672" 
d="M41 68h70v562h-70v68h570v-188h-123v113h-205v-220h128v58h78v-191h-78v58h-128v-253h214v134h123v-209h-579v68zM165 777l138 181h96l138 -181l-45 -37l-141 104l-141 -104z" />
    <glyph glyph-name="Edieresis" unicode="&#xcb;" horiz-adv-x="672" 
d="M41 68h70v562h-70v68h570v-188h-123v113h-205v-220h128v58h78v-191h-78v58h-128v-253h214v134h123v-209h-579v68zM240 759q-38 0 -59 21.5t-21 54.5v4q0 33 21 54.5t59 21.5t59 -21.5t21 -54.5v-4q0 -33 -21 -54.5t-59 -21.5zM462 759q-38 0 -59 21.5t-21 54.5v4
q0 33 21 54.5t59 21.5t59 -21.5t21 -54.5v-4q0 -33 -21 -54.5t-59 -21.5z" />
    <glyph glyph-name="Edotaccent" unicode="&#x116;" horiz-adv-x="672" 
d="M41 68h70v562h-70v68h570v-188h-123v113h-205v-220h128v58h78v-191h-78v58h-128v-253h214v134h123v-209h-579v68zM351 747q-42 0 -67 24t-25 64v3q0 40 25 64t67 24t67 -24t25 -64v-3q0 -40 -25 -64t-67 -24z" />
    <glyph glyph-name="uni1EB8" unicode="&#x1eb8;" horiz-adv-x="672" 
d="M41 68h70v562h-70v68h570v-188h-123v113h-205v-220h128v58h78v-191h-78v58h-128v-253h214v134h123v-209h-579v68zM351 -207q-36 0 -58 20.5t-22 55.5v3q0 35 22 55.5t58 20.5t58 -20.5t22 -55.5v-3q0 -35 -22 -55.5t-58 -20.5z" />
    <glyph glyph-name="Egrave" unicode="&#xc8;" horiz-adv-x="672" 
d="M41 68h70v562h-70v68h570v-188h-123v113h-205v-220h128v58h78v-191h-78v58h-128v-253h214v134h123v-209h-579v68zM193 913l137 65l72 -214l-51 -24z" />
    <glyph glyph-name="uni1EBA" unicode="&#x1eba;" horiz-adv-x="672" 
d="M41 68h70v562h-70v68h570v-188h-123v113h-205v-220h128v58h78v-191h-78v58h-128v-253h214v134h123v-209h-579v68zM335 753l42 107h-148v104h145q29 0 48 -6t30.5 -16.5t16.5 -23.5t5 -28q0 -30 -16 -62.5t-41 -62.5l-29 -36z" />
    <glyph glyph-name="Emacron" unicode="&#x112;" horiz-adv-x="672" 
d="M41 68h70v562h-70v68h570v-188h-123v113h-205v-220h128v58h78v-191h-78v58h-128v-253h214v134h123v-209h-579v68zM187 883h328v-93h-328v93z" />
    <glyph glyph-name="Eogonek" unicode="&#x118;" horiz-adv-x="672" 
d="M533 -212q-25 0 -47 5t-38 15.5t-25.5 27t-9.5 40.5q0 42 34.5 71t106.5 49l-1 4h-512v68h70v562h-70v68h570v-188h-123v113h-205v-220h128v58h78v-191h-78v58h-128v-253h214v134h123v-209q-35 -15 -55.5 -29.5t-31.5 -27t-14.5 -24t-3.5 -20.5q0 -21 12 -32t33 -11
q14 0 23.5 4.5t19.5 15.5l39 -40q-17 -23 -43 -35.5t-66 -12.5z" />
    <glyph glyph-name="uni1EBC" unicode="&#x1ebc;" horiz-adv-x="672" 
d="M41 68h70v562h-70v68h570v-188h-123v113h-205v-220h128v58h78v-191h-78v58h-128v-253h214v134h123v-209h-579v68zM427 755q-24 0 -47.5 10t-45.5 21l-42 21t-39 10q-8 0 -14.5 -1t-13.5 -5.5t-15 -12.5t-18 -23l-40 42l25.5 41.5t27 33t31.5 21.5t38 8q24 0 47.5 -10
t45.5 -21l42 -21t39 -10q8 0 14.5 1t13.5 5.5t14.5 12.5t18.5 23l40 -42q-13 -23 -25.5 -42t-27 -32.5t-31.5 -21.5t-38 -8z" />
    <glyph glyph-name="uni1EBE" unicode="&#x1ebe;" horiz-adv-x="672" 
d="M41 68h70v562h-70v68h570v-188h-123v113h-205v-220h128v58h78v-191h-78v58h-128v-253h214v134h123v-209h-579v68zM170 766l134 177h94l134 -177l-44 -36l-137 110l-138 -110zM462 925l80 206l110 -58l-143 -172z" />
    <glyph glyph-name="uni1EC6" unicode="&#x1ec6;" horiz-adv-x="672" 
d="M41 68h70v562h-70v68h570v-188h-123v113h-205v-220h128v58h78v-191h-78v58h-128v-253h214v134h123v-209h-579v68zM165 777l138 181h96l138 -181l-45 -37l-141 104l-141 -104zM351 -207q-36 0 -58 20.5t-22 55.5v3q0 35 22 55.5t58 20.5t58 -20.5t22 -55.5v-3
q0 -35 -22 -55.5t-58 -20.5z" />
    <glyph glyph-name="uni1EC0" unicode="&#x1ec0;" horiz-adv-x="672" 
d="M41 68h70v562h-70v68h570v-188h-123v113h-205v-220h128v58h78v-191h-78v58h-128v-253h214v134h123v-209h-579v68zM170 766l134 177h94l134 -177l-44 -36l-137 110l-138 -110zM50 1073l111 58l79 -206l-47 -24z" />
    <glyph glyph-name="uni1EC2" unicode="&#x1ec2;" horiz-adv-x="672" 
d="M41 68h70v562h-70v68h570v-188h-123v113h-205v-220h128v58h78v-191h-78v58h-128v-253h214v134h123v-209h-579v68zM487 904l45 110h-136v102h124q28 0 47.5 -6t30.5 -16.5t16 -23.5t5 -28q0 -30 -16 -63.5t-41 -63.5l-28 -35zM170 766l134 177h94l134 -177l-44 -36
l-137 110l-138 -110z" />
    <glyph glyph-name="uni1EC4" unicode="&#x1ec4;" horiz-adv-x="672" 
d="M41 68h70v562h-70v68h570v-188h-123v113h-205v-220h128v58h78v-191h-78v58h-128v-253h214v134h123v-209h-579v68zM426 946q-25 0 -47 10.5l-45 21.5l-41 21t-38 10q-16 0 -27.5 -9.5t-32.5 -39.5l-39 42q24 44 51 71t68 27q25 0 47 -10.5l45 -21.5l41 -21t38 -10
q16 0 27.5 9.5t32.5 39.5l39 -42q-24 -44 -51 -71t-68 -27zM170 766l134 160h94l134 -160l-43 -36l-138 97l-138 -97z" />
    <glyph glyph-name="uni018F" unicode="&#x18f;" horiz-adv-x="744" 
d="M360 -12q-146 0 -223 88t-85 256v18h451v94q0 49 -13 83t-35.5 55.5t-53 31.5t-66.5 10q-73 0 -123 -35.5t-76 -96.5l-60 34q14 40 40.5 73.5t63.5 58t83.5 38.5t99.5 14q79 0 140.5 -28t103.5 -77t63.5 -115t21.5 -141q0 -87 -25.5 -154.5t-70 -113.5t-105.5 -69.5
t-131 -23.5zM360 64q28 0 54 9t46 29t31.5 52t11.5 77v44h-285v-44q0 -45 11.5 -77t31 -52t45 -29t54.5 -9z" />
    <glyph glyph-name="Gbreve" unicode="&#x11e;" horiz-adv-x="795" 
d="M372 -12q-70 0 -129 25t-101.5 71.5t-66 113t-23.5 150.5q0 88 26.5 155.5t72.5 113.5t106.5 69.5t129.5 23.5t110 -23t54 -47h6v58h123v-225h-123v45q0 51 -31.5 82t-103.5 31q-91 0 -135.5 -44.5t-44.5 -140.5v-197q0 -89 38.5 -134t110.5 -45q71 0 102.5 35t31.5 86
v95h-99v68h322v-68h-51v-286h-58l-65 100h-7q-5 -16 -21.5 -35.5t-42.5 -36.5t-59.5 -28.5t-71.5 -11.5zM389 740q-43 0 -74 16.5t-53 43t-37 60.5t-27 69l52 26l20 -32q11 -18 22 -31t25 -21t31.5 -12t40.5 -4t40.5 4t31.5 12t25 21t22 31l20 32l52 -26q-12 -35 -27 -69
t-37 -60.5t-53 -43t-74 -16.5z" />
    <glyph glyph-name="Gcircumflex" unicode="&#x11c;" horiz-adv-x="795" 
d="M372 -12q-70 0 -129 25t-101.5 71.5t-66 113t-23.5 150.5q0 88 26.5 155.5t72.5 113.5t106.5 69.5t129.5 23.5t110 -23t54 -47h6v58h123v-225h-123v45q0 51 -31.5 82t-103.5 31q-91 0 -135.5 -44.5t-44.5 -140.5v-197q0 -89 38.5 -134t110.5 -45q71 0 102.5 35t31.5 86
v95h-99v68h322v-68h-51v-286h-58l-65 100h-7q-5 -16 -21.5 -35.5t-42.5 -36.5t-59.5 -28.5t-71.5 -11.5zM203 777l138 181h96l138 -181l-45 -37l-141 104l-141 -104z" />
    <glyph glyph-name="Gcommaaccent" unicode="&#x122;" horiz-adv-x="795" 
d="M372 -12q-70 0 -129 25t-101.5 71.5t-66 113t-23.5 150.5q0 88 26.5 155.5t72.5 113.5t106.5 69.5t129.5 23.5t110 -23t54 -47h6v58h123v-225h-123v45q0 51 -31.5 82t-103.5 31q-91 0 -135.5 -44.5t-44.5 -140.5v-197q0 -89 38.5 -134t110.5 -45q71 0 102.5 35t31.5 86
v95h-99v68h322v-68h-51v-286h-58l-65 100h-7q-5 -16 -21.5 -35.5t-42.5 -36.5t-59.5 -28.5t-71.5 -11.5zM319 -290q19 20 35 49t24 55q-37 2 -53.5 25t-16.5 50v1q0 32 19.5 54.5t57.5 22.5q39 0 58 -22.5t19 -54.5v-9q0 -48 -20 -93t-52 -78h-71v0z" />
    <glyph glyph-name="Gdotaccent" unicode="&#x120;" horiz-adv-x="795" 
d="M372 -12q-70 0 -129 25t-101.5 71.5t-66 113t-23.5 150.5q0 88 26.5 155.5t72.5 113.5t106.5 69.5t129.5 23.5t110 -23t54 -47h6v58h123v-225h-123v45q0 51 -31.5 82t-103.5 31q-91 0 -135.5 -44.5t-44.5 -140.5v-197q0 -89 38.5 -134t110.5 -45q71 0 102.5 35t31.5 86
v95h-99v68h322v-68h-51v-286h-58l-65 100h-7q-5 -16 -21.5 -35.5t-42.5 -36.5t-59.5 -28.5t-71.5 -11.5zM389 747q-42 0 -67 24t-25 64v3q0 40 25 64t67 24t67 -24t25 -64v-3q0 -40 -25 -64t-67 -24z" />
    <glyph glyph-name="Hbar" unicode="&#x126;" horiz-adv-x="829" 
d="M41 68h70v411h-80v68h80v83h-70v68h312v-68h-70v-83h263v83h-70v68h312v-68h-70v-83h80v-68h-80v-411h70v-68h-312v68h70v254h-263v-254h70v-68h-312v68zM283 397h263v82h-263v-82z" />
    <glyph glyph-name="Hcircumflex" unicode="&#x124;" horiz-adv-x="829" 
d="M41 68h70v562h-70v68h312v-68h-70v-233h263v233h-70v68h312v-68h-70v-562h70v-68h-312v68h70v254h-263v-254h70v-68h-312v68zM228 777l138 181h96l138 -181l-45 -37l-141 104l-141 -104z" />
    <glyph glyph-name="Iacute" unicode="&#xcd;" horiz-adv-x="394" 
d="M41 68h70v562h-70v68h312v-68h-70v-562h70v-68h-312v68zM148 764l72 214l137 -65l-158 -173z" />
    <glyph glyph-name="Ibreve" unicode="&#x12c;" horiz-adv-x="394" 
d="M41 68h70v562h-70v68h312v-68h-70v-562h70v-68h-312v68zM199 740q-43 0 -74 16.5t-53 43t-37 60.5t-27 69l52 26l20 -32q11 -18 22 -31t25 -21t31.5 -12t40.5 -4t40.5 4t31.5 12t25 21t22 31l20 32l52 -26q-12 -35 -27 -69t-37 -60.5t-53 -43t-74 -16.5z" />
    <glyph glyph-name="Icircumflex" unicode="&#xce;" horiz-adv-x="394" 
d="M41 68h70v562h-70v68h312v-68h-70v-562h70v-68h-312v68zM13 777l138 181h96l138 -181l-45 -37l-141 104l-141 -104z" />
    <glyph glyph-name="Idieresis" unicode="&#xcf;" horiz-adv-x="394" 
d="M41 68h70v562h-70v68h312v-68h-70v-562h70v-68h-312v68zM88 759q-38 0 -59 21.5t-21 54.5v4q0 33 21 54.5t59 21.5t59 -21.5t21 -54.5v-4q0 -33 -21 -54.5t-59 -21.5zM310 759q-38 0 -59 21.5t-21 54.5v4q0 33 21 54.5t59 21.5t59 -21.5t21 -54.5v-4q0 -33 -21 -54.5
t-59 -21.5z" />
    <glyph glyph-name="Idotaccent" unicode="&#x130;" horiz-adv-x="394" 
d="M41 68h70v562h-70v68h312v-68h-70v-562h70v-68h-312v68zM199 747q-42 0 -67 24t-25 64v3q0 40 25 64t67 24t67 -24t25 -64v-3q0 -40 -25 -64t-67 -24z" />
    <glyph glyph-name="uni1ECA" unicode="&#x1eca;" horiz-adv-x="394" 
d="M41 68h70v562h-70v68h312v-68h-70v-562h70v-68h-312v68zM198 -207q-36 0 -58 20.5t-22 55.5v3q0 35 22 55.5t58 20.5t58 -20.5t22 -55.5v-3q0 -35 -22 -55.5t-58 -20.5z" />
    <glyph glyph-name="Igrave" unicode="&#xcc;" horiz-adv-x="394" 
d="M41 68h70v562h-70v68h312v-68h-70v-562h70v-68h-312v68zM41 913l137 65l72 -214l-51 -24z" />
    <glyph glyph-name="uni1EC8" unicode="&#x1ec8;" horiz-adv-x="394" 
d="M41 68h70v562h-70v68h312v-68h-70v-562h70v-68h-312v68zM182 753l42 107h-148v104h145q29 0 48 -6t30.5 -16.5t16.5 -23.5t5 -28q0 -30 -16 -62.5t-41 -62.5l-29 -36z" />
    <glyph glyph-name="Imacron" unicode="&#x12a;" horiz-adv-x="394" 
d="M41 68h70v562h-70v68h312v-68h-70v-562h70v-68h-312v68zM35 883h328v-93h-328v93z" />
    <glyph glyph-name="Iogonek" unicode="&#x12e;" horiz-adv-x="394" 
d="M266 -212q-25 0 -47 5t-38 15.5t-25.5 27t-9.5 40.5q0 42 34.5 71t106.5 49l-1 4h-245v68h70v562h-70v68h312v-68h-70v-562h70v-68q-35 -15 -55.5 -29.5t-31.5 -27t-14.5 -24t-3.5 -20.5q0 -21 12 -32t33 -11q14 0 23.5 4.5t19.5 15.5l39 -40q-17 -23 -43 -35.5
t-66 -12.5z" />
    <glyph glyph-name="Itilde" unicode="&#x128;" horiz-adv-x="394" 
d="M41 68h70v562h-70v68h312v-68h-70v-562h70v-68h-312v68zM275 755q-24 0 -47.5 10t-45.5 21l-42 21t-39 10q-8 0 -14.5 -1t-13.5 -5.5t-15 -12.5t-18 -23l-40 42l25.5 41.5t27 33t31.5 21.5t38 8q24 0 47.5 -10t45.5 -21l42 -21t39 -10q8 0 14.5 1t13.5 5.5t14.5 12.5
t18.5 23l40 -42q-13 -23 -25.5 -42t-27 -32.5t-31.5 -21.5t-38 -8z" />
    <glyph glyph-name="IJ" unicode="&#x132;" horiz-adv-x="923" 
d="M41 68h70v562h-70v68h312v-68h-70v-562h70v-68h-312v68zM574 -12q-86 0 -127 32.5t-41 83.5q0 31 21 55t60 24q33 0 54.5 -19.5t21.5 -48.5q0 -20 -6.5 -34t-17.5 -20v-6q7 -2 15.5 -2.5t15.5 -0.5q37 0 56 22.5t19 77.5v478h-97v68h339v-68h-70v-421q0 -49 -13 -89.5
t-41.5 -70t-75 -45.5t-113.5 -16z" />
    <glyph glyph-name="IJacute" horiz-adv-x="923" 
d="M41 68h70v562h-70v68h312v-68h-70v-562h70v-68h-312v68zM148 764l72 214l137 -65l-158 -173zM574 -12q-86 0 -127 32.5t-41 83.5q0 31 21 55t60 24q33 0 54.5 -19.5t21.5 -48.5q0 -20 -6.5 -34t-17.5 -20v-6q7 -2 15.5 -2.5t15.5 -0.5q37 0 56 22.5t19 77.5v478h-97v68
h339v-68h-70v-421q0 -49 -13 -89.5t-41.5 -70t-75 -45.5t-113.5 -16zM679 764l72 214l137 -65l-158 -173z" />
    <glyph glyph-name="Jacute" horiz-adv-x="529" 
d="M180 -12q-86 0 -127 32.5t-41 83.5q0 31 21 55t60 24q33 0 54.5 -19.5t21.5 -48.5q0 -20 -6.5 -34t-17.5 -20v-6q7 -2 15.5 -2.5t15.5 -0.5q37 0 56 22.5t19 77.5v478h-97v68h339v-68h-70v-421q0 -49 -13 -89.5t-41.5 -70t-75 -45.5t-113.5 -16zM285 764l72 214l137 -65
l-158 -173z" />
    <glyph glyph-name="Jcircumflex" unicode="&#x134;" horiz-adv-x="529" 
d="M180 -12q-86 0 -127 32.5t-41 83.5q0 31 21 55t60 24q33 0 54.5 -19.5t21.5 -48.5q0 -20 -6.5 -34t-17.5 -20v-6q7 -2 15.5 -2.5t15.5 -0.5q37 0 56 22.5t19 77.5v478h-97v68h339v-68h-70v-421q0 -49 -13 -89.5t-41.5 -70t-75 -45.5t-113.5 -16zM150 777l138 181h96
l138 -181l-45 -37l-141 104l-141 -104z" />
    <glyph glyph-name="Kcommaaccent" unicode="&#x136;" horiz-adv-x="786" 
d="M41 68h70v562h-70v68h312v-68h-70v-277h7l119 126l139 151h-71v68h253v-68h-75l-177 -181l236 -381h58v-68h-321v68h62l-153 266l-77 -78v-188h70v-68h-312v68zM338 -290q19 20 35 49t24 55q-37 2 -53.5 25t-16.5 50v1q0 32 19.5 54.5t57.5 22.5q39 0 58 -22.5t19 -54.5
v-9q0 -48 -20 -93t-52 -78h-71v0z" />
    <glyph glyph-name="Lacute" unicode="&#x139;" horiz-adv-x="633" 
d="M41 68h70v562h-70v68h319v-68h-77v-555h186v134h123v-209h-551v68zM147 764l72 214l137 -65l-158 -173z" />
    <glyph glyph-name="Lcaron" unicode="&#x13d;" horiz-adv-x="633" 
d="M41 68h70v562h-70v68h319v-68h-77v-555h186v134h123v-209h-551v68zM432 741h140l-89 -217h-56z" />
    <glyph glyph-name="Lcommaaccent" unicode="&#x13b;" horiz-adv-x="633" 
d="M41 68h70v562h-70v68h319v-68h-77v-555h186v134h123v-209h-551v68zM259 -290q19 20 35 49t24 55q-37 2 -53.5 25t-16.5 50v1q0 32 19.5 54.5t57.5 22.5q39 0 58 -22.5t19 -54.5v-9q0 -48 -20 -93t-52 -78h-71v0z" />
    <glyph glyph-name="Ldot" unicode="&#x13f;" horiz-adv-x="633" 
d="M41 68h70v562h-70v68h319v-68h-77v-555h186v134h123v-209h-551v68zM428 248q-42 0 -67 24t-25 64v3q0 40 25 64t67 24t67 -24t25 -64v-3q0 -40 -25 -64t-67 -24z" />
    <glyph glyph-name="Lslash" unicode="&#x141;" horiz-adv-x="633" 
d="M41 68h70v191l-79 -27v72l79 27v299h-70v68h319v-68h-77v-241l129 44v-72l-129 -44v-242h186v134h123v-209h-551v68z" />
    <glyph glyph-name="Nacute" unicode="&#x143;" horiz-adv-x="808" 
d="M41 68h70v562h-70v68h285l283 -491h6v423h-70v68h222v-68h-70v-630h-157l-341 579h-6v-511h70v-68h-222v68zM389 764l72 214l137 -65l-158 -173z" />
    <glyph glyph-name="Ncaron" unicode="&#x147;" horiz-adv-x="808" 
d="M41 68h70v562h-70v68h285l283 -491h6v423h-70v68h222v-68h-70v-630h-157l-341 579h-6v-511h70v-68h-222v68zM254 925l45 37l141 -104l141 104l45 -37l-138 -181h-96z" />
    <glyph glyph-name="Ncommaaccent" unicode="&#x145;" horiz-adv-x="808" 
d="M41 68h70v562h-70v68h285l283 -491h6v423h-70v68h222v-68h-70v-630h-157l-341 579h-6v-511h70v-68h-222v68zM331 -290q19 20 35 49t24 55q-37 2 -53.5 25t-16.5 50v1q0 32 19.5 54.5t57.5 22.5q39 0 58 -22.5t19 -54.5v-9q0 -48 -20 -93t-52 -78h-71v0z" />
    <glyph glyph-name="Ntilde" unicode="&#xd1;" horiz-adv-x="808" 
d="M41 68h70v562h-70v68h285l283 -491h6v423h-70v68h222v-68h-70v-630h-157l-341 579h-6v-511h70v-68h-222v68zM516 755q-24 0 -47.5 10t-45.5 21l-42 21t-39 10q-8 0 -14.5 -1t-13.5 -5.5t-15 -12.5t-18 -23l-40 42l25.5 41.5t27 33t31.5 21.5t38 8q24 0 47.5 -10t45.5 -21
l42 -21t39 -10q8 0 14.5 1t13.5 5.5t14.5 12.5t18.5 23l40 -42q-13 -23 -25.5 -42t-27 -32.5t-31.5 -21.5t-38 -8z" />
    <glyph glyph-name="Eng" unicode="&#x14a;" horiz-adv-x="808" 
d="M540 -212q-61 0 -91.5 24t-30.5 67q0 30 19.5 50.5t51.5 20.5t49 -18.5t17 -43.5q0 -15 -5 -25.5t-13 -15.5v-4q5 -1 8.5 -1h6.5q29 0 46 30t17 101v27h-75l-341 579h-6v-511h70v-68h-222v68h70v562h-70v68h285l283 -491h6v423h-70v68h222v-68h-70v-639
q0 -104 -42 -153.5t-115 -49.5z" />
    <glyph glyph-name="Oacute" unicode="&#xd3;" horiz-adv-x="778" 
d="M389 64q29 0 55.5 9t47 29t32.5 51.5t12 76.5v238q0 45 -12 76.5t-32.5 51.5t-47 29t-55.5 9t-56 -9t-47 -29t-32 -51.5t-12 -76.5v-238q0 -45 12 -76.5t32 -51.5t47 -29t56 -9zM389 -12q-72 0 -133.5 23.5t-106.5 69.5t-71 113.5t-26 154.5t26 154.5t71 113.5
t106.5 69.5t133.5 23.5t133.5 -23.5t106.5 -69.5t71 -113.5t26 -154.5t-26 -154.5t-71 -113.5t-106.5 -69.5t-133.5 -23.5zM338 764l72 214l137 -65l-158 -173z" />
    <glyph glyph-name="Obreve" unicode="&#x14e;" horiz-adv-x="778" 
d="M389 64q29 0 55.5 9t47 29t32.5 51.5t12 76.5v238q0 45 -12 76.5t-32.5 51.5t-47 29t-55.5 9t-56 -9t-47 -29t-32 -51.5t-12 -76.5v-238q0 -45 12 -76.5t32 -51.5t47 -29t56 -9zM389 -12q-72 0 -133.5 23.5t-106.5 69.5t-71 113.5t-26 154.5t26 154.5t71 113.5
t106.5 69.5t133.5 23.5t133.5 -23.5t106.5 -69.5t71 -113.5t26 -154.5t-26 -154.5t-71 -113.5t-106.5 -69.5t-133.5 -23.5zM389 740q-43 0 -74 16.5t-53 43t-37 60.5t-27 69l52 26l20 -32q11 -18 22 -31t25 -21t31.5 -12t40.5 -4t40.5 4t31.5 12t25 21t22 31l20 32l52 -26
q-12 -35 -27 -69t-37 -60.5t-53 -43t-74 -16.5z" />
    <glyph glyph-name="Ocircumflex" unicode="&#xd4;" horiz-adv-x="778" 
d="M389 64q29 0 55.5 9t47 29t32.5 51.5t12 76.5v238q0 45 -12 76.5t-32.5 51.5t-47 29t-55.5 9t-56 -9t-47 -29t-32 -51.5t-12 -76.5v-238q0 -45 12 -76.5t32 -51.5t47 -29t56 -9zM389 -12q-72 0 -133.5 23.5t-106.5 69.5t-71 113.5t-26 154.5t26 154.5t71 113.5
t106.5 69.5t133.5 23.5t133.5 -23.5t106.5 -69.5t71 -113.5t26 -154.5t-26 -154.5t-71 -113.5t-106.5 -69.5t-133.5 -23.5zM203 777l138 181h96l138 -181l-45 -37l-141 104l-141 -104z" />
    <glyph glyph-name="Odieresis" unicode="&#xd6;" horiz-adv-x="778" 
d="M389 64q29 0 55.5 9t47 29t32.5 51.5t12 76.5v238q0 45 -12 76.5t-32.5 51.5t-47 29t-55.5 9t-56 -9t-47 -29t-32 -51.5t-12 -76.5v-238q0 -45 12 -76.5t32 -51.5t47 -29t56 -9zM389 -12q-72 0 -133.5 23.5t-106.5 69.5t-71 113.5t-26 154.5t26 154.5t71 113.5
t106.5 69.5t133.5 23.5t133.5 -23.5t106.5 -69.5t71 -113.5t26 -154.5t-26 -154.5t-71 -113.5t-106.5 -69.5t-133.5 -23.5zM278 759q-38 0 -59 21.5t-21 54.5v4q0 33 21 54.5t59 21.5t59 -21.5t21 -54.5v-4q0 -33 -21 -54.5t-59 -21.5zM500 759q-38 0 -59 21.5t-21 54.5v4
q0 33 21 54.5t59 21.5t59 -21.5t21 -54.5v-4q0 -33 -21 -54.5t-59 -21.5z" />
    <glyph glyph-name="uni1ECC" unicode="&#x1ecc;" horiz-adv-x="778" 
d="M389 64q29 0 55.5 9t47 29t32.5 51.5t12 76.5v238q0 45 -12 76.5t-32.5 51.5t-47 29t-55.5 9t-56 -9t-47 -29t-32 -51.5t-12 -76.5v-238q0 -45 12 -76.5t32 -51.5t47 -29t56 -9zM389 -12q-72 0 -133.5 23.5t-106.5 69.5t-71 113.5t-26 154.5t26 154.5t71 113.5
t106.5 69.5t133.5 23.5t133.5 -23.5t106.5 -69.5t71 -113.5t26 -154.5t-26 -154.5t-71 -113.5t-106.5 -69.5t-133.5 -23.5zM389 -207q-36 0 -58 20.5t-22 55.5v3q0 35 22 55.5t58 20.5t58 -20.5t22 -55.5v-3q0 -35 -22 -55.5t-58 -20.5z" />
    <glyph glyph-name="Ograve" unicode="&#xd2;" horiz-adv-x="778" 
d="M389 64q29 0 55.5 9t47 29t32.5 51.5t12 76.5v238q0 45 -12 76.5t-32.5 51.5t-47 29t-55.5 9t-56 -9t-47 -29t-32 -51.5t-12 -76.5v-238q0 -45 12 -76.5t32 -51.5t47 -29t56 -9zM389 -12q-72 0 -133.5 23.5t-106.5 69.5t-71 113.5t-26 154.5t26 154.5t71 113.5
t106.5 69.5t133.5 23.5t133.5 -23.5t106.5 -69.5t71 -113.5t26 -154.5t-26 -154.5t-71 -113.5t-106.5 -69.5t-133.5 -23.5zM231 913l137 65l72 -214l-51 -24z" />
    <glyph glyph-name="uni1ECE" unicode="&#x1ece;" horiz-adv-x="778" 
d="M389 64q29 0 55.5 9t47 29t32.5 51.5t12 76.5v238q0 45 -12 76.5t-32.5 51.5t-47 29t-55.5 9t-56 -9t-47 -29t-32 -51.5t-12 -76.5v-238q0 -45 12 -76.5t32 -51.5t47 -29t56 -9zM389 -12q-72 0 -133.5 23.5t-106.5 69.5t-71 113.5t-26 154.5t26 154.5t71 113.5
t106.5 69.5t133.5 23.5t133.5 -23.5t106.5 -69.5t71 -113.5t26 -154.5t-26 -154.5t-71 -113.5t-106.5 -69.5t-133.5 -23.5zM373 753l42 107h-148v104h145q29 0 48 -6t30.5 -16.5t16.5 -23.5t5 -28q0 -30 -16 -62.5t-41 -62.5l-29 -36z" />
    <glyph glyph-name="Ohungarumlaut" unicode="&#x150;" horiz-adv-x="778" 
d="M389 64q29 0 55.5 9t47 29t32.5 51.5t12 76.5v238q0 45 -12 76.5t-32.5 51.5t-47 29t-55.5 9t-56 -9t-47 -29t-32 -51.5t-12 -76.5v-238q0 -45 12 -76.5t32 -51.5t47 -29t56 -9zM389 -12q-72 0 -133.5 23.5t-106.5 69.5t-71 113.5t-26 154.5t26 154.5t71 113.5
t106.5 69.5t133.5 23.5t133.5 -23.5t106.5 -69.5t71 -113.5t26 -154.5t-26 -154.5t-71 -113.5t-106.5 -69.5t-133.5 -23.5zM238 764l79 214l117 -61l-146 -177zM440 764l79 214l117 -61l-146 -177z" />
    <glyph glyph-name="Omacron" unicode="&#x14c;" horiz-adv-x="778" 
d="M389 64q29 0 55.5 9t47 29t32.5 51.5t12 76.5v238q0 45 -12 76.5t-32.5 51.5t-47 29t-55.5 9t-56 -9t-47 -29t-32 -51.5t-12 -76.5v-238q0 -45 12 -76.5t32 -51.5t47 -29t56 -9zM389 -12q-72 0 -133.5 23.5t-106.5 69.5t-71 113.5t-26 154.5t26 154.5t71 113.5
t106.5 69.5t133.5 23.5t133.5 -23.5t106.5 -69.5t71 -113.5t26 -154.5t-26 -154.5t-71 -113.5t-106.5 -69.5t-133.5 -23.5zM225 883h328v-93h-328v93z" />
    <glyph glyph-name="Oslash" unicode="&#xd8;" horiz-adv-x="778" 
d="M93 -2l58 81q-47 46 -73 113.5t-26 156.5q0 87 26 154.5t71 113.5t106.5 69.5t133.5 23.5q100 0 177 -45l55 78l64 -43l-58 -81q47 -46 73 -113.5t26 -156.5q0 -87 -26 -154.5t-71 -113.5t-106.5 -69.5t-133.5 -23.5q-101 0 -177 45l-55 -78zM510 582q-22 28 -54 40
t-67 12q-31 0 -59 -9t-49.5 -29t-34 -51.5t-12.5 -76.5v-238q0 -9 0.5 -18t1.5 -17zM389 64q31 0 59 9t49.5 29t34 51.5t12.5 76.5v238q0 9 -0.5 18t-1.5 17l-274 -387q22 -28 54 -40t67 -12z" />
    <glyph glyph-name="Oslashacute" unicode="&#x1fe;" horiz-adv-x="778" 
d="M93 -2l58 81q-47 46 -73 113.5t-26 156.5q0 87 26 154.5t71 113.5t106.5 69.5t133.5 23.5q100 0 177 -45l55 78l64 -43l-58 -81q47 -46 73 -113.5t26 -156.5q0 -87 -26 -154.5t-71 -113.5t-106.5 -69.5t-133.5 -23.5q-101 0 -177 45l-55 -78zM510 582q-22 28 -54 40
t-67 12q-31 0 -59 -9t-49.5 -29t-34 -51.5t-12.5 -76.5v-238q0 -9 0.5 -18t1.5 -17zM389 64q31 0 59 9t49.5 29t34 51.5t12.5 76.5v238q0 9 -0.5 18t-1.5 17l-274 -387q22 -28 54 -40t67 -12zM338 764l72 214l137 -65l-158 -173z" />
    <glyph glyph-name="Otilde" unicode="&#xd5;" horiz-adv-x="778" 
d="M389 64q29 0 55.5 9t47 29t32.5 51.5t12 76.5v238q0 45 -12 76.5t-32.5 51.5t-47 29t-55.5 9t-56 -9t-47 -29t-32 -51.5t-12 -76.5v-238q0 -45 12 -76.5t32 -51.5t47 -29t56 -9zM389 -12q-72 0 -133.5 23.5t-106.5 69.5t-71 113.5t-26 154.5t26 154.5t71 113.5
t106.5 69.5t133.5 23.5t133.5 -23.5t106.5 -69.5t71 -113.5t26 -154.5t-26 -154.5t-71 -113.5t-106.5 -69.5t-133.5 -23.5zM465 755q-24 0 -47.5 10t-45.5 21l-42 21t-39 10q-8 0 -14.5 -1t-13.5 -5.5t-15 -12.5t-18 -23l-40 42l25.5 41.5t27 33t31.5 21.5t38 8
q24 0 47.5 -10t45.5 -21l42 -21t39 -10q8 0 14.5 1t13.5 5.5t14.5 12.5t18.5 23l40 -42q-13 -23 -25.5 -42t-27 -32.5t-31.5 -21.5t-38 -8z" />
    <glyph glyph-name="Ohorn" unicode="&#x1a0;" horiz-adv-x="778" 
d="M389 -12q-72 0 -133.5 23.5t-106.5 69.5t-71 113.5t-26 154.5t26 154.5t71 113.5t106.5 69.5t133.5 23.5q53 0 97 -12h101v111h126v-72q0 -47 -21.5 -70t-69.5 -23h-24q59 -45 93.5 -118.5t34.5 -176.5q0 -87 -26 -154.5t-71 -113.5t-106.5 -69.5t-133.5 -23.5zM389 64
q29 0 55.5 9t47 29t32.5 51.5t12 76.5v238q0 45 -12 76.5t-32.5 51.5t-47 29t-55.5 9t-56 -9t-47 -29t-32 -51.5t-12 -76.5v-238q0 -45 12 -76.5t32 -51.5t47 -29t56 -9z" />
    <glyph glyph-name="uni1EDA" unicode="&#x1eda;" horiz-adv-x="778" 
d="M389 -12q-72 0 -133.5 23.5t-106.5 69.5t-71 113.5t-26 154.5t26 154.5t71 113.5t106.5 69.5t133.5 23.5q53 0 97 -12h101v111h126v-72q0 -47 -21.5 -70t-69.5 -23h-24q59 -45 93.5 -118.5t34.5 -176.5q0 -87 -26 -154.5t-71 -113.5t-106.5 -69.5t-133.5 -23.5zM389 64
q29 0 55.5 9t47 29t32.5 51.5t12 76.5v238q0 45 -12 76.5t-32.5 51.5t-47 29t-55.5 9t-56 -9t-47 -29t-32 -51.5t-12 -76.5v-238q0 -45 12 -76.5t32 -51.5t47 -29t56 -9zM338 764l72 214l137 -65l-158 -173z" />
    <glyph glyph-name="uni1EE2" unicode="&#x1ee2;" horiz-adv-x="778" 
d="M389 -12q-72 0 -133.5 23.5t-106.5 69.5t-71 113.5t-26 154.5t26 154.5t71 113.5t106.5 69.5t133.5 23.5q53 0 97 -12h101v111h126v-72q0 -47 -21.5 -70t-69.5 -23h-24q59 -45 93.5 -118.5t34.5 -176.5q0 -87 -26 -154.5t-71 -113.5t-106.5 -69.5t-133.5 -23.5zM389 64
q29 0 55.5 9t47 29t32.5 51.5t12 76.5v238q0 45 -12 76.5t-32.5 51.5t-47 29t-55.5 9t-56 -9t-47 -29t-32 -51.5t-12 -76.5v-238q0 -45 12 -76.5t32 -51.5t47 -29t56 -9zM389 -207q-36 0 -58 20.5t-22 55.5v3q0 35 22 55.5t58 20.5t58 -20.5t22 -55.5v-3q0 -35 -22 -55.5
t-58 -20.5z" />
    <glyph glyph-name="uni1EDC" unicode="&#x1edc;" horiz-adv-x="778" 
d="M389 -12q-72 0 -133.5 23.5t-106.5 69.5t-71 113.5t-26 154.5t26 154.5t71 113.5t106.5 69.5t133.5 23.5q53 0 97 -12h101v111h126v-72q0 -47 -21.5 -70t-69.5 -23h-24q59 -45 93.5 -118.5t34.5 -176.5q0 -87 -26 -154.5t-71 -113.5t-106.5 -69.5t-133.5 -23.5zM389 64
q29 0 55.5 9t47 29t32.5 51.5t12 76.5v238q0 45 -12 76.5t-32.5 51.5t-47 29t-55.5 9t-56 -9t-47 -29t-32 -51.5t-12 -76.5v-238q0 -45 12 -76.5t32 -51.5t47 -29t56 -9zM231 913l137 65l72 -214l-51 -24z" />
    <glyph glyph-name="uni1EDE" unicode="&#x1ede;" horiz-adv-x="778" 
d="M389 -12q-72 0 -133.5 23.5t-106.5 69.5t-71 113.5t-26 154.5t26 154.5t71 113.5t106.5 69.5t133.5 23.5q53 0 97 -12h101v111h126v-72q0 -47 -21.5 -70t-69.5 -23h-24q59 -45 93.5 -118.5t34.5 -176.5q0 -87 -26 -154.5t-71 -113.5t-106.5 -69.5t-133.5 -23.5zM389 64
q29 0 55.5 9t47 29t32.5 51.5t12 76.5v238q0 45 -12 76.5t-32.5 51.5t-47 29t-55.5 9t-56 -9t-47 -29t-32 -51.5t-12 -76.5v-238q0 -45 12 -76.5t32 -51.5t47 -29t56 -9zM373 753l42 107h-148v104h145q29 0 48 -6t30.5 -16.5t16.5 -23.5t5 -28q0 -30 -16 -62.5t-41 -62.5
l-29 -36z" />
    <glyph glyph-name="uni1EE0" unicode="&#x1ee0;" horiz-adv-x="778" 
d="M389 -12q-72 0 -133.5 23.5t-106.5 69.5t-71 113.5t-26 154.5t26 154.5t71 113.5t106.5 69.5t133.5 23.5q53 0 97 -12h101v111h126v-72q0 -47 -21.5 -70t-69.5 -23h-24q59 -45 93.5 -118.5t34.5 -176.5q0 -87 -26 -154.5t-71 -113.5t-106.5 -69.5t-133.5 -23.5zM389 64
q29 0 55.5 9t47 29t32.5 51.5t12 76.5v238q0 45 -12 76.5t-32.5 51.5t-47 29t-55.5 9t-56 -9t-47 -29t-32 -51.5t-12 -76.5v-238q0 -45 12 -76.5t32 -51.5t47 -29t56 -9zM455 755q-22 0 -42.5 10.5l-40.5 20.5t-37 20.5t-34 10.5q-15 0 -27 -5.5t-32 -32.5l-40 42
q25 44 51.5 72t68.5 28q22 0 42.5 -10.5l40.5 -20.5t37 -20.5t34 -10.5q7 0 13.5 1t13.5 4.5t14.5 11t17.5 21.5l40 -42q-25 -44 -51.5 -72t-68.5 -28z" />
    <glyph glyph-name="uni1ED0" unicode="&#x1ed0;" horiz-adv-x="778" 
d="M389 64q29 0 55.5 9t47 29t32.5 51.5t12 76.5v238q0 45 -12 76.5t-32.5 51.5t-47 29t-55.5 9t-56 -9t-47 -29t-32 -51.5t-12 -76.5v-238q0 -45 12 -76.5t32 -51.5t47 -29t56 -9zM389 -12q-72 0 -133.5 23.5t-106.5 69.5t-71 113.5t-26 154.5t26 154.5t71 113.5
t106.5 69.5t133.5 23.5t133.5 -23.5t106.5 -69.5t71 -113.5t26 -154.5t-26 -154.5t-71 -113.5t-106.5 -69.5t-133.5 -23.5zM208 766l134 177h94l134 -177l-44 -36l-137 110l-138 -110zM500 925l80 206l110 -58l-143 -172z" />
    <glyph glyph-name="uni1ED8" unicode="&#x1ed8;" horiz-adv-x="778" 
d="M389 64q29 0 55.5 9t47 29t32.5 51.5t12 76.5v238q0 45 -12 76.5t-32.5 51.5t-47 29t-55.5 9t-56 -9t-47 -29t-32 -51.5t-12 -76.5v-238q0 -45 12 -76.5t32 -51.5t47 -29t56 -9zM389 -12q-72 0 -133.5 23.5t-106.5 69.5t-71 113.5t-26 154.5t26 154.5t71 113.5
t106.5 69.5t133.5 23.5t133.5 -23.5t106.5 -69.5t71 -113.5t26 -154.5t-26 -154.5t-71 -113.5t-106.5 -69.5t-133.5 -23.5zM203 777l138 181h96l138 -181l-45 -37l-141 104l-141 -104zM389 -207q-36 0 -58 20.5t-22 55.5v3q0 35 22 55.5t58 20.5t58 -20.5t22 -55.5v-3
q0 -35 -22 -55.5t-58 -20.5z" />
    <glyph glyph-name="uni1ED2" unicode="&#x1ed2;" horiz-adv-x="778" 
d="M389 64q29 0 55.5 9t47 29t32.5 51.5t12 76.5v238q0 45 -12 76.5t-32.5 51.5t-47 29t-55.5 9t-56 -9t-47 -29t-32 -51.5t-12 -76.5v-238q0 -45 12 -76.5t32 -51.5t47 -29t56 -9zM389 -12q-72 0 -133.5 23.5t-106.5 69.5t-71 113.5t-26 154.5t26 154.5t71 113.5
t106.5 69.5t133.5 23.5t133.5 -23.5t106.5 -69.5t71 -113.5t26 -154.5t-26 -154.5t-71 -113.5t-106.5 -69.5t-133.5 -23.5zM208 766l134 177h94l134 -177l-44 -36l-137 110l-138 -110zM88 1073l111 58l79 -206l-47 -24z" />
    <glyph glyph-name="uni1ED4" unicode="&#x1ed4;" horiz-adv-x="778" 
d="M389 64q29 0 55.5 9t47 29t32.5 51.5t12 76.5v238q0 45 -12 76.5t-32.5 51.5t-47 29t-55.5 9t-56 -9t-47 -29t-32 -51.5t-12 -76.5v-238q0 -45 12 -76.5t32 -51.5t47 -29t56 -9zM389 -12q-72 0 -133.5 23.5t-106.5 69.5t-71 113.5t-26 154.5t26 154.5t71 113.5
t106.5 69.5t133.5 23.5t133.5 -23.5t106.5 -69.5t71 -113.5t26 -154.5t-26 -154.5t-71 -113.5t-106.5 -69.5t-133.5 -23.5zM525 904l45 110h-136v102h124q28 0 47.5 -6t30.5 -16.5t16 -23.5t5 -28q0 -30 -16 -63.5t-41 -63.5l-28 -35zM208 766l134 177h94l134 -177l-44 -36
l-137 110l-138 -110z" />
    <glyph glyph-name="uni1ED6" unicode="&#x1ed6;" horiz-adv-x="778" 
d="M389 64q29 0 55.5 9t47 29t32.5 51.5t12 76.5v238q0 45 -12 76.5t-32.5 51.5t-47 29t-55.5 9t-56 -9t-47 -29t-32 -51.5t-12 -76.5v-238q0 -45 12 -76.5t32 -51.5t47 -29t56 -9zM389 -12q-72 0 -133.5 23.5t-106.5 69.5t-71 113.5t-26 154.5t26 154.5t71 113.5
t106.5 69.5t133.5 23.5t133.5 -23.5t106.5 -69.5t71 -113.5t26 -154.5t-26 -154.5t-71 -113.5t-106.5 -69.5t-133.5 -23.5zM464 946q-25 0 -47 10.5l-45 21.5l-41 21t-38 10q-16 0 -27.5 -9.5t-32.5 -39.5l-39 42q24 44 51 71t68 27q25 0 47 -10.5l45 -21.5l41 -21t38 -10
q16 0 27.5 9.5t32.5 39.5l39 -42q-24 -44 -51 -71t-68 -27zM208 766l134 160h94l134 -160l-43 -36l-138 97l-138 -97z" />
    <glyph glyph-name="OE" unicode="&#x152;" horiz-adv-x="1069" 
d="M388 -12q-71 0 -132.5 23.5t-106.5 69.5t-71 113.5t-26 154.5t26 154.5t71 113.5t106.5 69.5t132.5 23.5q50 0 98 -12h522v-188h-123v113h-205v-220h128v58h78v-191h-78v58h-128v-253h214v134h123v-209h-531q-48 -12 -98 -12zM388 64q36 0 68 11.5t52 37.5v472
q-20 27 -52 38t-68 11q-29 0 -55.5 -9t-46.5 -29t-32 -51.5t-12 -76.5v-238q0 -45 12 -76.5t32 -51.5t46.5 -29t55.5 -9z" />
    <glyph glyph-name="Racute" unicode="&#x154;" horiz-adv-x="755" 
d="M41 68h70v562h-70v68h406q47 0 87 -10t69.5 -31t46 -54.5t16.5 -80.5q0 -36 -12.5 -66t-34 -52.5t-50 -37.5t-61.5 -22l133 -218q20 -34 41.5 -46t54.5 -12h4v-68h-100q-36 0 -63.5 5.5t-48.5 17.5t-36.5 30.5t-28.5 44.5l-108 211h-73v-241h70v-68h-312v68zM283 379h97
q53 0 80 22t27 70v60q0 48 -27 70t-80 22h-97v-244zM295 764l72 214l137 -65l-158 -173z" />
    <glyph glyph-name="Rcaron" unicode="&#x158;" horiz-adv-x="755" 
d="M41 68h70v562h-70v68h406q47 0 87 -10t69.5 -31t46 -54.5t16.5 -80.5q0 -36 -12.5 -66t-34 -52.5t-50 -37.5t-61.5 -22l133 -218q20 -34 41.5 -46t54.5 -12h4v-68h-100q-36 0 -63.5 5.5t-48.5 17.5t-36.5 30.5t-28.5 44.5l-108 211h-73v-241h70v-68h-312v68zM283 379h97
q53 0 80 22t27 70v60q0 48 -27 70t-80 22h-97v-244zM160 925l45 37l141 -104l141 104l45 -37l-138 -181h-96z" />
    <glyph glyph-name="Rcommaaccent" unicode="&#x156;" horiz-adv-x="755" 
d="M41 68h70v562h-70v68h406q47 0 87 -10t69.5 -31t46 -54.5t16.5 -80.5q0 -36 -12.5 -66t-34 -52.5t-50 -37.5t-61.5 -22l133 -218q20 -34 41.5 -46t54.5 -12h4v-68h-100q-36 0 -63.5 5.5t-48.5 17.5t-36.5 30.5t-28.5 44.5l-108 211h-73v-241h70v-68h-312v68zM283 379h97
q53 0 80 22t27 70v60q0 48 -27 70t-80 22h-97v-244zM358 -290q19 20 35 49t24 55q-37 2 -53.5 25t-16.5 50v1q0 32 19.5 54.5t57.5 22.5q39 0 58 -22.5t19 -54.5v-9q0 -48 -20 -93t-52 -78h-71v0z" />
    <glyph glyph-name="Sacute" unicode="&#x15a;" horiz-adv-x="646" 
d="M328 -12q-31 0 -56 7t-43.5 17.5t-31 22.5t-18.5 23h-4v-58h-123v205h123v-44q0 -54 39.5 -75.5t105.5 -21.5q68 0 102 27t34 70q0 22 -5.5 37.5t-18.5 27t-35.5 19.5t-56.5 15l-45 9q-53 10 -96.5 28t-75 46t-48.5 67.5t-17 93.5q0 45 16 83t47 65t76.5 42.5t104.5 15.5
q32 0 57.5 -7t44 -17.5t31 -22.5t18.5 -23h4v58h123v-205h-123v44q0 53 -38.5 75t-95.5 22q-70 0 -102 -28.5t-32 -66.5q0 -22 7 -38t23 -27.5t41.5 -20t62.5 -15.5l43 -8q54 -11 96.5 -28.5t72 -44.5t45 -64t15.5 -86q0 -48 -18.5 -88t-53 -69t-84 -45.5t-111.5 -16.5z
M254 764l72 214l137 -65l-158 -173z" />
    <glyph glyph-name="Scaron" unicode="&#x160;" horiz-adv-x="646" 
d="M328 -12q-31 0 -56 7t-43.5 17.5t-31 22.5t-18.5 23h-4v-58h-123v205h123v-44q0 -54 39.5 -75.5t105.5 -21.5q68 0 102 27t34 70q0 22 -5.5 37.5t-18.5 27t-35.5 19.5t-56.5 15l-45 9q-53 10 -96.5 28t-75 46t-48.5 67.5t-17 93.5q0 45 16 83t47 65t76.5 42.5t104.5 15.5
q32 0 57.5 -7t44 -17.5t31 -22.5t18.5 -23h4v58h123v-205h-123v44q0 53 -38.5 75t-95.5 22q-70 0 -102 -28.5t-32 -66.5q0 -22 7 -38t23 -27.5t41.5 -20t62.5 -15.5l43 -8q54 -11 96.5 -28.5t72 -44.5t45 -64t15.5 -86q0 -48 -18.5 -88t-53 -69t-84 -45.5t-111.5 -16.5z
M119 925l45 37l141 -104l141 104l45 -37l-138 -181h-96z" />
    <glyph glyph-name="Scedilla" unicode="&#x15e;" horiz-adv-x="646" 
d="M326 -212q-48 0 -76 15t-40 29l35 43q10 -12 25 -20.5t35 -8.5q21 0 33.5 9t12.5 29q0 11 -11 23.5t-48 16.5l-21 2l14 66q-43 8 -70 28t-36 38h-4v-58h-123v205h123v-44q0 -54 39.5 -75.5t105.5 -21.5q68 0 102 27t34 70q0 22 -5.5 37.5t-18.5 27t-35.5 19.5t-56.5 15
l-45 9q-53 10 -96.5 28t-75 46t-48.5 67.5t-17 93.5q0 45 16 83t47 65t76.5 42.5t104.5 15.5q32 0 57.5 -7t44 -17.5t31 -22.5t18.5 -23h4v58h123v-205h-123v44q0 53 -38.5 75t-95.5 22q-70 0 -102 -28.5t-32 -66.5q0 -22 7 -38t23 -27.5t41.5 -20t62.5 -15.5l43 -8
q54 -11 96.5 -28.5t72 -44.5t45 -64t15.5 -86q0 -46 -17.5 -85.5t-50 -68.5t-79.5 -46t-106 -19l-9 -43l4 -4q11 3 22.5 5t23.5 2q33 0 54.5 -16t21.5 -53q0 -26 -11 -43t-30 -28t-43 -15.5t-49 -4.5z" />
    <glyph glyph-name="Scircumflex" unicode="&#x15c;" horiz-adv-x="646" 
d="M328 -12q-31 0 -56 7t-43.5 17.5t-31 22.5t-18.5 23h-4v-58h-123v205h123v-44q0 -54 39.5 -75.5t105.5 -21.5q68 0 102 27t34 70q0 22 -5.5 37.5t-18.5 27t-35.5 19.5t-56.5 15l-45 9q-53 10 -96.5 28t-75 46t-48.5 67.5t-17 93.5q0 45 16 83t47 65t76.5 42.5t104.5 15.5
q32 0 57.5 -7t44 -17.5t31 -22.5t18.5 -23h4v58h123v-205h-123v44q0 53 -38.5 75t-95.5 22q-70 0 -102 -28.5t-32 -66.5q0 -22 7 -38t23 -27.5t41.5 -20t62.5 -15.5l43 -8q54 -11 96.5 -28.5t72 -44.5t45 -64t15.5 -86q0 -48 -18.5 -88t-53 -69t-84 -45.5t-111.5 -16.5z
M119 777l138 181h96l138 -181l-45 -37l-141 104l-141 -104z" />
    <glyph glyph-name="Scommaaccent" unicode="&#x218;" horiz-adv-x="646" 
d="M328 -12q-31 0 -56 7t-43.5 17.5t-31 22.5t-18.5 23h-4v-58h-123v205h123v-44q0 -54 39.5 -75.5t105.5 -21.5q68 0 102 27t34 70q0 22 -5.5 37.5t-18.5 27t-35.5 19.5t-56.5 15l-45 9q-53 10 -96.5 28t-75 46t-48.5 67.5t-17 93.5q0 45 16 83t47 65t76.5 42.5t104.5 15.5
q32 0 57.5 -7t44 -17.5t31 -22.5t18.5 -23h4v58h123v-205h-123v44q0 53 -38.5 75t-95.5 22q-70 0 -102 -28.5t-32 -66.5q0 -22 7 -38t23 -27.5t41.5 -20t62.5 -15.5l43 -8q54 -11 96.5 -28.5t72 -44.5t45 -64t15.5 -86q0 -48 -18.5 -88t-53 -69t-84 -45.5t-111.5 -16.5z
M261 -290q19 20 35 49t24 55q-37 2 -53.5 25t-16.5 50v1q0 32 19.5 54.5t57.5 22.5q39 0 58 -22.5t19 -54.5v-9q0 -48 -20 -93t-52 -78h-71v0z" />
    <glyph glyph-name="uni1E9E" unicode="&#x1e9e;" horiz-adv-x="802" 
d="M503 -12q-44 0 -76.5 10t-54 27t-32 40t-10.5 49q0 39 23.5 62t59.5 23q41 0 61.5 -23t20.5 -55q0 -23 -11 -41.5t-28 -28.5v-6q11 -2 21.5 -2.5t23.5 -0.5q18 0 36 8t32 23.5t22.5 39.5t8.5 56v42q0 40 -11.5 66.5t-32 42.5t-49 22.5t-63.5 6.5h-63v68l156 206h-254
v-623h-242v68h70v562h-70v68h685v-68l-170 -218v-4q38 0 74.5 -12t65.5 -37t46.5 -63.5t17.5 -90.5q0 -59 -18.5 -100t-52.5 -67t-81 -38t-105 -12z" />
    <glyph glyph-name="Tbar" unicode="&#x166;" horiz-adv-x="730" 
d="M182 68h97v245h-112v72h112v238h-128v-113h-123v188h674v-188h-123v113h-128v-238h112v-72h-112v-245h97v-68h-366v68z" />
    <glyph glyph-name="Tcaron" unicode="&#x164;" horiz-adv-x="730" 
d="M182 68h97v555h-128v-113h-123v188h674v-188h-123v113h-128v-555h97v-68h-366v68zM179 925l45 37l141 -104l141 104l45 -37l-138 -181h-96z" />
    <glyph glyph-name="Tcommaaccent" unicode="&#x162;" horiz-adv-x="730" 
d="M182 68h97v555h-128v-113h-123v188h674v-188h-123v113h-128v-555h97v-68h-366v68zM299 -290q19 20 35 49t24 55q-37 2 -53.5 25t-16.5 50v1q0 32 19.5 54.5t57.5 22.5q39 0 58 -22.5t19 -54.5v-9q0 -48 -20 -93t-52 -78h-71v0z" />
    <glyph glyph-name="uni021A" unicode="&#x21a;" horiz-adv-x="730" 
d="M182 68h97v555h-128v-113h-123v188h674v-188h-123v113h-128v-555h97v-68h-366v68zM299 -290q19 20 35 49t24 55q-37 2 -53.5 25t-16.5 50v1q0 32 19.5 54.5t57.5 22.5q39 0 58 -22.5t19 -54.5v-9q0 -48 -20 -93t-52 -78h-71v0z" />
    <glyph glyph-name="Thorn" unicode="&#xde;" horiz-adv-x="707" 
d="M41 68h70v562h-70v68h312v-68h-70v-81h155q114 0 170 -48.5t56 -142.5q0 -96 -61 -150t-175 -54h-145v-86h70v-68h-312v68zM283 229h95q53 0 81.5 23.5t28.5 73.5v51q0 50 -28.5 73.5t-81.5 23.5h-95v-245z" />
    <glyph glyph-name="Uacute" unicode="&#xda;" horiz-adv-x="787" 
d="M420 -12q-84 0 -142.5 16t-95.5 50t-54 87t-17 126v363h-70v68h312v-68h-70v-364q0 -51 7.5 -88t25.5 -61.5t47.5 -36.5t74.5 -12q89 0 125 47t36 148v367h-70v68h222v-68h-70v-368q0 -134 -62 -204t-199 -70zM390 764l72 214l137 -65l-158 -173z" />
    <glyph glyph-name="Ubreve" unicode="&#x16c;" horiz-adv-x="787" 
d="M420 -12q-84 0 -142.5 16t-95.5 50t-54 87t-17 126v363h-70v68h312v-68h-70v-364q0 -51 7.5 -88t25.5 -61.5t47.5 -36.5t74.5 -12q89 0 125 47t36 148v367h-70v68h222v-68h-70v-368q0 -134 -62 -204t-199 -70zM441 740q-43 0 -74 16.5t-53 43t-37 60.5t-27 69l52 26
l20 -32q11 -18 22 -31t25 -21t31.5 -12t40.5 -4t40.5 4t31.5 12t25 21t22 31l20 32l52 -26q-12 -35 -27 -69t-37 -60.5t-53 -43t-74 -16.5z" />
    <glyph glyph-name="Ucircumflex" unicode="&#xdb;" horiz-adv-x="787" 
d="M420 -12q-84 0 -142.5 16t-95.5 50t-54 87t-17 126v363h-70v68h312v-68h-70v-364q0 -51 7.5 -88t25.5 -61.5t47.5 -36.5t74.5 -12q89 0 125 47t36 148v367h-70v68h222v-68h-70v-368q0 -134 -62 -204t-199 -70zM255 777l138 181h96l138 -181l-45 -37l-141 104l-141 -104z
" />
    <glyph glyph-name="Udieresis" unicode="&#xdc;" horiz-adv-x="787" 
d="M420 -12q-84 0 -142.5 16t-95.5 50t-54 87t-17 126v363h-70v68h312v-68h-70v-364q0 -51 7.5 -88t25.5 -61.5t47.5 -36.5t74.5 -12q89 0 125 47t36 148v367h-70v68h222v-68h-70v-368q0 -134 -62 -204t-199 -70zM330 759q-38 0 -59 21.5t-21 54.5v4q0 33 21 54.5t59 21.5
t59 -21.5t21 -54.5v-4q0 -33 -21 -54.5t-59 -21.5zM552 759q-38 0 -59 21.5t-21 54.5v4q0 33 21 54.5t59 21.5t59 -21.5t21 -54.5v-4q0 -33 -21 -54.5t-59 -21.5z" />
    <glyph glyph-name="uni1EE4" unicode="&#x1ee4;" horiz-adv-x="787" 
d="M420 -12q-84 0 -142.5 16t-95.5 50t-54 87t-17 126v363h-70v68h312v-68h-70v-364q0 -51 7.5 -88t25.5 -61.5t47.5 -36.5t74.5 -12q89 0 125 47t36 148v367h-70v68h222v-68h-70v-368q0 -134 -62 -204t-199 -70zM420 -207q-36 0 -58 20.5t-22 55.5v3q0 35 22 55.5t58 20.5
t58 -20.5t22 -55.5v-3q0 -35 -22 -55.5t-58 -20.5z" />
    <glyph glyph-name="Ugrave" unicode="&#xd9;" horiz-adv-x="787" 
d="M420 -12q-84 0 -142.5 16t-95.5 50t-54 87t-17 126v363h-70v68h312v-68h-70v-364q0 -51 7.5 -88t25.5 -61.5t47.5 -36.5t74.5 -12q89 0 125 47t36 148v367h-70v68h222v-68h-70v-368q0 -134 -62 -204t-199 -70zM283 913l137 65l72 -214l-51 -24z" />
    <glyph glyph-name="uni1EE6" unicode="&#x1ee6;" horiz-adv-x="787" 
d="M420 -12q-84 0 -142.5 16t-95.5 50t-54 87t-17 126v363h-70v68h312v-68h-70v-364q0 -51 7.5 -88t25.5 -61.5t47.5 -36.5t74.5 -12q89 0 125 47t36 148v367h-70v68h222v-68h-70v-368q0 -134 -62 -204t-199 -70zM425 753l42 107h-148v104h145q29 0 48 -6t30.5 -16.5
t16.5 -23.5t5 -28q0 -30 -16 -62.5t-41 -62.5l-29 -36z" />
    <glyph glyph-name="Uhungarumlaut" unicode="&#x170;" horiz-adv-x="787" 
d="M420 -12q-84 0 -142.5 16t-95.5 50t-54 87t-17 126v363h-70v68h312v-68h-70v-364q0 -51 7.5 -88t25.5 -61.5t47.5 -36.5t74.5 -12q89 0 125 47t36 148v367h-70v68h222v-68h-70v-368q0 -134 -62 -204t-199 -70zM290 764l79 214l117 -61l-146 -177zM492 764l79 214l117 -61
l-146 -177z" />
    <glyph glyph-name="Umacron" unicode="&#x16a;" horiz-adv-x="787" 
d="M420 -12q-84 0 -142.5 16t-95.5 50t-54 87t-17 126v363h-70v68h312v-68h-70v-364q0 -51 7.5 -88t25.5 -61.5t47.5 -36.5t74.5 -12q89 0 125 47t36 148v367h-70v68h222v-68h-70v-368q0 -134 -62 -204t-199 -70zM277 883h328v-93h-328v93z" />
    <glyph glyph-name="Uogonek" unicode="&#x172;" horiz-adv-x="787" 
d="M495 -212q-25 0 -47 5t-38 15.5t-25.5 27t-9.5 40.5q0 39 25.5 64t78.5 48l-1 4q-14 -2 -28.5 -3t-29.5 -1q-84 0 -142.5 16t-95.5 50t-54 87t-17 126v363h-70v68h312v-68h-70v-364q0 -51 7.5 -88t25.5 -61.5t47.5 -36.5t74.5 -12q89 0 125 47t36 148v367h-70v68h222v-68
h-70v-368q0 -91 -28 -152t-88 -93q-31 -16 -48.5 -32.5t-26.5 -32t-11 -29.5t-2 -24q0 -21 12 -32t33 -11q14 0 23.5 4.5t19.5 15.5l39 -40q-17 -23 -43 -35.5t-66 -12.5z" />
    <glyph glyph-name="Uring" unicode="&#x16e;" horiz-adv-x="787" 
d="M420 -12q-84 0 -142.5 16t-95.5 50t-54 87t-17 126v363h-70v68h312v-68h-70v-364q0 -51 7.5 -88t25.5 -61.5t47.5 -36.5t74.5 -12q89 0 125 47t36 148v367h-70v68h222v-68h-70v-368q0 -134 -62 -204t-199 -70zM441 774q25 0 39 15t14 41v65q0 26 -14 41t-39 15t-39 -15
t-14 -41v-65q0 -26 14 -41t39 -15zM441 718q-32 0 -59 11t-47 30t-31.5 45.5t-11.5 58.5q0 31 11.5 57.5t31.5 45.5t47 30t59 11q31 0 58.5 -11t47.5 -30t31.5 -45.5t11.5 -57.5q0 -32 -11.5 -58.5t-31.5 -45.5t-47.5 -30t-58.5 -11z" />
    <glyph glyph-name="Utilde" unicode="&#x168;" horiz-adv-x="787" 
d="M420 -12q-84 0 -142.5 16t-95.5 50t-54 87t-17 126v363h-70v68h312v-68h-70v-364q0 -51 7.5 -88t25.5 -61.5t47.5 -36.5t74.5 -12q89 0 125 47t36 148v367h-70v68h222v-68h-70v-368q0 -134 -62 -204t-199 -70zM517 755q-24 0 -47.5 10t-45.5 21l-42 21t-39 10
q-8 0 -14.5 -1t-13.5 -5.5t-15 -12.5t-18 -23l-40 42l25.5 41.5t27 33t31.5 21.5t38 8q24 0 47.5 -10t45.5 -21l42 -21t39 -10q8 0 14.5 1t13.5 5.5t14.5 12.5t18.5 23l40 -42q-13 -23 -25.5 -42t-27 -32.5t-31.5 -21.5t-38 -8z" />
    <glyph glyph-name="Uhorn" unicode="&#x1af;" horiz-adv-x="809" 
d="M420 -12q-84 0 -142.5 16t-95.5 50t-54 87t-17 126v363h-70v68h312v-68h-70v-364q0 -51 7.5 -88t25.5 -61.5t47.5 -36.5t74.5 -12q89 0 125 47t36 148v367h-70v68h166v111h126v-68q0 -46 -21.5 -74.5t-69.5 -28.5h-49v-376q0 -134 -62 -204t-199 -70z" />
    <glyph glyph-name="uni1EE8" unicode="&#x1ee8;" horiz-adv-x="809" 
d="M420 -12q-84 0 -142.5 16t-95.5 50t-54 87t-17 126v363h-70v68h312v-68h-70v-364q0 -51 7.5 -88t25.5 -61.5t47.5 -36.5t74.5 -12q89 0 125 47t36 148v367h-70v68h166v111h126v-68q0 -46 -21.5 -74.5t-69.5 -28.5h-49v-376q0 -134 -62 -204t-199 -70zM390 764l72 214
l137 -65l-158 -173z" />
    <glyph glyph-name="uni1EF0" unicode="&#x1ef0;" horiz-adv-x="809" 
d="M420 -12q-84 0 -142.5 16t-95.5 50t-54 87t-17 126v363h-70v68h312v-68h-70v-364q0 -51 7.5 -88t25.5 -61.5t47.5 -36.5t74.5 -12q89 0 125 47t36 148v367h-70v68h166v111h126v-68q0 -46 -21.5 -74.5t-69.5 -28.5h-49v-376q0 -134 -62 -204t-199 -70zM420 -207
q-36 0 -58 20.5t-22 55.5v3q0 35 22 55.5t58 20.5t58 -20.5t22 -55.5v-3q0 -35 -22 -55.5t-58 -20.5z" />
    <glyph glyph-name="uni1EEA" unicode="&#x1eea;" horiz-adv-x="809" 
d="M420 -12q-84 0 -142.5 16t-95.5 50t-54 87t-17 126v363h-70v68h312v-68h-70v-364q0 -51 7.5 -88t25.5 -61.5t47.5 -36.5t74.5 -12q89 0 125 47t36 148v367h-70v68h166v111h126v-68q0 -46 -21.5 -74.5t-69.5 -28.5h-49v-376q0 -134 -62 -204t-199 -70zM283 913l137 65
l72 -214l-51 -24z" />
    <glyph glyph-name="uni1EEC" unicode="&#x1eec;" horiz-adv-x="809" 
d="M420 -12q-84 0 -142.5 16t-95.5 50t-54 87t-17 126v363h-70v68h312v-68h-70v-364q0 -51 7.5 -88t25.5 -61.5t47.5 -36.5t74.5 -12q89 0 125 47t36 148v367h-70v68h166v111h126v-68q0 -46 -21.5 -74.5t-69.5 -28.5h-49v-376q0 -134 -62 -204t-199 -70zM425 753l42 107
h-148v104h145q29 0 48 -6t30.5 -16.5t16.5 -23.5t5 -28q0 -30 -16 -62.5t-41 -62.5l-29 -36z" />
    <glyph glyph-name="uni1EEE" unicode="&#x1eee;" horiz-adv-x="809" 
d="M420 -12q-84 0 -142.5 16t-95.5 50t-54 87t-17 126v363h-70v68h312v-68h-70v-364q0 -51 7.5 -88t25.5 -61.5t47.5 -36.5t74.5 -12q89 0 125 47t36 148v367h-70v68h166v111h126v-68q0 -46 -21.5 -74.5t-69.5 -28.5h-49v-376q0 -134 -62 -204t-199 -70zM507 755
q-22 0 -42.5 10.5l-40.5 20.5t-37 20.5t-34 10.5q-15 0 -27 -5.5t-32 -32.5l-40 42q25 44 51.5 72t68.5 28q22 0 42.5 -10.5l40.5 -20.5t37 -20.5t34 -10.5q7 0 13.5 1t13.5 4.5t14.5 11t17.5 21.5l40 -42q-25 -44 -51.5 -72t-68.5 -28z" />
    <glyph glyph-name="Wacute" unicode="&#x1e82;" horiz-adv-x="1057" 
d="M66 630h-51v68h307v-68h-80l114 -486h4l141 554h142l147 -554h4l108 486h-80v68h221v-68h-51l-157 -630h-166l-138 497h-4l-138 -497h-166zM521 764l72 214l137 -65l-158 -173z" />
    <glyph glyph-name="Wcircumflex" unicode="&#x174;" horiz-adv-x="1057" 
d="M66 630h-51v68h307v-68h-80l114 -486h4l141 554h142l147 -554h4l108 486h-80v68h221v-68h-51l-157 -630h-166l-138 497h-4l-138 -497h-166zM386 777l138 181h96l138 -181l-45 -37l-141 104l-141 -104z" />
    <glyph glyph-name="Wdieresis" unicode="&#x1e84;" horiz-adv-x="1057" 
d="M66 630h-51v68h307v-68h-80l114 -486h4l141 554h142l147 -554h4l108 486h-80v68h221v-68h-51l-157 -630h-166l-138 497h-4l-138 -497h-166zM461 759q-38 0 -59 21.5t-21 54.5v4q0 33 21 54.5t59 21.5t59 -21.5t21 -54.5v-4q0 -33 -21 -54.5t-59 -21.5zM683 759
q-38 0 -59 21.5t-21 54.5v4q0 33 21 54.5t59 21.5t59 -21.5t21 -54.5v-4q0 -33 -21 -54.5t-59 -21.5z" />
    <glyph glyph-name="Wgrave" unicode="&#x1e80;" horiz-adv-x="1057" 
d="M66 630h-51v68h307v-68h-80l114 -486h4l141 554h142l147 -554h4l108 486h-80v68h221v-68h-51l-157 -630h-166l-138 497h-4l-138 -497h-166zM414 913l137 65l72 -214l-51 -24z" />
    </font>
</defs>
</svg>
